G04 EAGLE Gerber RS-274X export*
G75*
%MOMM*%
%FSLAX34Y34*%
%LPD*%
%INCopper Layer 15*%
%IPPOS*%
%AMOC8*
5,1,8,0,0,1.08239X$1,22.5*%
G01*
%ADD10C,1.244600*%
%ADD11C,1.400000*%
%ADD12C,1.960000*%
%ADD13C,4.016000*%
%ADD14C,1.288000*%
%ADD15C,3.220000*%
%ADD16C,4.191000*%
%ADD17C,0.609600*%

G36*
X1265601Y3064D02*
X1265601Y3064D01*
X1265720Y3071D01*
X1265758Y3083D01*
X1265798Y3089D01*
X1265909Y3132D01*
X1266022Y3169D01*
X1266056Y3191D01*
X1266094Y3206D01*
X1266190Y3275D01*
X1266291Y3339D01*
X1266319Y3369D01*
X1266351Y3392D01*
X1266427Y3484D01*
X1266509Y3571D01*
X1266528Y3606D01*
X1266554Y3637D01*
X1266605Y3745D01*
X1266662Y3849D01*
X1266673Y3888D01*
X1266690Y3925D01*
X1266712Y4042D01*
X1266742Y4157D01*
X1266746Y4217D01*
X1266750Y4237D01*
X1266748Y4258D01*
X1266752Y4318D01*
X1266950Y1011682D01*
X1266936Y1011800D01*
X1266928Y1011919D01*
X1266916Y1011957D01*
X1266911Y1011997D01*
X1266867Y1012108D01*
X1266830Y1012221D01*
X1266809Y1012256D01*
X1266794Y1012293D01*
X1266724Y1012389D01*
X1266660Y1012490D01*
X1266630Y1012518D01*
X1266607Y1012550D01*
X1266515Y1012626D01*
X1266428Y1012708D01*
X1266393Y1012728D01*
X1266362Y1012753D01*
X1266254Y1012804D01*
X1266150Y1012862D01*
X1266111Y1012872D01*
X1266074Y1012889D01*
X1265957Y1012911D01*
X1265842Y1012941D01*
X1265782Y1012945D01*
X1265762Y1012949D01*
X1265741Y1012947D01*
X1265681Y1012951D01*
X4318Y1012951D01*
X4200Y1012936D01*
X4081Y1012929D01*
X4043Y1012916D01*
X4002Y1012911D01*
X3892Y1012868D01*
X3779Y1012831D01*
X3744Y1012809D01*
X3707Y1012794D01*
X3611Y1012725D01*
X3510Y1012661D01*
X3482Y1012631D01*
X3449Y1012608D01*
X3373Y1012516D01*
X3292Y1012429D01*
X3272Y1012394D01*
X3247Y1012363D01*
X3196Y1012255D01*
X3138Y1012151D01*
X3128Y1012111D01*
X3111Y1012075D01*
X3089Y1011958D01*
X3059Y1011843D01*
X3055Y1011783D01*
X3051Y1011763D01*
X3053Y1011742D01*
X3049Y1011682D01*
X3049Y4318D01*
X3064Y4200D01*
X3071Y4081D01*
X3084Y4043D01*
X3089Y4002D01*
X3132Y3892D01*
X3169Y3779D01*
X3191Y3744D01*
X3206Y3707D01*
X3275Y3611D01*
X3339Y3510D01*
X3369Y3482D01*
X3392Y3449D01*
X3484Y3373D01*
X3571Y3292D01*
X3606Y3272D01*
X3637Y3247D01*
X3745Y3196D01*
X3849Y3138D01*
X3889Y3128D01*
X3925Y3111D01*
X4042Y3089D01*
X4157Y3059D01*
X4217Y3055D01*
X4237Y3051D01*
X4258Y3053D01*
X4318Y3049D01*
X1265483Y3049D01*
X1265601Y3064D01*
G37*
%LPC*%
G36*
X944263Y790061D02*
X944263Y790061D01*
X940775Y791506D01*
X938106Y794175D01*
X936661Y797663D01*
X936661Y801437D01*
X938106Y804925D01*
X940775Y807594D01*
X942666Y808377D01*
X942787Y808446D01*
X942910Y808511D01*
X942925Y808525D01*
X942942Y808535D01*
X943042Y808632D01*
X943145Y808725D01*
X943156Y808742D01*
X943171Y808756D01*
X943244Y808875D01*
X943320Y808991D01*
X943326Y809010D01*
X943337Y809027D01*
X943378Y809160D01*
X943423Y809292D01*
X943424Y809312D01*
X943430Y809331D01*
X943437Y809470D01*
X943448Y809609D01*
X943445Y809629D01*
X943446Y809649D01*
X943417Y809785D01*
X943394Y809922D01*
X943385Y809941D01*
X943381Y809960D01*
X943320Y810086D01*
X943263Y810212D01*
X943250Y810228D01*
X943242Y810246D01*
X943151Y810352D01*
X943065Y810460D01*
X943048Y810473D01*
X943035Y810488D01*
X942922Y810568D01*
X942810Y810652D01*
X942785Y810664D01*
X942775Y810671D01*
X942756Y810678D01*
X942666Y810723D01*
X940775Y811506D01*
X938106Y814175D01*
X936661Y817663D01*
X936661Y821437D01*
X938106Y824925D01*
X938545Y825364D01*
X938631Y825474D01*
X938719Y825581D01*
X938728Y825600D01*
X938740Y825616D01*
X938796Y825744D01*
X938855Y825869D01*
X938859Y825889D01*
X938867Y825908D01*
X938889Y826046D01*
X938915Y826182D01*
X938913Y826202D01*
X938917Y826222D01*
X938903Y826361D01*
X938895Y826499D01*
X938889Y826518D01*
X938887Y826538D01*
X938840Y826669D01*
X938797Y826801D01*
X938786Y826819D01*
X938779Y826838D01*
X938701Y826952D01*
X938627Y827070D01*
X938612Y827084D01*
X938601Y827101D01*
X938497Y827193D01*
X938395Y827288D01*
X938377Y827298D01*
X938362Y827311D01*
X938238Y827374D01*
X938117Y827442D01*
X938097Y827447D01*
X938079Y827456D01*
X937943Y827486D01*
X937809Y827521D01*
X937781Y827523D01*
X937769Y827526D01*
X937748Y827525D01*
X937648Y827531D01*
X499861Y827531D01*
X497331Y830061D01*
X497331Y907929D01*
X497325Y907978D01*
X497327Y908028D01*
X497305Y908135D01*
X497291Y908244D01*
X497273Y908291D01*
X497263Y908339D01*
X497215Y908438D01*
X497174Y908540D01*
X497145Y908580D01*
X497123Y908625D01*
X497052Y908708D01*
X496988Y908797D01*
X496949Y908829D01*
X496917Y908867D01*
X496827Y908930D01*
X496743Y909000D01*
X496698Y909021D01*
X496657Y909050D01*
X496554Y909089D01*
X496455Y909136D01*
X496406Y909145D01*
X496360Y909163D01*
X496250Y909175D01*
X496143Y909195D01*
X496093Y909192D01*
X496044Y909198D01*
X495935Y909182D01*
X495825Y909176D01*
X495778Y909160D01*
X495729Y909153D01*
X495576Y909101D01*
X492744Y907928D01*
X489056Y907928D01*
X485648Y909340D01*
X483040Y911948D01*
X481628Y915356D01*
X481628Y919044D01*
X483040Y922452D01*
X485648Y925060D01*
X489056Y926472D01*
X492744Y926472D01*
X495576Y925299D01*
X495624Y925286D01*
X495669Y925264D01*
X495777Y925244D01*
X495883Y925215D01*
X495933Y925214D01*
X495982Y925205D01*
X496091Y925211D01*
X496201Y925210D01*
X496249Y925221D01*
X496299Y925224D01*
X496403Y925258D01*
X496510Y925284D01*
X496554Y925307D01*
X496601Y925322D01*
X496694Y925381D01*
X496791Y925433D01*
X496828Y925466D01*
X496870Y925493D01*
X496945Y925573D01*
X497027Y925646D01*
X497054Y925688D01*
X497088Y925724D01*
X497141Y925820D01*
X497201Y925912D01*
X497218Y925959D01*
X497242Y926003D01*
X497269Y926109D01*
X497305Y926213D01*
X497309Y926263D01*
X497321Y926311D01*
X497331Y926471D01*
X497331Y928889D01*
X499861Y931419D01*
X512685Y931419D01*
X512754Y931427D01*
X512824Y931426D01*
X512911Y931447D01*
X513000Y931459D01*
X513065Y931484D01*
X513133Y931501D01*
X513213Y931543D01*
X513296Y931576D01*
X513353Y931617D01*
X513414Y931649D01*
X513481Y931710D01*
X513553Y931762D01*
X513598Y931816D01*
X513650Y931863D01*
X513699Y931938D01*
X513756Y932007D01*
X513786Y932071D01*
X513824Y932129D01*
X513854Y932214D01*
X513892Y932295D01*
X513905Y932364D01*
X513928Y932430D01*
X513935Y932519D01*
X513952Y932607D01*
X513947Y932677D01*
X513953Y932747D01*
X513937Y932835D01*
X513932Y932925D01*
X513910Y932991D01*
X513898Y933060D01*
X513861Y933142D01*
X513834Y933227D01*
X513796Y933286D01*
X513768Y933350D01*
X513712Y933420D01*
X513664Y933496D01*
X513613Y933544D01*
X513569Y933598D01*
X513497Y933653D01*
X513432Y933714D01*
X513371Y933748D01*
X513315Y933790D01*
X513171Y933861D01*
X511048Y934740D01*
X508440Y937348D01*
X507028Y940756D01*
X507028Y944444D01*
X508440Y947852D01*
X511048Y950460D01*
X514456Y951872D01*
X518144Y951872D01*
X521552Y950460D01*
X524160Y947852D01*
X525572Y944444D01*
X525572Y940756D01*
X524160Y937348D01*
X521552Y934740D01*
X519429Y933861D01*
X519369Y933826D01*
X519304Y933800D01*
X519231Y933748D01*
X519153Y933703D01*
X519103Y933655D01*
X519047Y933614D01*
X518989Y933544D01*
X518925Y933482D01*
X518888Y933422D01*
X518844Y933369D01*
X518805Y933287D01*
X518759Y933211D01*
X518738Y933144D01*
X518708Y933081D01*
X518691Y932993D01*
X518665Y932907D01*
X518662Y932837D01*
X518648Y932768D01*
X518654Y932679D01*
X518650Y932589D01*
X518664Y932521D01*
X518668Y932451D01*
X518696Y932366D01*
X518714Y932278D01*
X518745Y932215D01*
X518766Y932149D01*
X518814Y932073D01*
X518854Y931992D01*
X518899Y931939D01*
X518936Y931880D01*
X519002Y931818D01*
X519060Y931750D01*
X519117Y931710D01*
X519168Y931662D01*
X519247Y931619D01*
X519320Y931567D01*
X519385Y931542D01*
X519447Y931508D01*
X519533Y931486D01*
X519618Y931454D01*
X519687Y931446D01*
X519754Y931429D01*
X519915Y931419D01*
X528839Y931419D01*
X531369Y928889D01*
X531369Y922867D01*
X531377Y922798D01*
X531376Y922728D01*
X531397Y922641D01*
X531409Y922552D01*
X531434Y922487D01*
X531451Y922419D01*
X531493Y922339D01*
X531526Y922256D01*
X531567Y922200D01*
X531599Y922138D01*
X531660Y922071D01*
X531712Y921999D01*
X531766Y921954D01*
X531813Y921902D01*
X531888Y921853D01*
X531957Y921796D01*
X532021Y921766D01*
X532079Y921728D01*
X532164Y921699D01*
X532245Y921660D01*
X532314Y921647D01*
X532380Y921625D01*
X532469Y921617D01*
X532557Y921601D01*
X532627Y921605D01*
X532697Y921599D01*
X532785Y921615D01*
X532875Y921620D01*
X532941Y921642D01*
X533010Y921654D01*
X533092Y921691D01*
X533177Y921718D01*
X533236Y921756D01*
X533300Y921784D01*
X533370Y921840D01*
X533446Y921888D01*
X533494Y921939D01*
X533548Y921983D01*
X533603Y922055D01*
X533664Y922120D01*
X533698Y922181D01*
X533740Y922237D01*
X533811Y922382D01*
X533840Y922452D01*
X536448Y925060D01*
X539856Y926472D01*
X543544Y926472D01*
X546952Y925060D01*
X549560Y922452D01*
X550972Y919044D01*
X550972Y915356D01*
X549560Y911948D01*
X546952Y909340D01*
X543544Y907928D01*
X539856Y907928D01*
X536448Y909340D01*
X533840Y911948D01*
X533811Y912018D01*
X533776Y912079D01*
X533750Y912144D01*
X533698Y912217D01*
X533653Y912295D01*
X533605Y912345D01*
X533564Y912401D01*
X533494Y912459D01*
X533432Y912523D01*
X533372Y912560D01*
X533319Y912604D01*
X533237Y912642D01*
X533161Y912689D01*
X533094Y912710D01*
X533031Y912740D01*
X532943Y912757D01*
X532857Y912783D01*
X532787Y912786D01*
X532718Y912799D01*
X532629Y912794D01*
X532539Y912798D01*
X532471Y912784D01*
X532401Y912780D01*
X532316Y912752D01*
X532228Y912734D01*
X532165Y912703D01*
X532099Y912682D01*
X532023Y912634D01*
X531942Y912594D01*
X531889Y912549D01*
X531830Y912512D01*
X531768Y912446D01*
X531700Y912388D01*
X531660Y912331D01*
X531612Y912280D01*
X531569Y912201D01*
X531517Y912128D01*
X531492Y912063D01*
X531458Y912001D01*
X531436Y911914D01*
X531404Y911830D01*
X531396Y911761D01*
X531379Y911693D01*
X531369Y911533D01*
X531369Y862838D01*
X531384Y862720D01*
X531391Y862601D01*
X531404Y862563D01*
X531409Y862522D01*
X531452Y862411D01*
X531489Y862299D01*
X531511Y862264D01*
X531526Y862227D01*
X531595Y862131D01*
X531659Y862030D01*
X531689Y862002D01*
X531712Y861969D01*
X531804Y861893D01*
X531891Y861812D01*
X531926Y861792D01*
X531957Y861767D01*
X532065Y861716D01*
X532169Y861658D01*
X532209Y861648D01*
X532245Y861631D01*
X532362Y861609D01*
X532477Y861579D01*
X532537Y861575D01*
X532557Y861571D01*
X532578Y861573D01*
X532638Y861569D01*
X956787Y861569D01*
X956925Y861586D01*
X957063Y861599D01*
X957082Y861606D01*
X957102Y861609D01*
X957231Y861660D01*
X957362Y861707D01*
X957379Y861718D01*
X957398Y861726D01*
X957510Y861807D01*
X957625Y861885D01*
X957639Y861901D01*
X957655Y861912D01*
X957744Y862020D01*
X957836Y862124D01*
X957845Y862142D01*
X957858Y862157D01*
X957917Y862283D01*
X957980Y862407D01*
X957985Y862427D01*
X957994Y862445D01*
X958020Y862582D01*
X958050Y862717D01*
X958050Y862738D01*
X958053Y862757D01*
X958045Y862896D01*
X958040Y863035D01*
X958035Y863055D01*
X958034Y863075D01*
X957991Y863207D01*
X957952Y863341D01*
X957942Y863358D01*
X957936Y863377D01*
X957861Y863495D01*
X957791Y863615D01*
X957772Y863636D01*
X957765Y863646D01*
X957750Y863660D01*
X957684Y863735D01*
X957016Y864403D01*
X954101Y871441D01*
X954101Y879059D01*
X957016Y886097D01*
X962403Y891484D01*
X969441Y894399D01*
X977059Y894399D01*
X984097Y891484D01*
X989484Y886097D01*
X992399Y879059D01*
X992399Y871441D01*
X989484Y864403D01*
X984097Y859016D01*
X977024Y856087D01*
X977020Y856086D01*
X976901Y856079D01*
X976863Y856066D01*
X976822Y856061D01*
X976712Y856018D01*
X976599Y855981D01*
X976564Y855959D01*
X976527Y855944D01*
X976431Y855875D01*
X976330Y855811D01*
X976302Y855781D01*
X976269Y855758D01*
X976193Y855666D01*
X976112Y855579D01*
X976092Y855544D01*
X976067Y855513D01*
X976016Y855405D01*
X975958Y855301D01*
X975948Y855261D01*
X975931Y855225D01*
X975909Y855108D01*
X975879Y854993D01*
X975875Y854933D01*
X975871Y854913D01*
X975873Y854892D01*
X975869Y854832D01*
X975869Y830061D01*
X973339Y827531D01*
X954652Y827531D01*
X954514Y827514D01*
X954376Y827501D01*
X954357Y827494D01*
X954337Y827491D01*
X954207Y827440D01*
X954076Y827393D01*
X954060Y827382D01*
X954041Y827374D01*
X953928Y827293D01*
X953813Y827215D01*
X953800Y827199D01*
X953783Y827188D01*
X953695Y827080D01*
X953603Y826976D01*
X953594Y826958D01*
X953581Y826943D01*
X953522Y826817D01*
X953458Y826693D01*
X953454Y826673D01*
X953445Y826655D01*
X953419Y826519D01*
X953389Y826383D01*
X953389Y826362D01*
X953385Y826343D01*
X953394Y826203D01*
X953398Y826065D01*
X953404Y826045D01*
X953405Y826025D01*
X953448Y825893D01*
X953487Y825759D01*
X953497Y825742D01*
X953503Y825723D01*
X953577Y825605D01*
X953648Y825485D01*
X953667Y825464D01*
X953673Y825454D01*
X953688Y825440D01*
X953755Y825364D01*
X954194Y824925D01*
X955639Y821437D01*
X955639Y817663D01*
X954194Y814175D01*
X951525Y811506D01*
X949634Y810723D01*
X949514Y810654D01*
X949390Y810589D01*
X949375Y810575D01*
X949358Y810565D01*
X949258Y810468D01*
X949155Y810375D01*
X949144Y810358D01*
X949129Y810344D01*
X949057Y810226D01*
X948980Y810109D01*
X948974Y810090D01*
X948963Y810073D01*
X948922Y809940D01*
X948877Y809808D01*
X948875Y809788D01*
X948870Y809769D01*
X948863Y809630D01*
X948852Y809491D01*
X948855Y809471D01*
X948854Y809451D01*
X948883Y809315D01*
X948906Y809178D01*
X948915Y809159D01*
X948919Y809140D01*
X948980Y809015D01*
X949037Y808888D01*
X949049Y808872D01*
X949058Y808854D01*
X949149Y808748D01*
X949235Y808640D01*
X949252Y808627D01*
X949265Y808612D01*
X949379Y808532D01*
X949490Y808448D01*
X949515Y808436D01*
X949525Y808429D01*
X949544Y808422D01*
X949634Y808377D01*
X951525Y807594D01*
X954194Y804925D01*
X955639Y801437D01*
X955639Y797663D01*
X954194Y794175D01*
X951525Y791506D01*
X948037Y790061D01*
X944263Y790061D01*
G37*
%LPD*%
G36*
X971668Y830596D02*
X971668Y830596D01*
X971787Y830603D01*
X971825Y830616D01*
X971866Y830621D01*
X971976Y830664D01*
X972089Y830701D01*
X972124Y830723D01*
X972161Y830738D01*
X972257Y830808D01*
X972358Y830871D01*
X972386Y830901D01*
X972419Y830924D01*
X972495Y831016D01*
X972576Y831103D01*
X972596Y831138D01*
X972621Y831169D01*
X972672Y831277D01*
X972730Y831381D01*
X972740Y831421D01*
X972757Y831457D01*
X972779Y831574D01*
X972809Y831689D01*
X972813Y831750D01*
X972817Y831770D01*
X972815Y831790D01*
X972819Y831850D01*
X972819Y855340D01*
X972804Y855458D01*
X972797Y855577D01*
X972784Y855615D01*
X972779Y855656D01*
X972736Y855766D01*
X972699Y855879D01*
X972677Y855914D01*
X972662Y855951D01*
X972593Y856047D01*
X972529Y856148D01*
X972499Y856176D01*
X972476Y856209D01*
X972384Y856285D01*
X972297Y856366D01*
X972262Y856386D01*
X972231Y856411D01*
X972123Y856462D01*
X972019Y856520D01*
X971979Y856530D01*
X971943Y856547D01*
X971826Y856569D01*
X971711Y856599D01*
X971651Y856603D01*
X971631Y856607D01*
X971610Y856605D01*
X971550Y856609D01*
X969542Y856609D01*
X965164Y858423D01*
X965155Y858425D01*
X965147Y858430D01*
X965002Y858467D01*
X964858Y858507D01*
X964848Y858507D01*
X964839Y858509D01*
X964679Y858519D01*
X528319Y858519D01*
X528319Y927100D01*
X528304Y927218D01*
X528297Y927337D01*
X528284Y927375D01*
X528279Y927416D01*
X528236Y927526D01*
X528199Y927639D01*
X528177Y927674D01*
X528162Y927711D01*
X528093Y927807D01*
X528029Y927908D01*
X527999Y927936D01*
X527976Y927969D01*
X527884Y928045D01*
X527797Y928126D01*
X527762Y928146D01*
X527731Y928171D01*
X527623Y928222D01*
X527519Y928280D01*
X527479Y928290D01*
X527443Y928307D01*
X527326Y928329D01*
X527211Y928359D01*
X527151Y928363D01*
X527131Y928367D01*
X527110Y928365D01*
X527050Y928369D01*
X517957Y928369D01*
X517922Y928365D01*
X517887Y928367D01*
X517765Y928345D01*
X517641Y928329D01*
X517609Y928317D01*
X517574Y928310D01*
X517461Y928258D01*
X517345Y928212D01*
X517317Y928192D01*
X517285Y928177D01*
X517189Y928099D01*
X517088Y928026D01*
X517066Y927999D01*
X517039Y927977D01*
X516965Y927876D01*
X516885Y927781D01*
X516870Y927749D01*
X516850Y927721D01*
X516803Y927605D01*
X516750Y927493D01*
X516743Y927459D01*
X516730Y927426D01*
X516713Y927303D01*
X516690Y927181D01*
X516692Y927146D01*
X516687Y927111D01*
X516702Y926987D01*
X516710Y926863D01*
X516721Y926830D01*
X516725Y926795D01*
X516769Y926679D01*
X516808Y926561D01*
X516826Y926531D01*
X516839Y926498D01*
X516911Y926397D01*
X516978Y926292D01*
X517003Y926268D01*
X517024Y926239D01*
X517119Y926159D01*
X517210Y926074D01*
X517240Y926057D01*
X517267Y926035D01*
X517379Y925981D01*
X517488Y925920D01*
X517522Y925912D01*
X517553Y925897D01*
X517709Y925855D01*
X518856Y925627D01*
X520451Y924966D01*
X521887Y924007D01*
X523107Y922787D01*
X524066Y921351D01*
X524727Y919756D01*
X524793Y919422D01*
X517253Y919422D01*
X517134Y919407D01*
X517016Y919399D01*
X516977Y919387D01*
X516937Y919382D01*
X516826Y919338D01*
X516713Y919301D01*
X516679Y919280D01*
X516641Y919265D01*
X516545Y919195D01*
X516445Y919131D01*
X516417Y919102D01*
X516384Y919078D01*
X516308Y918986D01*
X516304Y918982D01*
X516297Y918988D01*
X516273Y919021D01*
X516181Y919097D01*
X516094Y919179D01*
X516059Y919198D01*
X516028Y919224D01*
X515920Y919275D01*
X515816Y919332D01*
X515777Y919342D01*
X515740Y919359D01*
X515623Y919382D01*
X515508Y919412D01*
X515448Y919415D01*
X515428Y919419D01*
X515407Y919418D01*
X515347Y919422D01*
X507807Y919422D01*
X507873Y919756D01*
X508534Y921351D01*
X509493Y922787D01*
X510713Y924007D01*
X512149Y924966D01*
X513744Y925627D01*
X514891Y925855D01*
X514924Y925866D01*
X514959Y925871D01*
X515075Y925916D01*
X515193Y925956D01*
X515222Y925975D01*
X515255Y925988D01*
X515355Y926061D01*
X515460Y926128D01*
X515484Y926154D01*
X515512Y926174D01*
X515591Y926271D01*
X515676Y926362D01*
X515692Y926392D01*
X515715Y926419D01*
X515768Y926532D01*
X515827Y926642D01*
X515835Y926676D01*
X515850Y926707D01*
X515874Y926829D01*
X515904Y926950D01*
X515903Y926985D01*
X515910Y927020D01*
X515902Y927144D01*
X515901Y927268D01*
X515892Y927302D01*
X515890Y927337D01*
X515852Y927455D01*
X515820Y927576D01*
X515803Y927606D01*
X515792Y927639D01*
X515726Y927745D01*
X515665Y927853D01*
X515641Y927879D01*
X515622Y927908D01*
X515531Y927994D01*
X515446Y928084D01*
X515416Y928102D01*
X515390Y928126D01*
X515281Y928186D01*
X515176Y928252D01*
X515143Y928263D01*
X515112Y928280D01*
X514992Y928311D01*
X514873Y928348D01*
X514838Y928350D01*
X514804Y928359D01*
X514643Y928369D01*
X501650Y928369D01*
X501532Y928354D01*
X501413Y928347D01*
X501375Y928334D01*
X501334Y928329D01*
X501224Y928286D01*
X501111Y928249D01*
X501076Y928227D01*
X501039Y928212D01*
X500943Y928143D01*
X500842Y928079D01*
X500814Y928049D01*
X500781Y928026D01*
X500706Y927934D01*
X500624Y927847D01*
X500604Y927812D01*
X500579Y927781D01*
X500528Y927673D01*
X500470Y927569D01*
X500460Y927529D01*
X500443Y927493D01*
X500421Y927376D01*
X500391Y927261D01*
X500387Y927201D01*
X500383Y927181D01*
X500385Y927160D01*
X500381Y927100D01*
X500381Y831850D01*
X500396Y831732D01*
X500403Y831613D01*
X500416Y831575D01*
X500421Y831534D01*
X500464Y831424D01*
X500501Y831311D01*
X500523Y831276D01*
X500538Y831239D01*
X500608Y831143D01*
X500671Y831042D01*
X500701Y831014D01*
X500724Y830981D01*
X500816Y830906D01*
X500903Y830824D01*
X500938Y830804D01*
X500969Y830779D01*
X501077Y830728D01*
X501181Y830670D01*
X501221Y830660D01*
X501257Y830643D01*
X501374Y830621D01*
X501489Y830591D01*
X501550Y830587D01*
X501570Y830583D01*
X501590Y830585D01*
X501650Y830581D01*
X971550Y830581D01*
X971668Y830596D01*
G37*
%LPC*%
G36*
X33325Y14096D02*
X33325Y14096D01*
X24503Y17751D01*
X17751Y24503D01*
X14096Y33325D01*
X14096Y42875D01*
X17751Y51697D01*
X24503Y58449D01*
X33325Y62104D01*
X42875Y62104D01*
X51697Y58449D01*
X58449Y51697D01*
X62104Y42875D01*
X62104Y33325D01*
X58449Y24503D01*
X51697Y17751D01*
X42875Y14096D01*
X33325Y14096D01*
G37*
%LPD*%
%LPC*%
G36*
X1227125Y14096D02*
X1227125Y14096D01*
X1218303Y17751D01*
X1211551Y24503D01*
X1207896Y33325D01*
X1207896Y42875D01*
X1211551Y51697D01*
X1218303Y58449D01*
X1227125Y62104D01*
X1236675Y62104D01*
X1245497Y58449D01*
X1252249Y51697D01*
X1255904Y42875D01*
X1255904Y33325D01*
X1252249Y24503D01*
X1245497Y17751D01*
X1236675Y14096D01*
X1227125Y14096D01*
G37*
%LPD*%
%LPC*%
G36*
X1227125Y953896D02*
X1227125Y953896D01*
X1218303Y957551D01*
X1211551Y964303D01*
X1207896Y973125D01*
X1207896Y982675D01*
X1211551Y991497D01*
X1218303Y998249D01*
X1227125Y1001904D01*
X1236675Y1001904D01*
X1245497Y998249D01*
X1252249Y991497D01*
X1255904Y982675D01*
X1255904Y973125D01*
X1252249Y964303D01*
X1245497Y957551D01*
X1236675Y953896D01*
X1227125Y953896D01*
G37*
%LPD*%
%LPC*%
G36*
X33325Y953896D02*
X33325Y953896D01*
X24503Y957551D01*
X17751Y964303D01*
X14096Y973125D01*
X14096Y982675D01*
X17751Y991497D01*
X24503Y998249D01*
X33325Y1001904D01*
X42875Y1001904D01*
X51697Y998249D01*
X58449Y991497D01*
X62104Y982675D01*
X62104Y973125D01*
X58449Y964303D01*
X51697Y957551D01*
X42875Y953896D01*
X33325Y953896D01*
G37*
%LPD*%
%LPC*%
G36*
X858999Y757921D02*
X858999Y757921D01*
X850499Y761442D01*
X843992Y767949D01*
X840471Y776449D01*
X840471Y785651D01*
X843992Y794151D01*
X850499Y800658D01*
X858999Y804179D01*
X868201Y804179D01*
X876701Y800658D01*
X883208Y794151D01*
X886729Y785651D01*
X886729Y776449D01*
X883208Y767949D01*
X876701Y761442D01*
X868201Y757921D01*
X858999Y757921D01*
G37*
%LPD*%
%LPC*%
G36*
X96999Y757921D02*
X96999Y757921D01*
X88499Y761442D01*
X81992Y767949D01*
X78471Y776449D01*
X78471Y785651D01*
X81992Y794151D01*
X88499Y800658D01*
X96999Y804179D01*
X106201Y804179D01*
X114701Y800658D01*
X121208Y794151D01*
X124729Y785651D01*
X124729Y776449D01*
X121208Y767949D01*
X114701Y761442D01*
X106201Y757921D01*
X96999Y757921D01*
G37*
%LPD*%
%LPC*%
G36*
X858999Y186421D02*
X858999Y186421D01*
X850499Y189942D01*
X843992Y196449D01*
X840471Y204949D01*
X840471Y214151D01*
X843992Y222651D01*
X850499Y229158D01*
X858999Y232679D01*
X868201Y232679D01*
X876701Y229158D01*
X883208Y222651D01*
X886729Y214151D01*
X886729Y204949D01*
X883208Y196449D01*
X876701Y189942D01*
X868201Y186421D01*
X858999Y186421D01*
G37*
%LPD*%
%LPC*%
G36*
X96999Y186421D02*
X96999Y186421D01*
X88499Y189942D01*
X81992Y196449D01*
X78471Y204949D01*
X78471Y214151D01*
X81992Y222651D01*
X88499Y229158D01*
X96999Y232679D01*
X106201Y232679D01*
X114701Y229158D01*
X121208Y222651D01*
X124729Y214151D01*
X124729Y204949D01*
X121208Y196449D01*
X114701Y189942D01*
X106201Y186421D01*
X96999Y186421D01*
G37*
%LPD*%
%LPC*%
G36*
X969441Y724701D02*
X969441Y724701D01*
X962403Y727616D01*
X957016Y733003D01*
X954101Y740041D01*
X954101Y747659D01*
X957016Y754697D01*
X962403Y760084D01*
X969441Y762999D01*
X977059Y762999D01*
X984097Y760084D01*
X989484Y754697D01*
X992399Y747659D01*
X992399Y740041D01*
X989484Y733003D01*
X984097Y727616D01*
X977059Y724701D01*
X969441Y724701D01*
G37*
%LPD*%
%LPC*%
G36*
X808907Y333551D02*
X808907Y333551D01*
X803192Y335918D01*
X798818Y340292D01*
X796451Y346007D01*
X796451Y352193D01*
X798818Y357908D01*
X803192Y362282D01*
X808907Y364649D01*
X815093Y364649D01*
X820808Y362282D01*
X825182Y357908D01*
X827549Y352193D01*
X827549Y346007D01*
X825182Y340292D01*
X820808Y335918D01*
X815093Y333551D01*
X808907Y333551D01*
G37*
%LPD*%
%LPC*%
G36*
X986707Y333551D02*
X986707Y333551D01*
X980992Y335918D01*
X976618Y340292D01*
X974251Y346007D01*
X974251Y352193D01*
X976618Y357908D01*
X980992Y362282D01*
X986707Y364649D01*
X992893Y364649D01*
X998608Y362282D01*
X1002982Y357908D01*
X1005349Y352193D01*
X1005349Y346007D01*
X1002982Y340292D01*
X998608Y335918D01*
X992893Y333551D01*
X986707Y333551D01*
G37*
%LPD*%
%LPC*%
G36*
X708907Y333551D02*
X708907Y333551D01*
X703192Y335918D01*
X698818Y340292D01*
X696451Y346007D01*
X696451Y352193D01*
X698818Y357908D01*
X703192Y362282D01*
X708907Y364649D01*
X715093Y364649D01*
X720808Y362282D01*
X725182Y357908D01*
X727549Y352193D01*
X727549Y346007D01*
X725182Y340292D01*
X720808Y335918D01*
X715093Y333551D01*
X708907Y333551D01*
G37*
%LPD*%
%LPC*%
G36*
X886707Y333551D02*
X886707Y333551D01*
X880992Y335918D01*
X876618Y340292D01*
X874251Y346007D01*
X874251Y352193D01*
X876618Y357908D01*
X880992Y362282D01*
X886707Y364649D01*
X892893Y364649D01*
X898608Y362282D01*
X902982Y357908D01*
X905349Y352193D01*
X905349Y346007D01*
X902982Y340292D01*
X898608Y335918D01*
X892893Y333551D01*
X886707Y333551D01*
G37*
%LPD*%
%LPC*%
G36*
X366744Y126451D02*
X366744Y126451D01*
X362022Y128407D01*
X358407Y132022D01*
X356451Y136744D01*
X356451Y141856D01*
X358407Y146578D01*
X362022Y150193D01*
X366744Y152149D01*
X371856Y152149D01*
X376578Y150193D01*
X380193Y146578D01*
X382149Y141856D01*
X382149Y136744D01*
X380193Y132022D01*
X376578Y128407D01*
X371856Y126451D01*
X366744Y126451D01*
G37*
%LPD*%
%LPC*%
G36*
X138144Y126451D02*
X138144Y126451D01*
X133422Y128407D01*
X129807Y132022D01*
X127851Y136744D01*
X127851Y141856D01*
X129807Y146578D01*
X133422Y150193D01*
X138144Y152149D01*
X143256Y152149D01*
X147978Y150193D01*
X151593Y146578D01*
X153549Y141856D01*
X153549Y136744D01*
X151593Y132022D01*
X147978Y128407D01*
X143256Y126451D01*
X138144Y126451D01*
G37*
%LPD*%
%LPC*%
G36*
X138144Y76451D02*
X138144Y76451D01*
X133422Y78407D01*
X129807Y82022D01*
X127851Y86744D01*
X127851Y91856D01*
X129807Y96578D01*
X133422Y100193D01*
X138144Y102149D01*
X143256Y102149D01*
X147978Y100193D01*
X151593Y96578D01*
X153549Y91856D01*
X153549Y86744D01*
X151593Y82022D01*
X147978Y78407D01*
X143256Y76451D01*
X138144Y76451D01*
G37*
%LPD*%
%LPC*%
G36*
X491744Y76451D02*
X491744Y76451D01*
X487022Y78407D01*
X483407Y82022D01*
X481451Y86744D01*
X481451Y91856D01*
X483407Y96578D01*
X487022Y100193D01*
X491744Y102149D01*
X496856Y102149D01*
X501578Y100193D01*
X505193Y96578D01*
X507149Y91856D01*
X507149Y86744D01*
X505193Y82022D01*
X501578Y78407D01*
X496856Y76451D01*
X491744Y76451D01*
G37*
%LPD*%
%LPC*%
G36*
X263144Y126451D02*
X263144Y126451D01*
X258422Y128407D01*
X254807Y132022D01*
X252851Y136744D01*
X252851Y141856D01*
X254807Y146578D01*
X258422Y150193D01*
X263144Y152149D01*
X268256Y152149D01*
X272978Y150193D01*
X276593Y146578D01*
X278549Y141856D01*
X278549Y136744D01*
X276593Y132022D01*
X272978Y128407D01*
X268256Y126451D01*
X263144Y126451D01*
G37*
%LPD*%
%LPC*%
G36*
X491744Y126451D02*
X491744Y126451D01*
X487022Y128407D01*
X483407Y132022D01*
X481451Y136744D01*
X481451Y141856D01*
X483407Y146578D01*
X487022Y150193D01*
X491744Y152149D01*
X496856Y152149D01*
X501578Y150193D01*
X505193Y146578D01*
X507149Y141856D01*
X507149Y136744D01*
X505193Y132022D01*
X501578Y128407D01*
X496856Y126451D01*
X491744Y126451D01*
G37*
%LPD*%
%LPC*%
G36*
X366744Y76451D02*
X366744Y76451D01*
X362022Y78407D01*
X358407Y82022D01*
X356451Y86744D01*
X356451Y91856D01*
X358407Y96578D01*
X362022Y100193D01*
X366744Y102149D01*
X371856Y102149D01*
X376578Y100193D01*
X380193Y96578D01*
X382149Y91856D01*
X382149Y86744D01*
X380193Y82022D01*
X376578Y78407D01*
X371856Y76451D01*
X366744Y76451D01*
G37*
%LPD*%
%LPC*%
G36*
X263144Y76451D02*
X263144Y76451D01*
X258422Y78407D01*
X254807Y82022D01*
X252851Y86744D01*
X252851Y91856D01*
X254807Y96578D01*
X258422Y100193D01*
X263144Y102149D01*
X268256Y102149D01*
X272978Y100193D01*
X276593Y96578D01*
X278549Y91856D01*
X278549Y86744D01*
X276593Y82022D01*
X272978Y78407D01*
X268256Y76451D01*
X263144Y76451D01*
G37*
%LPD*%
%LPC*%
G36*
X99601Y320151D02*
X99601Y320151D01*
X95908Y321681D01*
X93081Y324508D01*
X91551Y328201D01*
X91551Y332199D01*
X93081Y335892D01*
X95908Y338719D01*
X99601Y340249D01*
X103599Y340249D01*
X107292Y338719D01*
X110119Y335892D01*
X111649Y332199D01*
X111649Y328201D01*
X110119Y324508D01*
X107292Y321681D01*
X103599Y320151D01*
X99601Y320151D01*
G37*
%LPD*%
%LPC*%
G36*
X99601Y345551D02*
X99601Y345551D01*
X95908Y347081D01*
X93081Y349908D01*
X91551Y353601D01*
X91551Y357599D01*
X93081Y361292D01*
X95908Y364119D01*
X99601Y365649D01*
X103599Y365649D01*
X107292Y364119D01*
X110119Y361292D01*
X111649Y357599D01*
X111649Y353601D01*
X110119Y349908D01*
X107292Y347081D01*
X103599Y345551D01*
X99601Y345551D01*
G37*
%LPD*%
%LPC*%
G36*
X99601Y370951D02*
X99601Y370951D01*
X95908Y372481D01*
X93081Y375308D01*
X91551Y379001D01*
X91551Y382999D01*
X93081Y386692D01*
X95908Y389519D01*
X99601Y391049D01*
X103599Y391049D01*
X107292Y389519D01*
X110119Y386692D01*
X111649Y382999D01*
X111649Y379001D01*
X110119Y375308D01*
X107292Y372481D01*
X103599Y370951D01*
X99601Y370951D01*
G37*
%LPD*%
%LPC*%
G36*
X99601Y294751D02*
X99601Y294751D01*
X95908Y296281D01*
X93081Y299108D01*
X91551Y302801D01*
X91551Y306799D01*
X93081Y310492D01*
X95908Y313319D01*
X99601Y314849D01*
X103599Y314849D01*
X107292Y313319D01*
X110119Y310492D01*
X111649Y306799D01*
X111649Y302801D01*
X110119Y299108D01*
X107292Y296281D01*
X103599Y294751D01*
X99601Y294751D01*
G37*
%LPD*%
%LPC*%
G36*
X735001Y409051D02*
X735001Y409051D01*
X731308Y410581D01*
X728481Y413408D01*
X726951Y417101D01*
X726951Y421099D01*
X728481Y424792D01*
X731308Y427619D01*
X735001Y429149D01*
X738999Y429149D01*
X742692Y427619D01*
X745519Y424792D01*
X747049Y421099D01*
X747049Y417101D01*
X745519Y413408D01*
X742692Y410581D01*
X738999Y409051D01*
X735001Y409051D01*
G37*
%LPD*%
%LPC*%
G36*
X760001Y409051D02*
X760001Y409051D01*
X756308Y410581D01*
X753481Y413408D01*
X751951Y417101D01*
X751951Y421099D01*
X753481Y424792D01*
X756308Y427619D01*
X760001Y429149D01*
X763999Y429149D01*
X767692Y427619D01*
X770519Y424792D01*
X772049Y421099D01*
X772049Y417101D01*
X770519Y413408D01*
X767692Y410581D01*
X763999Y409051D01*
X760001Y409051D01*
G37*
%LPD*%
%LPC*%
G36*
X785001Y409051D02*
X785001Y409051D01*
X781308Y410581D01*
X778481Y413408D01*
X776951Y417101D01*
X776951Y421099D01*
X778481Y424792D01*
X781308Y427619D01*
X785001Y429149D01*
X788999Y429149D01*
X792692Y427619D01*
X795519Y424792D01*
X797049Y421099D01*
X797049Y417101D01*
X795519Y413408D01*
X792692Y410581D01*
X788999Y409051D01*
X785001Y409051D01*
G37*
%LPD*%
%LPC*%
G36*
X912801Y409051D02*
X912801Y409051D01*
X909108Y410581D01*
X906281Y413408D01*
X904751Y417101D01*
X904751Y421099D01*
X906281Y424792D01*
X909108Y427619D01*
X912801Y429149D01*
X916799Y429149D01*
X920492Y427619D01*
X923319Y424792D01*
X924849Y421099D01*
X924849Y417101D01*
X923319Y413408D01*
X920492Y410581D01*
X916799Y409051D01*
X912801Y409051D01*
G37*
%LPD*%
%LPC*%
G36*
X937801Y409051D02*
X937801Y409051D01*
X934108Y410581D01*
X931281Y413408D01*
X929751Y417101D01*
X929751Y421099D01*
X931281Y424792D01*
X934108Y427619D01*
X937801Y429149D01*
X941799Y429149D01*
X945492Y427619D01*
X948319Y424792D01*
X949849Y421099D01*
X949849Y417101D01*
X948319Y413408D01*
X945492Y410581D01*
X941799Y409051D01*
X937801Y409051D01*
G37*
%LPD*%
%LPC*%
G36*
X962801Y409051D02*
X962801Y409051D01*
X959108Y410581D01*
X956281Y413408D01*
X954751Y417101D01*
X954751Y421099D01*
X956281Y424792D01*
X959108Y427619D01*
X962801Y429149D01*
X966799Y429149D01*
X970492Y427619D01*
X973319Y424792D01*
X974849Y421099D01*
X974849Y417101D01*
X973319Y413408D01*
X970492Y410581D01*
X966799Y409051D01*
X962801Y409051D01*
G37*
%LPD*%
%LPC*%
G36*
X99601Y421751D02*
X99601Y421751D01*
X95908Y423281D01*
X93081Y426108D01*
X91551Y429801D01*
X91551Y433799D01*
X93081Y437492D01*
X95908Y440319D01*
X99601Y441849D01*
X103599Y441849D01*
X107292Y440319D01*
X110119Y437492D01*
X111649Y433799D01*
X111649Y429801D01*
X110119Y426108D01*
X107292Y423281D01*
X103599Y421751D01*
X99601Y421751D01*
G37*
%LPD*%
%LPC*%
G36*
X99601Y447151D02*
X99601Y447151D01*
X95908Y448681D01*
X93081Y451508D01*
X91551Y455201D01*
X91551Y459199D01*
X93081Y462892D01*
X95908Y465719D01*
X99601Y467249D01*
X103599Y467249D01*
X107292Y465719D01*
X110119Y462892D01*
X111649Y459199D01*
X111649Y455201D01*
X110119Y451508D01*
X107292Y448681D01*
X103599Y447151D01*
X99601Y447151D01*
G37*
%LPD*%
%LPC*%
G36*
X99601Y472551D02*
X99601Y472551D01*
X95908Y474081D01*
X93081Y476908D01*
X91551Y480601D01*
X91551Y484599D01*
X93081Y488292D01*
X95908Y491119D01*
X99601Y492649D01*
X103599Y492649D01*
X107292Y491119D01*
X110119Y488292D01*
X111649Y484599D01*
X111649Y480601D01*
X110119Y476908D01*
X107292Y474081D01*
X103599Y472551D01*
X99601Y472551D01*
G37*
%LPD*%
%LPC*%
G36*
X99601Y497951D02*
X99601Y497951D01*
X95908Y499481D01*
X93081Y502308D01*
X91551Y506001D01*
X91551Y509999D01*
X93081Y513692D01*
X95908Y516519D01*
X99601Y518049D01*
X103599Y518049D01*
X107292Y516519D01*
X110119Y513692D01*
X111649Y509999D01*
X111649Y506001D01*
X110119Y502308D01*
X107292Y499481D01*
X103599Y497951D01*
X99601Y497951D01*
G37*
%LPD*%
%LPC*%
G36*
X99601Y523351D02*
X99601Y523351D01*
X95908Y524881D01*
X93081Y527708D01*
X91551Y531401D01*
X91551Y535399D01*
X93081Y539092D01*
X95908Y541919D01*
X99601Y543449D01*
X103599Y543449D01*
X107292Y541919D01*
X110119Y539092D01*
X111649Y535399D01*
X111649Y531401D01*
X110119Y527708D01*
X107292Y524881D01*
X103599Y523351D01*
X99601Y523351D01*
G37*
%LPD*%
%LPC*%
G36*
X99601Y548751D02*
X99601Y548751D01*
X95908Y550281D01*
X93081Y553108D01*
X91551Y556801D01*
X91551Y560799D01*
X93081Y564492D01*
X95908Y567319D01*
X99601Y568849D01*
X103599Y568849D01*
X107292Y567319D01*
X110119Y564492D01*
X111649Y560799D01*
X111649Y556801D01*
X110119Y553108D01*
X107292Y550281D01*
X103599Y548751D01*
X99601Y548751D01*
G37*
%LPD*%
%LPC*%
G36*
X99601Y574151D02*
X99601Y574151D01*
X95908Y575681D01*
X93081Y578508D01*
X91551Y582201D01*
X91551Y586199D01*
X93081Y589892D01*
X95908Y592719D01*
X99601Y594249D01*
X103599Y594249D01*
X107292Y592719D01*
X110119Y589892D01*
X111649Y586199D01*
X111649Y582201D01*
X110119Y578508D01*
X107292Y575681D01*
X103599Y574151D01*
X99601Y574151D01*
G37*
%LPD*%
%LPC*%
G36*
X99601Y599551D02*
X99601Y599551D01*
X95908Y601081D01*
X93081Y603908D01*
X91551Y607601D01*
X91551Y611599D01*
X93081Y615292D01*
X95908Y618119D01*
X99601Y619649D01*
X103599Y619649D01*
X107292Y618119D01*
X110119Y615292D01*
X111649Y611599D01*
X111649Y607601D01*
X110119Y603908D01*
X107292Y601081D01*
X103599Y599551D01*
X99601Y599551D01*
G37*
%LPD*%
%LPC*%
G36*
X99601Y624951D02*
X99601Y624951D01*
X95908Y626481D01*
X93081Y629308D01*
X91551Y633001D01*
X91551Y636999D01*
X93081Y640692D01*
X95908Y643519D01*
X99601Y645049D01*
X103599Y645049D01*
X107292Y643519D01*
X110119Y640692D01*
X111649Y636999D01*
X111649Y633001D01*
X110119Y629308D01*
X107292Y626481D01*
X103599Y624951D01*
X99601Y624951D01*
G37*
%LPD*%
%LPC*%
G36*
X99601Y650351D02*
X99601Y650351D01*
X95908Y651881D01*
X93081Y654708D01*
X91551Y658401D01*
X91551Y662399D01*
X93081Y666092D01*
X95908Y668919D01*
X99601Y670449D01*
X103599Y670449D01*
X107292Y668919D01*
X110119Y666092D01*
X111649Y662399D01*
X111649Y658401D01*
X110119Y654708D01*
X107292Y651881D01*
X103599Y650351D01*
X99601Y650351D01*
G37*
%LPD*%
%LPC*%
G36*
X99601Y675751D02*
X99601Y675751D01*
X95908Y677281D01*
X93081Y680108D01*
X91551Y683801D01*
X91551Y687799D01*
X93081Y691492D01*
X95908Y694319D01*
X99601Y695849D01*
X103599Y695849D01*
X107292Y694319D01*
X110119Y691492D01*
X111649Y687799D01*
X111649Y683801D01*
X110119Y680108D01*
X107292Y677281D01*
X103599Y675751D01*
X99601Y675751D01*
G37*
%LPD*%
%LPC*%
G36*
X99601Y726551D02*
X99601Y726551D01*
X95908Y728081D01*
X93081Y730908D01*
X91551Y734601D01*
X91551Y738599D01*
X93081Y742292D01*
X95908Y745119D01*
X99601Y746649D01*
X103599Y746649D01*
X107292Y745119D01*
X110119Y742292D01*
X111649Y738599D01*
X111649Y734601D01*
X110119Y730908D01*
X107292Y728081D01*
X103599Y726551D01*
X99601Y726551D01*
G37*
%LPD*%
%LPC*%
G36*
X99601Y269351D02*
X99601Y269351D01*
X95908Y270881D01*
X93081Y273708D01*
X91551Y277401D01*
X91551Y281399D01*
X93081Y285092D01*
X95908Y287919D01*
X99601Y289449D01*
X103599Y289449D01*
X107292Y287919D01*
X110119Y285092D01*
X111649Y281399D01*
X111649Y277401D01*
X110119Y273708D01*
X107292Y270881D01*
X103599Y269351D01*
X99601Y269351D01*
G37*
%LPD*%
%LPC*%
G36*
X99601Y396351D02*
X99601Y396351D01*
X95908Y397881D01*
X93081Y400708D01*
X91551Y404401D01*
X91551Y408399D01*
X93081Y412092D01*
X95908Y414919D01*
X99601Y416449D01*
X103599Y416449D01*
X107292Y414919D01*
X110119Y412092D01*
X111649Y408399D01*
X111649Y404401D01*
X110119Y400708D01*
X107292Y397881D01*
X103599Y396351D01*
X99601Y396351D01*
G37*
%LPD*%
%LPC*%
G36*
X99601Y243951D02*
X99601Y243951D01*
X95908Y245481D01*
X93081Y248308D01*
X91551Y252001D01*
X91551Y255999D01*
X93081Y259692D01*
X95908Y262519D01*
X99601Y264049D01*
X103599Y264049D01*
X107292Y262519D01*
X110119Y259692D01*
X111649Y255999D01*
X111649Y252001D01*
X110119Y248308D01*
X107292Y245481D01*
X103599Y243951D01*
X99601Y243951D01*
G37*
%LPD*%
%LPC*%
G36*
X944263Y765061D02*
X944263Y765061D01*
X940775Y766506D01*
X938106Y769175D01*
X936661Y772663D01*
X936661Y776437D01*
X938106Y779925D01*
X940775Y782594D01*
X944263Y784039D01*
X948037Y784039D01*
X951525Y782594D01*
X954194Y779925D01*
X955639Y776437D01*
X955639Y772663D01*
X954194Y769175D01*
X951525Y766506D01*
X948037Y765061D01*
X944263Y765061D01*
G37*
%LPD*%
%LPC*%
G36*
X311256Y679328D02*
X311256Y679328D01*
X307848Y680740D01*
X305240Y683348D01*
X303828Y686756D01*
X303828Y690444D01*
X305240Y693852D01*
X307848Y696460D01*
X311256Y697872D01*
X314944Y697872D01*
X318352Y696460D01*
X320960Y693852D01*
X322372Y690444D01*
X322372Y686756D01*
X320960Y683348D01*
X318352Y680740D01*
X314944Y679328D01*
X311256Y679328D01*
G37*
%LPD*%
%LPC*%
G36*
X311256Y653928D02*
X311256Y653928D01*
X307848Y655340D01*
X305240Y657948D01*
X303828Y661356D01*
X303828Y665044D01*
X305240Y668452D01*
X307848Y671060D01*
X311256Y672472D01*
X314944Y672472D01*
X318352Y671060D01*
X320960Y668452D01*
X322372Y665044D01*
X322372Y661356D01*
X320960Y657948D01*
X318352Y655340D01*
X314944Y653928D01*
X311256Y653928D01*
G37*
%LPD*%
%LPC*%
G36*
X362056Y933328D02*
X362056Y933328D01*
X358648Y934740D01*
X356040Y937348D01*
X354628Y940756D01*
X354628Y944444D01*
X356040Y947852D01*
X358648Y950460D01*
X362056Y951872D01*
X365744Y951872D01*
X369152Y950460D01*
X371760Y947852D01*
X373172Y944444D01*
X373172Y940756D01*
X371760Y937348D01*
X369152Y934740D01*
X365744Y933328D01*
X362056Y933328D01*
G37*
%LPD*%
%LPC*%
G36*
X489056Y933328D02*
X489056Y933328D01*
X485648Y934740D01*
X483040Y937348D01*
X481628Y940756D01*
X481628Y944444D01*
X483040Y947852D01*
X485648Y950460D01*
X489056Y951872D01*
X492744Y951872D01*
X496152Y950460D01*
X498760Y947852D01*
X500172Y944444D01*
X500172Y940756D01*
X498760Y937348D01*
X496152Y934740D01*
X492744Y933328D01*
X489056Y933328D01*
G37*
%LPD*%
%LPC*%
G36*
X463656Y933328D02*
X463656Y933328D01*
X460248Y934740D01*
X457640Y937348D01*
X456228Y940756D01*
X456228Y944444D01*
X457640Y947852D01*
X460248Y950460D01*
X463656Y951872D01*
X467344Y951872D01*
X470752Y950460D01*
X473360Y947852D01*
X474772Y944444D01*
X474772Y940756D01*
X473360Y937348D01*
X470752Y934740D01*
X467344Y933328D01*
X463656Y933328D01*
G37*
%LPD*%
%LPC*%
G36*
X438256Y933328D02*
X438256Y933328D01*
X434848Y934740D01*
X432240Y937348D01*
X430828Y940756D01*
X430828Y944444D01*
X432240Y947852D01*
X434848Y950460D01*
X438256Y951872D01*
X441944Y951872D01*
X445352Y950460D01*
X447960Y947852D01*
X449372Y944444D01*
X449372Y940756D01*
X447960Y937348D01*
X445352Y934740D01*
X441944Y933328D01*
X438256Y933328D01*
G37*
%LPD*%
%LPC*%
G36*
X412856Y933328D02*
X412856Y933328D01*
X409448Y934740D01*
X406840Y937348D01*
X405428Y940756D01*
X405428Y944444D01*
X406840Y947852D01*
X409448Y950460D01*
X412856Y951872D01*
X416544Y951872D01*
X419952Y950460D01*
X422560Y947852D01*
X423972Y944444D01*
X423972Y940756D01*
X422560Y937348D01*
X419952Y934740D01*
X416544Y933328D01*
X412856Y933328D01*
G37*
%LPD*%
%LPC*%
G36*
X387456Y933328D02*
X387456Y933328D01*
X384048Y934740D01*
X381440Y937348D01*
X380028Y940756D01*
X380028Y944444D01*
X381440Y947852D01*
X384048Y950460D01*
X387456Y951872D01*
X391144Y951872D01*
X394552Y950460D01*
X397160Y947852D01*
X398572Y944444D01*
X398572Y940756D01*
X397160Y937348D01*
X394552Y934740D01*
X391144Y933328D01*
X387456Y933328D01*
G37*
%LPD*%
%LPC*%
G36*
X336656Y933328D02*
X336656Y933328D01*
X333248Y934740D01*
X330640Y937348D01*
X329228Y940756D01*
X329228Y944444D01*
X330640Y947852D01*
X333248Y950460D01*
X336656Y951872D01*
X340344Y951872D01*
X343752Y950460D01*
X346360Y947852D01*
X347772Y944444D01*
X347772Y940756D01*
X346360Y937348D01*
X343752Y934740D01*
X340344Y933328D01*
X336656Y933328D01*
G37*
%LPD*%
%LPC*%
G36*
X311256Y933328D02*
X311256Y933328D01*
X307848Y934740D01*
X305240Y937348D01*
X303828Y940756D01*
X303828Y944444D01*
X305240Y947852D01*
X307848Y950460D01*
X311256Y951872D01*
X314944Y951872D01*
X318352Y950460D01*
X320960Y947852D01*
X322372Y944444D01*
X322372Y940756D01*
X320960Y937348D01*
X318352Y934740D01*
X314944Y933328D01*
X311256Y933328D01*
G37*
%LPD*%
%LPC*%
G36*
X666856Y679328D02*
X666856Y679328D01*
X663448Y680740D01*
X660840Y683348D01*
X659428Y686756D01*
X659428Y690444D01*
X660840Y693852D01*
X663448Y696460D01*
X666856Y697872D01*
X670544Y697872D01*
X673952Y696460D01*
X676560Y693852D01*
X677972Y690444D01*
X677972Y686756D01*
X676560Y683348D01*
X673952Y680740D01*
X670544Y679328D01*
X666856Y679328D01*
G37*
%LPD*%
%LPC*%
G36*
X463656Y679328D02*
X463656Y679328D01*
X460248Y680740D01*
X457640Y683348D01*
X456228Y686756D01*
X456228Y690444D01*
X457640Y693852D01*
X460248Y696460D01*
X463656Y697872D01*
X467344Y697872D01*
X470752Y696460D01*
X473360Y693852D01*
X474772Y690444D01*
X474772Y686756D01*
X473360Y683348D01*
X470752Y680740D01*
X467344Y679328D01*
X463656Y679328D01*
G37*
%LPD*%
%LPC*%
G36*
X641456Y679328D02*
X641456Y679328D01*
X638048Y680740D01*
X635440Y683348D01*
X634028Y686756D01*
X634028Y690444D01*
X635440Y693852D01*
X638048Y696460D01*
X641456Y697872D01*
X645144Y697872D01*
X648552Y696460D01*
X651160Y693852D01*
X652572Y690444D01*
X652572Y686756D01*
X651160Y683348D01*
X648552Y680740D01*
X645144Y679328D01*
X641456Y679328D01*
G37*
%LPD*%
%LPC*%
G36*
X616056Y679328D02*
X616056Y679328D01*
X612648Y680740D01*
X610040Y683348D01*
X608628Y686756D01*
X608628Y690444D01*
X610040Y693852D01*
X612648Y696460D01*
X616056Y697872D01*
X619744Y697872D01*
X623152Y696460D01*
X625760Y693852D01*
X627172Y690444D01*
X627172Y686756D01*
X625760Y683348D01*
X623152Y680740D01*
X619744Y679328D01*
X616056Y679328D01*
G37*
%LPD*%
%LPC*%
G36*
X590656Y679328D02*
X590656Y679328D01*
X587248Y680740D01*
X584640Y683348D01*
X583228Y686756D01*
X583228Y690444D01*
X584640Y693852D01*
X587248Y696460D01*
X590656Y697872D01*
X594344Y697872D01*
X597752Y696460D01*
X600360Y693852D01*
X601772Y690444D01*
X601772Y686756D01*
X600360Y683348D01*
X597752Y680740D01*
X594344Y679328D01*
X590656Y679328D01*
G37*
%LPD*%
%LPC*%
G36*
X565256Y679328D02*
X565256Y679328D01*
X561848Y680740D01*
X559240Y683348D01*
X557828Y686756D01*
X557828Y690444D01*
X559240Y693852D01*
X561848Y696460D01*
X565256Y697872D01*
X568944Y697872D01*
X572352Y696460D01*
X574960Y693852D01*
X576372Y690444D01*
X576372Y686756D01*
X574960Y683348D01*
X572352Y680740D01*
X568944Y679328D01*
X565256Y679328D01*
G37*
%LPD*%
%LPC*%
G36*
X539856Y679328D02*
X539856Y679328D01*
X536448Y680740D01*
X533840Y683348D01*
X532428Y686756D01*
X532428Y690444D01*
X533840Y693852D01*
X536448Y696460D01*
X539856Y697872D01*
X543544Y697872D01*
X546952Y696460D01*
X549560Y693852D01*
X550972Y690444D01*
X550972Y686756D01*
X549560Y683348D01*
X546952Y680740D01*
X543544Y679328D01*
X539856Y679328D01*
G37*
%LPD*%
%LPC*%
G36*
X489056Y679328D02*
X489056Y679328D01*
X485648Y680740D01*
X483040Y683348D01*
X481628Y686756D01*
X481628Y690444D01*
X483040Y693852D01*
X485648Y696460D01*
X489056Y697872D01*
X492744Y697872D01*
X496152Y696460D01*
X498760Y693852D01*
X500172Y690444D01*
X500172Y686756D01*
X498760Y683348D01*
X496152Y680740D01*
X492744Y679328D01*
X489056Y679328D01*
G37*
%LPD*%
%LPC*%
G36*
X438256Y679328D02*
X438256Y679328D01*
X434848Y680740D01*
X432240Y683348D01*
X430828Y686756D01*
X430828Y690444D01*
X432240Y693852D01*
X434848Y696460D01*
X438256Y697872D01*
X441944Y697872D01*
X445352Y696460D01*
X447960Y693852D01*
X449372Y690444D01*
X449372Y686756D01*
X447960Y683348D01*
X445352Y680740D01*
X441944Y679328D01*
X438256Y679328D01*
G37*
%LPD*%
%LPC*%
G36*
X412856Y679328D02*
X412856Y679328D01*
X409448Y680740D01*
X406840Y683348D01*
X405428Y686756D01*
X405428Y690444D01*
X406840Y693852D01*
X409448Y696460D01*
X412856Y697872D01*
X416544Y697872D01*
X419952Y696460D01*
X422560Y693852D01*
X423972Y690444D01*
X423972Y686756D01*
X422560Y683348D01*
X419952Y680740D01*
X416544Y679328D01*
X412856Y679328D01*
G37*
%LPD*%
%LPC*%
G36*
X387456Y679328D02*
X387456Y679328D01*
X384048Y680740D01*
X381440Y683348D01*
X380028Y686756D01*
X380028Y690444D01*
X381440Y693852D01*
X384048Y696460D01*
X387456Y697872D01*
X391144Y697872D01*
X394552Y696460D01*
X397160Y693852D01*
X398572Y690444D01*
X398572Y686756D01*
X397160Y683348D01*
X394552Y680740D01*
X391144Y679328D01*
X387456Y679328D01*
G37*
%LPD*%
%LPC*%
G36*
X285856Y933328D02*
X285856Y933328D01*
X282448Y934740D01*
X279840Y937348D01*
X278428Y940756D01*
X278428Y944444D01*
X279840Y947852D01*
X282448Y950460D01*
X285856Y951872D01*
X289544Y951872D01*
X292952Y950460D01*
X295560Y947852D01*
X296972Y944444D01*
X296972Y940756D01*
X295560Y937348D01*
X292952Y934740D01*
X289544Y933328D01*
X285856Y933328D01*
G37*
%LPD*%
%LPC*%
G36*
X336656Y679328D02*
X336656Y679328D01*
X333248Y680740D01*
X330640Y683348D01*
X329228Y686756D01*
X329228Y690444D01*
X330640Y693852D01*
X333248Y696460D01*
X336656Y697872D01*
X340344Y697872D01*
X343752Y696460D01*
X346360Y693852D01*
X347772Y690444D01*
X347772Y686756D01*
X346360Y683348D01*
X343752Y680740D01*
X340344Y679328D01*
X336656Y679328D01*
G37*
%LPD*%
%LPC*%
G36*
X666856Y933328D02*
X666856Y933328D01*
X663448Y934740D01*
X660840Y937348D01*
X659428Y940756D01*
X659428Y944444D01*
X660840Y947852D01*
X663448Y950460D01*
X666856Y951872D01*
X670544Y951872D01*
X673952Y950460D01*
X676560Y947852D01*
X677972Y944444D01*
X677972Y940756D01*
X676560Y937348D01*
X673952Y934740D01*
X670544Y933328D01*
X666856Y933328D01*
G37*
%LPD*%
%LPC*%
G36*
X285856Y679328D02*
X285856Y679328D01*
X282448Y680740D01*
X279840Y683348D01*
X278428Y686756D01*
X278428Y690444D01*
X279840Y693852D01*
X282448Y696460D01*
X285856Y697872D01*
X289544Y697872D01*
X292952Y696460D01*
X295560Y693852D01*
X296972Y690444D01*
X296972Y686756D01*
X295560Y683348D01*
X292952Y680740D01*
X289544Y679328D01*
X285856Y679328D01*
G37*
%LPD*%
%LPC*%
G36*
X260456Y679328D02*
X260456Y679328D01*
X257048Y680740D01*
X254440Y683348D01*
X253028Y686756D01*
X253028Y690444D01*
X254440Y693852D01*
X257048Y696460D01*
X260456Y697872D01*
X264144Y697872D01*
X267552Y696460D01*
X270160Y693852D01*
X271572Y690444D01*
X271572Y686756D01*
X270160Y683348D01*
X267552Y680740D01*
X264144Y679328D01*
X260456Y679328D01*
G37*
%LPD*%
%LPC*%
G36*
X235056Y679328D02*
X235056Y679328D01*
X231648Y680740D01*
X229040Y683348D01*
X227628Y686756D01*
X227628Y690444D01*
X229040Y693852D01*
X231648Y696460D01*
X235056Y697872D01*
X238744Y697872D01*
X242152Y696460D01*
X244760Y693852D01*
X246172Y690444D01*
X246172Y686756D01*
X244760Y683348D01*
X242152Y680740D01*
X238744Y679328D01*
X235056Y679328D01*
G37*
%LPD*%
%LPC*%
G36*
X641456Y933328D02*
X641456Y933328D01*
X638048Y934740D01*
X635440Y937348D01*
X634028Y940756D01*
X634028Y944444D01*
X635440Y947852D01*
X638048Y950460D01*
X641456Y951872D01*
X645144Y951872D01*
X648552Y950460D01*
X651160Y947852D01*
X652572Y944444D01*
X652572Y940756D01*
X651160Y937348D01*
X648552Y934740D01*
X645144Y933328D01*
X641456Y933328D01*
G37*
%LPD*%
%LPC*%
G36*
X616056Y933328D02*
X616056Y933328D01*
X612648Y934740D01*
X610040Y937348D01*
X608628Y940756D01*
X608628Y944444D01*
X610040Y947852D01*
X612648Y950460D01*
X616056Y951872D01*
X619744Y951872D01*
X623152Y950460D01*
X625760Y947852D01*
X627172Y944444D01*
X627172Y940756D01*
X625760Y937348D01*
X623152Y934740D01*
X619744Y933328D01*
X616056Y933328D01*
G37*
%LPD*%
%LPC*%
G36*
X590656Y933328D02*
X590656Y933328D01*
X587248Y934740D01*
X584640Y937348D01*
X583228Y940756D01*
X583228Y944444D01*
X584640Y947852D01*
X587248Y950460D01*
X590656Y951872D01*
X594344Y951872D01*
X597752Y950460D01*
X600360Y947852D01*
X601772Y944444D01*
X601772Y940756D01*
X600360Y937348D01*
X597752Y934740D01*
X594344Y933328D01*
X590656Y933328D01*
G37*
%LPD*%
%LPC*%
G36*
X565256Y933328D02*
X565256Y933328D01*
X561848Y934740D01*
X559240Y937348D01*
X557828Y940756D01*
X557828Y944444D01*
X559240Y947852D01*
X561848Y950460D01*
X565256Y951872D01*
X568944Y951872D01*
X572352Y950460D01*
X574960Y947852D01*
X576372Y944444D01*
X576372Y940756D01*
X574960Y937348D01*
X572352Y934740D01*
X568944Y933328D01*
X565256Y933328D01*
G37*
%LPD*%
%LPC*%
G36*
X539856Y933328D02*
X539856Y933328D01*
X536448Y934740D01*
X533840Y937348D01*
X532428Y940756D01*
X532428Y944444D01*
X533840Y947852D01*
X536448Y950460D01*
X539856Y951872D01*
X543544Y951872D01*
X546952Y950460D01*
X549560Y947852D01*
X550972Y944444D01*
X550972Y940756D01*
X549560Y937348D01*
X546952Y934740D01*
X543544Y933328D01*
X539856Y933328D01*
G37*
%LPD*%
%LPC*%
G36*
X666856Y653928D02*
X666856Y653928D01*
X663448Y655340D01*
X660840Y657948D01*
X659428Y661356D01*
X659428Y665044D01*
X660840Y668452D01*
X663448Y671060D01*
X666856Y672472D01*
X670544Y672472D01*
X673952Y671060D01*
X676560Y668452D01*
X677972Y665044D01*
X677972Y661356D01*
X676560Y657948D01*
X673952Y655340D01*
X670544Y653928D01*
X666856Y653928D01*
G37*
%LPD*%
%LPC*%
G36*
X641456Y653928D02*
X641456Y653928D01*
X638048Y655340D01*
X635440Y657948D01*
X634028Y661356D01*
X634028Y665044D01*
X635440Y668452D01*
X638048Y671060D01*
X641456Y672472D01*
X645144Y672472D01*
X648552Y671060D01*
X651160Y668452D01*
X652572Y665044D01*
X652572Y661356D01*
X651160Y657948D01*
X648552Y655340D01*
X645144Y653928D01*
X641456Y653928D01*
G37*
%LPD*%
%LPC*%
G36*
X616056Y653928D02*
X616056Y653928D01*
X612648Y655340D01*
X610040Y657948D01*
X608628Y661356D01*
X608628Y665044D01*
X610040Y668452D01*
X612648Y671060D01*
X616056Y672472D01*
X619744Y672472D01*
X623152Y671060D01*
X625760Y668452D01*
X627172Y665044D01*
X627172Y661356D01*
X625760Y657948D01*
X623152Y655340D01*
X619744Y653928D01*
X616056Y653928D01*
G37*
%LPD*%
%LPC*%
G36*
X590656Y653928D02*
X590656Y653928D01*
X587248Y655340D01*
X584640Y657948D01*
X583228Y661356D01*
X583228Y665044D01*
X584640Y668452D01*
X587248Y671060D01*
X590656Y672472D01*
X594344Y672472D01*
X597752Y671060D01*
X600360Y668452D01*
X601772Y665044D01*
X601772Y661356D01*
X600360Y657948D01*
X597752Y655340D01*
X594344Y653928D01*
X590656Y653928D01*
G37*
%LPD*%
%LPC*%
G36*
X565256Y653928D02*
X565256Y653928D01*
X561848Y655340D01*
X559240Y657948D01*
X557828Y661356D01*
X557828Y665044D01*
X559240Y668452D01*
X561848Y671060D01*
X565256Y672472D01*
X568944Y672472D01*
X572352Y671060D01*
X574960Y668452D01*
X576372Y665044D01*
X576372Y661356D01*
X574960Y657948D01*
X572352Y655340D01*
X568944Y653928D01*
X565256Y653928D01*
G37*
%LPD*%
%LPC*%
G36*
X539856Y653928D02*
X539856Y653928D01*
X536448Y655340D01*
X533840Y657948D01*
X532428Y661356D01*
X532428Y665044D01*
X533840Y668452D01*
X536448Y671060D01*
X539856Y672472D01*
X543544Y672472D01*
X546952Y671060D01*
X549560Y668452D01*
X550972Y665044D01*
X550972Y661356D01*
X549560Y657948D01*
X546952Y655340D01*
X543544Y653928D01*
X539856Y653928D01*
G37*
%LPD*%
%LPC*%
G36*
X514456Y653928D02*
X514456Y653928D01*
X511048Y655340D01*
X508440Y657948D01*
X507028Y661356D01*
X507028Y665044D01*
X508440Y668452D01*
X511048Y671060D01*
X514456Y672472D01*
X518144Y672472D01*
X521552Y671060D01*
X524160Y668452D01*
X525572Y665044D01*
X525572Y661356D01*
X524160Y657948D01*
X521552Y655340D01*
X518144Y653928D01*
X514456Y653928D01*
G37*
%LPD*%
%LPC*%
G36*
X489056Y653928D02*
X489056Y653928D01*
X485648Y655340D01*
X483040Y657948D01*
X481628Y661356D01*
X481628Y665044D01*
X483040Y668452D01*
X485648Y671060D01*
X489056Y672472D01*
X492744Y672472D01*
X496152Y671060D01*
X498760Y668452D01*
X500172Y665044D01*
X500172Y661356D01*
X498760Y657948D01*
X496152Y655340D01*
X492744Y653928D01*
X489056Y653928D01*
G37*
%LPD*%
%LPC*%
G36*
X463656Y653928D02*
X463656Y653928D01*
X460248Y655340D01*
X457640Y657948D01*
X456228Y661356D01*
X456228Y665044D01*
X457640Y668452D01*
X460248Y671060D01*
X463656Y672472D01*
X467344Y672472D01*
X470752Y671060D01*
X473360Y668452D01*
X474772Y665044D01*
X474772Y661356D01*
X473360Y657948D01*
X470752Y655340D01*
X467344Y653928D01*
X463656Y653928D01*
G37*
%LPD*%
%LPC*%
G36*
X438256Y653928D02*
X438256Y653928D01*
X434848Y655340D01*
X432240Y657948D01*
X430828Y661356D01*
X430828Y665044D01*
X432240Y668452D01*
X434848Y671060D01*
X438256Y672472D01*
X441944Y672472D01*
X445352Y671060D01*
X447960Y668452D01*
X449372Y665044D01*
X449372Y661356D01*
X447960Y657948D01*
X445352Y655340D01*
X441944Y653928D01*
X438256Y653928D01*
G37*
%LPD*%
%LPC*%
G36*
X412856Y653928D02*
X412856Y653928D01*
X409448Y655340D01*
X406840Y657948D01*
X405428Y661356D01*
X405428Y665044D01*
X406840Y668452D01*
X409448Y671060D01*
X412856Y672472D01*
X416544Y672472D01*
X419952Y671060D01*
X422560Y668452D01*
X423972Y665044D01*
X423972Y661356D01*
X422560Y657948D01*
X419952Y655340D01*
X416544Y653928D01*
X412856Y653928D01*
G37*
%LPD*%
%LPC*%
G36*
X387456Y653928D02*
X387456Y653928D01*
X384048Y655340D01*
X381440Y657948D01*
X380028Y661356D01*
X380028Y665044D01*
X381440Y668452D01*
X384048Y671060D01*
X387456Y672472D01*
X391144Y672472D01*
X394552Y671060D01*
X397160Y668452D01*
X398572Y665044D01*
X398572Y661356D01*
X397160Y657948D01*
X394552Y655340D01*
X391144Y653928D01*
X387456Y653928D01*
G37*
%LPD*%
%LPC*%
G36*
X362056Y653928D02*
X362056Y653928D01*
X358648Y655340D01*
X356040Y657948D01*
X354628Y661356D01*
X354628Y665044D01*
X356040Y668452D01*
X358648Y671060D01*
X362056Y672472D01*
X365744Y672472D01*
X369152Y671060D01*
X371760Y668452D01*
X373172Y665044D01*
X373172Y661356D01*
X371760Y657948D01*
X369152Y655340D01*
X365744Y653928D01*
X362056Y653928D01*
G37*
%LPD*%
%LPC*%
G36*
X336656Y653928D02*
X336656Y653928D01*
X333248Y655340D01*
X330640Y657948D01*
X329228Y661356D01*
X329228Y665044D01*
X330640Y668452D01*
X333248Y671060D01*
X336656Y672472D01*
X340344Y672472D01*
X343752Y671060D01*
X346360Y668452D01*
X347772Y665044D01*
X347772Y661356D01*
X346360Y657948D01*
X343752Y655340D01*
X340344Y653928D01*
X336656Y653928D01*
G37*
%LPD*%
%LPC*%
G36*
X362056Y679328D02*
X362056Y679328D01*
X358648Y680740D01*
X356040Y683348D01*
X354628Y686756D01*
X354628Y690444D01*
X356040Y693852D01*
X358648Y696460D01*
X362056Y697872D01*
X365744Y697872D01*
X369152Y696460D01*
X371760Y693852D01*
X373172Y690444D01*
X373172Y686756D01*
X371760Y683348D01*
X369152Y680740D01*
X365744Y679328D01*
X362056Y679328D01*
G37*
%LPD*%
%LPC*%
G36*
X285856Y653928D02*
X285856Y653928D01*
X282448Y655340D01*
X279840Y657948D01*
X278428Y661356D01*
X278428Y665044D01*
X279840Y668452D01*
X282448Y671060D01*
X285856Y672472D01*
X289544Y672472D01*
X292952Y671060D01*
X295560Y668452D01*
X296972Y665044D01*
X296972Y661356D01*
X295560Y657948D01*
X292952Y655340D01*
X289544Y653928D01*
X285856Y653928D01*
G37*
%LPD*%
%LPC*%
G36*
X260456Y653928D02*
X260456Y653928D01*
X257048Y655340D01*
X254440Y657948D01*
X253028Y661356D01*
X253028Y665044D01*
X254440Y668452D01*
X257048Y671060D01*
X260456Y672472D01*
X264144Y672472D01*
X267552Y671060D01*
X270160Y668452D01*
X271572Y665044D01*
X271572Y661356D01*
X270160Y657948D01*
X267552Y655340D01*
X264144Y653928D01*
X260456Y653928D01*
G37*
%LPD*%
%LPC*%
G36*
X235056Y653928D02*
X235056Y653928D01*
X231648Y655340D01*
X229040Y657948D01*
X227628Y661356D01*
X227628Y665044D01*
X229040Y668452D01*
X231648Y671060D01*
X235056Y672472D01*
X238744Y672472D01*
X242152Y671060D01*
X244760Y668452D01*
X246172Y665044D01*
X246172Y661356D01*
X244760Y657948D01*
X242152Y655340D01*
X238744Y653928D01*
X235056Y653928D01*
G37*
%LPD*%
%LPC*%
G36*
X235056Y933328D02*
X235056Y933328D01*
X231648Y934740D01*
X229040Y937348D01*
X227628Y940756D01*
X227628Y944444D01*
X229040Y947852D01*
X231648Y950460D01*
X235056Y951872D01*
X238744Y951872D01*
X242152Y950460D01*
X244760Y947852D01*
X246172Y944444D01*
X246172Y940756D01*
X244760Y937348D01*
X242152Y934740D01*
X238744Y933328D01*
X235056Y933328D01*
G37*
%LPD*%
%LPC*%
G36*
X260456Y933328D02*
X260456Y933328D01*
X257048Y934740D01*
X254440Y937348D01*
X253028Y940756D01*
X253028Y944444D01*
X254440Y947852D01*
X257048Y950460D01*
X260456Y951872D01*
X264144Y951872D01*
X267552Y950460D01*
X270160Y947852D01*
X271572Y944444D01*
X271572Y940756D01*
X270160Y937348D01*
X267552Y934740D01*
X264144Y933328D01*
X260456Y933328D01*
G37*
%LPD*%
%LPC*%
G36*
X285856Y907928D02*
X285856Y907928D01*
X282448Y909340D01*
X279840Y911948D01*
X278428Y915356D01*
X278428Y919044D01*
X279840Y922452D01*
X282448Y925060D01*
X285856Y926472D01*
X289544Y926472D01*
X292952Y925060D01*
X295560Y922452D01*
X296972Y919044D01*
X296972Y915356D01*
X295560Y911948D01*
X292952Y909340D01*
X289544Y907928D01*
X285856Y907928D01*
G37*
%LPD*%
%LPC*%
G36*
X311256Y907928D02*
X311256Y907928D01*
X307848Y909340D01*
X305240Y911948D01*
X303828Y915356D01*
X303828Y919044D01*
X305240Y922452D01*
X307848Y925060D01*
X311256Y926472D01*
X314944Y926472D01*
X318352Y925060D01*
X320960Y922452D01*
X322372Y919044D01*
X322372Y915356D01*
X320960Y911948D01*
X318352Y909340D01*
X314944Y907928D01*
X311256Y907928D01*
G37*
%LPD*%
%LPC*%
G36*
X235056Y907928D02*
X235056Y907928D01*
X231648Y909340D01*
X229040Y911948D01*
X227628Y915356D01*
X227628Y919044D01*
X229040Y922452D01*
X231648Y925060D01*
X235056Y926472D01*
X238744Y926472D01*
X242152Y925060D01*
X244760Y922452D01*
X246172Y919044D01*
X246172Y915356D01*
X244760Y911948D01*
X242152Y909340D01*
X238744Y907928D01*
X235056Y907928D01*
G37*
%LPD*%
%LPC*%
G36*
X362056Y907928D02*
X362056Y907928D01*
X358648Y909340D01*
X356040Y911948D01*
X354628Y915356D01*
X354628Y919044D01*
X356040Y922452D01*
X358648Y925060D01*
X362056Y926472D01*
X365744Y926472D01*
X369152Y925060D01*
X371760Y922452D01*
X373172Y919044D01*
X373172Y915356D01*
X371760Y911948D01*
X369152Y909340D01*
X365744Y907928D01*
X362056Y907928D01*
G37*
%LPD*%
%LPC*%
G36*
X412856Y907928D02*
X412856Y907928D01*
X409448Y909340D01*
X406840Y911948D01*
X405428Y915356D01*
X405428Y919044D01*
X406840Y922452D01*
X409448Y925060D01*
X412856Y926472D01*
X416544Y926472D01*
X419952Y925060D01*
X422560Y922452D01*
X423972Y919044D01*
X423972Y915356D01*
X422560Y911948D01*
X419952Y909340D01*
X416544Y907928D01*
X412856Y907928D01*
G37*
%LPD*%
%LPC*%
G36*
X666856Y907928D02*
X666856Y907928D01*
X663448Y909340D01*
X660840Y911948D01*
X659428Y915356D01*
X659428Y919044D01*
X660840Y922452D01*
X663448Y925060D01*
X666856Y926472D01*
X670544Y926472D01*
X673952Y925060D01*
X676560Y922452D01*
X677972Y919044D01*
X677972Y915356D01*
X676560Y911948D01*
X673952Y909340D01*
X670544Y907928D01*
X666856Y907928D01*
G37*
%LPD*%
%LPC*%
G36*
X336656Y907928D02*
X336656Y907928D01*
X333248Y909340D01*
X330640Y911948D01*
X329228Y915356D01*
X329228Y919044D01*
X330640Y922452D01*
X333248Y925060D01*
X336656Y926472D01*
X340344Y926472D01*
X343752Y925060D01*
X346360Y922452D01*
X347772Y919044D01*
X347772Y915356D01*
X346360Y911948D01*
X343752Y909340D01*
X340344Y907928D01*
X336656Y907928D01*
G37*
%LPD*%
%LPC*%
G36*
X641456Y907928D02*
X641456Y907928D01*
X638048Y909340D01*
X635440Y911948D01*
X634028Y915356D01*
X634028Y919044D01*
X635440Y922452D01*
X638048Y925060D01*
X641456Y926472D01*
X645144Y926472D01*
X648552Y925060D01*
X651160Y922452D01*
X652572Y919044D01*
X652572Y915356D01*
X651160Y911948D01*
X648552Y909340D01*
X645144Y907928D01*
X641456Y907928D01*
G37*
%LPD*%
%LPC*%
G36*
X616056Y907928D02*
X616056Y907928D01*
X612648Y909340D01*
X610040Y911948D01*
X608628Y915356D01*
X608628Y919044D01*
X610040Y922452D01*
X612648Y925060D01*
X616056Y926472D01*
X619744Y926472D01*
X623152Y925060D01*
X625760Y922452D01*
X627172Y919044D01*
X627172Y915356D01*
X625760Y911948D01*
X623152Y909340D01*
X619744Y907928D01*
X616056Y907928D01*
G37*
%LPD*%
%LPC*%
G36*
X260456Y907928D02*
X260456Y907928D01*
X257048Y909340D01*
X254440Y911948D01*
X253028Y915356D01*
X253028Y919044D01*
X254440Y922452D01*
X257048Y925060D01*
X260456Y926472D01*
X264144Y926472D01*
X267552Y925060D01*
X270160Y922452D01*
X271572Y919044D01*
X271572Y915356D01*
X270160Y911948D01*
X267552Y909340D01*
X264144Y907928D01*
X260456Y907928D01*
G37*
%LPD*%
%LPC*%
G36*
X590656Y907928D02*
X590656Y907928D01*
X587248Y909340D01*
X584640Y911948D01*
X583228Y915356D01*
X583228Y919044D01*
X584640Y922452D01*
X587248Y925060D01*
X590656Y926472D01*
X594344Y926472D01*
X597752Y925060D01*
X600360Y922452D01*
X601772Y919044D01*
X601772Y915356D01*
X600360Y911948D01*
X597752Y909340D01*
X594344Y907928D01*
X590656Y907928D01*
G37*
%LPD*%
%LPC*%
G36*
X565256Y907928D02*
X565256Y907928D01*
X561848Y909340D01*
X559240Y911948D01*
X557828Y915356D01*
X557828Y919044D01*
X559240Y922452D01*
X561848Y925060D01*
X565256Y926472D01*
X568944Y926472D01*
X572352Y925060D01*
X574960Y922452D01*
X576372Y919044D01*
X576372Y915356D01*
X574960Y911948D01*
X572352Y909340D01*
X568944Y907928D01*
X565256Y907928D01*
G37*
%LPD*%
%LPC*%
G36*
X463656Y907928D02*
X463656Y907928D01*
X460248Y909340D01*
X457640Y911948D01*
X456228Y915356D01*
X456228Y919044D01*
X457640Y922452D01*
X460248Y925060D01*
X463656Y926472D01*
X467344Y926472D01*
X470752Y925060D01*
X473360Y922452D01*
X474772Y919044D01*
X474772Y915356D01*
X473360Y911948D01*
X470752Y909340D01*
X467344Y907928D01*
X463656Y907928D01*
G37*
%LPD*%
%LPC*%
G36*
X438256Y907928D02*
X438256Y907928D01*
X434848Y909340D01*
X432240Y911948D01*
X430828Y915356D01*
X430828Y919044D01*
X432240Y922452D01*
X434848Y925060D01*
X438256Y926472D01*
X441944Y926472D01*
X445352Y925060D01*
X447960Y922452D01*
X449372Y919044D01*
X449372Y915356D01*
X447960Y911948D01*
X445352Y909340D01*
X441944Y907928D01*
X438256Y907928D01*
G37*
%LPD*%
%LPC*%
G36*
X824287Y940053D02*
X824287Y940053D01*
X822046Y940981D01*
X820331Y942696D01*
X819403Y944937D01*
X819403Y947363D01*
X820331Y949604D01*
X822046Y951319D01*
X824287Y952247D01*
X826713Y952247D01*
X828954Y951319D01*
X830669Y949604D01*
X831597Y947363D01*
X831597Y944937D01*
X830669Y942696D01*
X828954Y940981D01*
X826713Y940053D01*
X824287Y940053D01*
G37*
%LPD*%
%LPC*%
G36*
X74987Y730503D02*
X74987Y730503D01*
X72746Y731431D01*
X71031Y733146D01*
X70103Y735387D01*
X70103Y737813D01*
X71031Y740054D01*
X72746Y741769D01*
X74987Y742697D01*
X77413Y742697D01*
X79654Y741769D01*
X81369Y740054D01*
X82297Y737813D01*
X82297Y735387D01*
X81369Y733146D01*
X79654Y731431D01*
X77413Y730503D01*
X74987Y730503D01*
G37*
%LPD*%
%LPC*%
G36*
X824287Y908303D02*
X824287Y908303D01*
X822046Y909231D01*
X820331Y910946D01*
X819403Y913187D01*
X819403Y915613D01*
X820331Y917854D01*
X822046Y919569D01*
X824287Y920497D01*
X826713Y920497D01*
X828954Y919569D01*
X830669Y917854D01*
X831597Y915613D01*
X831597Y913187D01*
X830669Y910946D01*
X828954Y909231D01*
X826713Y908303D01*
X824287Y908303D01*
G37*
%LPD*%
%LPC*%
G36*
X100387Y108203D02*
X100387Y108203D01*
X98146Y109131D01*
X96431Y110846D01*
X95503Y113087D01*
X95503Y115513D01*
X96431Y117754D01*
X98146Y119469D01*
X100387Y120397D01*
X102813Y120397D01*
X105054Y119469D01*
X106769Y117754D01*
X107697Y115513D01*
X107697Y113087D01*
X106769Y110846D01*
X105054Y109131D01*
X102813Y108203D01*
X100387Y108203D01*
G37*
%LPD*%
%LPC*%
G36*
X532187Y108203D02*
X532187Y108203D01*
X529946Y109131D01*
X528231Y110846D01*
X527303Y113087D01*
X527303Y115513D01*
X528231Y117754D01*
X529946Y119469D01*
X532187Y120397D01*
X534613Y120397D01*
X536854Y119469D01*
X538569Y117754D01*
X539497Y115513D01*
X539497Y113087D01*
X538569Y110846D01*
X536854Y109131D01*
X534613Y108203D01*
X532187Y108203D01*
G37*
%LPD*%
%LPC*%
G36*
X1211637Y133603D02*
X1211637Y133603D01*
X1209396Y134531D01*
X1207681Y136246D01*
X1206753Y138487D01*
X1206753Y140913D01*
X1207681Y143154D01*
X1209396Y144869D01*
X1211637Y145797D01*
X1214063Y145797D01*
X1216304Y144869D01*
X1218019Y143154D01*
X1218947Y140913D01*
X1218947Y138487D01*
X1218019Y136246D01*
X1216304Y134531D01*
X1214063Y133603D01*
X1211637Y133603D01*
G37*
%LPD*%
%LPC*%
G36*
X919537Y774953D02*
X919537Y774953D01*
X917296Y775881D01*
X915581Y777596D01*
X914653Y779837D01*
X914653Y782263D01*
X915581Y784504D01*
X917296Y786219D01*
X919537Y787147D01*
X921963Y787147D01*
X924204Y786219D01*
X925919Y784504D01*
X926847Y782263D01*
X926847Y779837D01*
X925919Y777596D01*
X924204Y775881D01*
X921963Y774953D01*
X919537Y774953D01*
G37*
%LPD*%
%LPC*%
G36*
X824287Y882903D02*
X824287Y882903D01*
X822046Y883831D01*
X820331Y885546D01*
X819403Y887787D01*
X819403Y890213D01*
X820331Y892454D01*
X822046Y894169D01*
X824287Y895097D01*
X826713Y895097D01*
X828954Y894169D01*
X830669Y892454D01*
X831597Y890213D01*
X831597Y887787D01*
X830669Y885546D01*
X828954Y883831D01*
X826713Y882903D01*
X824287Y882903D01*
G37*
%LPD*%
%LPC*%
G36*
X104099Y713699D02*
X104099Y713699D01*
X104099Y720420D01*
X105262Y720042D01*
X106601Y719360D01*
X107815Y718477D01*
X108877Y717415D01*
X109760Y716201D01*
X110442Y714862D01*
X110820Y713699D01*
X104099Y713699D01*
G37*
%LPD*%
%LPC*%
G36*
X92380Y713699D02*
X92380Y713699D01*
X92758Y714862D01*
X93440Y716201D01*
X94323Y717415D01*
X95385Y718477D01*
X96599Y719360D01*
X97938Y720042D01*
X99101Y720420D01*
X99101Y713699D01*
X92380Y713699D01*
G37*
%LPD*%
%LPC*%
G36*
X104099Y708701D02*
X104099Y708701D01*
X110820Y708701D01*
X110442Y707538D01*
X109760Y706199D01*
X108877Y704985D01*
X107815Y703923D01*
X106601Y703040D01*
X105262Y702358D01*
X104099Y701980D01*
X104099Y708701D01*
G37*
%LPD*%
%LPC*%
G36*
X97938Y702358D02*
X97938Y702358D01*
X96599Y703040D01*
X95385Y703923D01*
X94323Y704985D01*
X93440Y706199D01*
X92758Y707538D01*
X92380Y708701D01*
X99101Y708701D01*
X99101Y701980D01*
X97938Y702358D01*
G37*
%LPD*%
%LPC*%
G36*
X948449Y846849D02*
X948449Y846849D01*
X948449Y853249D01*
X948770Y853186D01*
X950404Y852509D01*
X951875Y851526D01*
X953126Y850275D01*
X954109Y848804D01*
X954786Y847170D01*
X954849Y846849D01*
X948449Y846849D01*
G37*
%LPD*%
%LPC*%
G36*
X937451Y846849D02*
X937451Y846849D01*
X937514Y847170D01*
X938191Y848804D01*
X939174Y850275D01*
X940425Y851526D01*
X941896Y852509D01*
X943530Y853186D01*
X943851Y853249D01*
X943851Y846849D01*
X937451Y846849D01*
G37*
%LPD*%
%LPC*%
G36*
X948449Y842251D02*
X948449Y842251D01*
X954849Y842251D01*
X954786Y841930D01*
X954109Y840296D01*
X953126Y838825D01*
X951875Y837574D01*
X950404Y836591D01*
X948770Y835914D01*
X948449Y835851D01*
X948449Y842251D01*
G37*
%LPD*%
%LPC*%
G36*
X943530Y835914D02*
X943530Y835914D01*
X941896Y836591D01*
X940425Y837574D01*
X939174Y838825D01*
X938191Y840296D01*
X937514Y841930D01*
X937451Y842251D01*
X943851Y842251D01*
X943851Y835851D01*
X943530Y835914D01*
G37*
%LPD*%
%LPC*%
G36*
X518522Y690822D02*
X518522Y690822D01*
X518522Y697093D01*
X518856Y697027D01*
X520451Y696366D01*
X521887Y695407D01*
X523107Y694187D01*
X524066Y692751D01*
X524727Y691156D01*
X524793Y690822D01*
X518522Y690822D01*
G37*
%LPD*%
%LPC*%
G36*
X391522Y919422D02*
X391522Y919422D01*
X391522Y925693D01*
X391856Y925627D01*
X393451Y924966D01*
X394887Y924007D01*
X396107Y922787D01*
X397066Y921351D01*
X397727Y919756D01*
X397793Y919422D01*
X391522Y919422D01*
G37*
%LPD*%
%LPC*%
G36*
X518522Y914978D02*
X518522Y914978D01*
X524793Y914978D01*
X524727Y914644D01*
X524066Y913049D01*
X523107Y911613D01*
X521887Y910393D01*
X520451Y909434D01*
X518856Y908773D01*
X518522Y908707D01*
X518522Y914978D01*
G37*
%LPD*%
%LPC*%
G36*
X391522Y914978D02*
X391522Y914978D01*
X397793Y914978D01*
X397727Y914644D01*
X397066Y913049D01*
X396107Y911613D01*
X394887Y910393D01*
X393451Y909434D01*
X391856Y908773D01*
X391522Y908707D01*
X391522Y914978D01*
G37*
%LPD*%
%LPC*%
G36*
X518522Y686378D02*
X518522Y686378D01*
X524793Y686378D01*
X524727Y686044D01*
X524066Y684449D01*
X523107Y683013D01*
X521887Y681793D01*
X520451Y680834D01*
X518856Y680173D01*
X518522Y680107D01*
X518522Y686378D01*
G37*
%LPD*%
%LPC*%
G36*
X380807Y919422D02*
X380807Y919422D01*
X380873Y919756D01*
X381534Y921351D01*
X382493Y922787D01*
X383713Y924007D01*
X385149Y924966D01*
X386744Y925627D01*
X387078Y925693D01*
X387078Y919422D01*
X380807Y919422D01*
G37*
%LPD*%
%LPC*%
G36*
X507807Y690822D02*
X507807Y690822D01*
X507873Y691156D01*
X508534Y692751D01*
X509493Y694187D01*
X510713Y695407D01*
X512149Y696366D01*
X513744Y697027D01*
X514078Y697093D01*
X514078Y690822D01*
X507807Y690822D01*
G37*
%LPD*%
%LPC*%
G36*
X513744Y908773D02*
X513744Y908773D01*
X512149Y909434D01*
X510713Y910393D01*
X509493Y911613D01*
X508534Y913049D01*
X507873Y914644D01*
X507807Y914978D01*
X514078Y914978D01*
X514078Y908707D01*
X513744Y908773D01*
G37*
%LPD*%
%LPC*%
G36*
X513744Y680173D02*
X513744Y680173D01*
X512149Y680834D01*
X510713Y681793D01*
X509493Y683013D01*
X508534Y684449D01*
X507873Y686044D01*
X507807Y686378D01*
X514078Y686378D01*
X514078Y680107D01*
X513744Y680173D01*
G37*
%LPD*%
%LPC*%
G36*
X386744Y908773D02*
X386744Y908773D01*
X385149Y909434D01*
X383713Y910393D01*
X382493Y911613D01*
X381534Y913049D01*
X380873Y914644D01*
X380807Y914978D01*
X387078Y914978D01*
X387078Y908707D01*
X386744Y908773D01*
G37*
%LPD*%
D10*
X236900Y942600D03*
X236900Y917200D03*
X262300Y942600D03*
X262300Y917200D03*
X287700Y942600D03*
X287700Y917200D03*
X313100Y942600D03*
X313100Y917200D03*
X338500Y942600D03*
X338500Y917200D03*
X363900Y942600D03*
X363900Y917200D03*
X389300Y942600D03*
X389300Y917200D03*
X414700Y942600D03*
X414700Y917200D03*
X440100Y942600D03*
X440100Y917200D03*
X465500Y942600D03*
X465500Y917200D03*
X490900Y942600D03*
X490900Y917200D03*
X516300Y942600D03*
X516300Y917200D03*
X541700Y942600D03*
X541700Y917200D03*
X567100Y942600D03*
X567100Y917200D03*
X592500Y942600D03*
X592500Y917200D03*
X617900Y942600D03*
X617900Y917200D03*
X643300Y942600D03*
X643300Y917200D03*
X668700Y942600D03*
X668700Y917200D03*
X236900Y688600D03*
X236900Y663200D03*
X262300Y688600D03*
X262300Y663200D03*
X287700Y688600D03*
X287700Y663200D03*
X313100Y688600D03*
X313100Y663200D03*
X338500Y688600D03*
X338500Y663200D03*
X363900Y688600D03*
X363900Y663200D03*
X389300Y688600D03*
X389300Y663200D03*
X414700Y688600D03*
X414700Y663200D03*
X440100Y688600D03*
X440100Y663200D03*
X465500Y688600D03*
X465500Y663200D03*
X490900Y688600D03*
X490900Y663200D03*
X516300Y688600D03*
X516300Y663200D03*
X541700Y688600D03*
X541700Y663200D03*
X567100Y688600D03*
X567100Y663200D03*
X592500Y688600D03*
X592500Y663200D03*
X617900Y688600D03*
X617900Y663200D03*
X643300Y688600D03*
X643300Y663200D03*
X668700Y688600D03*
X668700Y663200D03*
D11*
X787000Y419100D03*
X762000Y419100D03*
X737000Y419100D03*
X914800Y419100D03*
X939800Y419100D03*
X964800Y419100D03*
D12*
X265700Y139300D03*
X265700Y89300D03*
X140700Y89300D03*
X140700Y139300D03*
X494300Y139300D03*
X494300Y89300D03*
X369300Y89300D03*
X369300Y139300D03*
D11*
X101600Y736600D03*
X101600Y711200D03*
X101600Y685800D03*
X101600Y660400D03*
X101600Y635000D03*
X101600Y609600D03*
X101600Y584200D03*
X101600Y558800D03*
X101600Y533400D03*
X101600Y508000D03*
X101600Y482600D03*
X101600Y457200D03*
X101600Y431800D03*
X101600Y406400D03*
X101600Y381000D03*
X101600Y355600D03*
X101600Y330200D03*
X101600Y304800D03*
X101600Y279400D03*
X101600Y254000D03*
D13*
X101600Y781050D03*
X101600Y209550D03*
X863600Y781050D03*
X863600Y209550D03*
D14*
X946150Y844550D03*
X946150Y819550D03*
X946150Y799550D03*
X946150Y774550D03*
D15*
X973250Y875250D03*
X973250Y743850D03*
D16*
X38100Y38100D03*
X38100Y977900D03*
X1231900Y977900D03*
X1231900Y38100D03*
D17*
X825500Y914400D03*
X825500Y889000D03*
X1212850Y139700D03*
X920750Y781050D03*
X76200Y736600D03*
X825500Y946150D03*
X533400Y114300D03*
X101600Y114300D03*
M02*
