G04 EAGLE Gerber RS-274X export*
G75*
%MOMM*%
%FSLAX34Y34*%
%LPD*%
%INCopper Layer 2*%
%IPPOS*%
%AMOC8*
5,1,8,0,0,1.08239X$1,22.5*%
G01*
%ADD10C,1.244600*%
%ADD11C,1.400000*%
%ADD12C,1.960000*%
%ADD13C,4.016000*%
%ADD14C,1.288000*%
%ADD15C,3.220000*%
%ADD16C,4.191000*%
%ADD17C,0.609600*%

G36*
X1266109Y2556D02*
X1266109Y2556D01*
X1266227Y2563D01*
X1266266Y2575D01*
X1266306Y2581D01*
X1266417Y2624D01*
X1266530Y2661D01*
X1266564Y2683D01*
X1266602Y2698D01*
X1266698Y2767D01*
X1266799Y2831D01*
X1266827Y2861D01*
X1266859Y2884D01*
X1266935Y2976D01*
X1267017Y3063D01*
X1267036Y3098D01*
X1267062Y3129D01*
X1267113Y3237D01*
X1267170Y3341D01*
X1267180Y3380D01*
X1267198Y3417D01*
X1267220Y3534D01*
X1267250Y3649D01*
X1267254Y3709D01*
X1267257Y3729D01*
X1267256Y3750D01*
X1267260Y3810D01*
X1267459Y1012190D01*
X1267444Y1012308D01*
X1267436Y1012427D01*
X1267424Y1012465D01*
X1267419Y1012505D01*
X1267375Y1012616D01*
X1267338Y1012729D01*
X1267317Y1012764D01*
X1267302Y1012801D01*
X1267232Y1012897D01*
X1267168Y1012998D01*
X1267139Y1013026D01*
X1267115Y1013058D01*
X1267023Y1013134D01*
X1266936Y1013216D01*
X1266901Y1013236D01*
X1266870Y1013261D01*
X1266762Y1013312D01*
X1266658Y1013370D01*
X1266619Y1013380D01*
X1266582Y1013397D01*
X1266465Y1013419D01*
X1266350Y1013449D01*
X1266290Y1013453D01*
X1266270Y1013457D01*
X1266250Y1013455D01*
X1266189Y1013459D01*
X3810Y1013459D01*
X3692Y1013444D01*
X3573Y1013437D01*
X3535Y1013424D01*
X3494Y1013419D01*
X3384Y1013376D01*
X3271Y1013339D01*
X3236Y1013317D01*
X3199Y1013302D01*
X3103Y1013233D01*
X3002Y1013169D01*
X2974Y1013139D01*
X2941Y1013116D01*
X2865Y1013024D01*
X2784Y1012937D01*
X2764Y1012902D01*
X2739Y1012871D01*
X2688Y1012763D01*
X2630Y1012659D01*
X2620Y1012619D01*
X2603Y1012583D01*
X2581Y1012466D01*
X2551Y1012351D01*
X2547Y1012291D01*
X2543Y1012271D01*
X2545Y1012250D01*
X2541Y1012190D01*
X2541Y3810D01*
X2556Y3692D01*
X2563Y3573D01*
X2576Y3535D01*
X2581Y3494D01*
X2624Y3384D01*
X2661Y3271D01*
X2683Y3236D01*
X2698Y3199D01*
X2767Y3103D01*
X2831Y3002D01*
X2861Y2974D01*
X2884Y2941D01*
X2976Y2865D01*
X3063Y2784D01*
X3098Y2764D01*
X3129Y2739D01*
X3237Y2688D01*
X3341Y2630D01*
X3381Y2620D01*
X3417Y2603D01*
X3534Y2581D01*
X3649Y2551D01*
X3709Y2547D01*
X3729Y2543D01*
X3750Y2545D01*
X3810Y2541D01*
X1265991Y2541D01*
X1266109Y2556D01*
G37*
%LPC*%
G36*
X1227226Y954404D02*
X1227226Y954404D01*
X1218591Y957981D01*
X1211981Y964591D01*
X1208404Y973226D01*
X1208404Y982574D01*
X1211981Y991209D01*
X1218591Y997819D01*
X1227226Y1001396D01*
X1236574Y1001396D01*
X1245209Y997819D01*
X1251819Y991209D01*
X1255396Y982574D01*
X1255396Y973226D01*
X1251819Y964591D01*
X1245209Y957981D01*
X1236574Y954404D01*
X1227226Y954404D01*
G37*
%LPD*%
%LPC*%
G36*
X33426Y954404D02*
X33426Y954404D01*
X24791Y957981D01*
X18181Y964591D01*
X14604Y973226D01*
X14604Y982574D01*
X18181Y991209D01*
X24791Y997819D01*
X33426Y1001396D01*
X42774Y1001396D01*
X51409Y997819D01*
X58019Y991209D01*
X61596Y982574D01*
X61596Y973226D01*
X58019Y964591D01*
X51409Y957981D01*
X42774Y954404D01*
X33426Y954404D01*
G37*
%LPD*%
%LPC*%
G36*
X1227226Y14604D02*
X1227226Y14604D01*
X1218591Y18181D01*
X1211981Y24791D01*
X1208404Y33426D01*
X1208404Y42774D01*
X1211981Y51409D01*
X1218591Y58019D01*
X1227226Y61596D01*
X1236574Y61596D01*
X1245209Y58019D01*
X1251819Y51409D01*
X1255396Y42774D01*
X1255396Y33426D01*
X1251819Y24791D01*
X1245209Y18181D01*
X1236574Y14604D01*
X1227226Y14604D01*
G37*
%LPD*%
%LPC*%
G36*
X33426Y14604D02*
X33426Y14604D01*
X24791Y18181D01*
X18181Y24791D01*
X14604Y33426D01*
X14604Y42774D01*
X18181Y51409D01*
X24791Y58019D01*
X33426Y61596D01*
X42774Y61596D01*
X51409Y58019D01*
X58019Y51409D01*
X61596Y42774D01*
X61596Y33426D01*
X58019Y24791D01*
X51409Y18181D01*
X42774Y14604D01*
X33426Y14604D01*
G37*
%LPD*%
%LPC*%
G36*
X97100Y186929D02*
X97100Y186929D01*
X88786Y190373D01*
X82423Y196736D01*
X78979Y205050D01*
X78979Y214050D01*
X82423Y222364D01*
X88786Y228727D01*
X97100Y232171D01*
X106100Y232171D01*
X114414Y228727D01*
X120777Y222364D01*
X124221Y214050D01*
X124221Y205050D01*
X120777Y196736D01*
X114414Y190373D01*
X106100Y186929D01*
X97100Y186929D01*
G37*
%LPD*%
%LPC*%
G36*
X859100Y758429D02*
X859100Y758429D01*
X850786Y761873D01*
X844423Y768236D01*
X840979Y776550D01*
X840979Y785550D01*
X844423Y793864D01*
X850786Y800227D01*
X859100Y803671D01*
X868100Y803671D01*
X876414Y800227D01*
X882777Y793864D01*
X886221Y785550D01*
X886221Y776550D01*
X882777Y768236D01*
X876414Y761873D01*
X868100Y758429D01*
X859100Y758429D01*
G37*
%LPD*%
%LPC*%
G36*
X97100Y758429D02*
X97100Y758429D01*
X88786Y761873D01*
X82423Y768236D01*
X78979Y776550D01*
X78979Y785550D01*
X82423Y793864D01*
X88786Y800227D01*
X97100Y803671D01*
X106100Y803671D01*
X114414Y800227D01*
X120777Y793864D01*
X124221Y785550D01*
X124221Y776550D01*
X120777Y768236D01*
X114414Y761873D01*
X106100Y758429D01*
X97100Y758429D01*
G37*
%LPD*%
%LPC*%
G36*
X859100Y186929D02*
X859100Y186929D01*
X850786Y190373D01*
X844423Y196736D01*
X840979Y205050D01*
X840979Y214050D01*
X844423Y222364D01*
X850786Y228727D01*
X859100Y232171D01*
X868100Y232171D01*
X876414Y228727D01*
X882777Y222364D01*
X886221Y214050D01*
X886221Y205050D01*
X882777Y196736D01*
X876414Y190373D01*
X868100Y186929D01*
X859100Y186929D01*
G37*
%LPD*%
%LPC*%
G36*
X969542Y725209D02*
X969542Y725209D01*
X962691Y728047D01*
X957447Y733291D01*
X954609Y740142D01*
X954609Y747558D01*
X957447Y754409D01*
X962691Y759653D01*
X969542Y762491D01*
X976958Y762491D01*
X983809Y759653D01*
X989053Y754409D01*
X991891Y747558D01*
X991891Y740142D01*
X989053Y733291D01*
X983809Y728047D01*
X976958Y725209D01*
X969542Y725209D01*
G37*
%LPD*%
%LPC*%
G36*
X969542Y856609D02*
X969542Y856609D01*
X962691Y859447D01*
X957447Y864691D01*
X954609Y871542D01*
X954609Y878958D01*
X957447Y885809D01*
X962691Y891053D01*
X969542Y893891D01*
X976958Y893891D01*
X983809Y891053D01*
X989053Y885809D01*
X991891Y878958D01*
X991891Y871542D01*
X989053Y864691D01*
X983809Y859447D01*
X976958Y856609D01*
X969542Y856609D01*
G37*
%LPD*%
%LPC*%
G36*
X986808Y334059D02*
X986808Y334059D01*
X981280Y336349D01*
X977049Y340580D01*
X974759Y346108D01*
X974759Y352092D01*
X977049Y357620D01*
X981280Y361851D01*
X986808Y364141D01*
X992792Y364141D01*
X998320Y361851D01*
X1002551Y357620D01*
X1004841Y352092D01*
X1004841Y346108D01*
X1002551Y340580D01*
X998320Y336349D01*
X992792Y334059D01*
X986808Y334059D01*
G37*
%LPD*%
%LPC*%
G36*
X886808Y334059D02*
X886808Y334059D01*
X881280Y336349D01*
X877049Y340580D01*
X874759Y346108D01*
X874759Y352092D01*
X877049Y357620D01*
X881280Y361851D01*
X886808Y364141D01*
X892792Y364141D01*
X898320Y361851D01*
X902551Y357620D01*
X904841Y352092D01*
X904841Y346108D01*
X902551Y340580D01*
X898320Y336349D01*
X892792Y334059D01*
X886808Y334059D01*
G37*
%LPD*%
%LPC*%
G36*
X809008Y334059D02*
X809008Y334059D01*
X803480Y336349D01*
X799249Y340580D01*
X796959Y346108D01*
X796959Y352092D01*
X799249Y357620D01*
X803480Y361851D01*
X809008Y364141D01*
X814992Y364141D01*
X820520Y361851D01*
X824751Y357620D01*
X827041Y352092D01*
X827041Y346108D01*
X824751Y340580D01*
X820520Y336349D01*
X814992Y334059D01*
X809008Y334059D01*
G37*
%LPD*%
%LPC*%
G36*
X709008Y334059D02*
X709008Y334059D01*
X703480Y336349D01*
X699249Y340580D01*
X696959Y346108D01*
X696959Y352092D01*
X699249Y357620D01*
X703480Y361851D01*
X709008Y364141D01*
X714992Y364141D01*
X720520Y361851D01*
X724751Y357620D01*
X727041Y352092D01*
X727041Y346108D01*
X724751Y340580D01*
X720520Y336349D01*
X714992Y334059D01*
X709008Y334059D01*
G37*
%LPD*%
%LPC*%
G36*
X944364Y790569D02*
X944364Y790569D01*
X941063Y791936D01*
X938536Y794463D01*
X937169Y797764D01*
X937169Y801336D01*
X938536Y804637D01*
X941063Y807164D01*
X943993Y808377D01*
X944114Y808446D01*
X944237Y808511D01*
X944252Y808525D01*
X944270Y808535D01*
X944370Y808632D01*
X944472Y808725D01*
X944483Y808742D01*
X944498Y808756D01*
X944571Y808875D01*
X944647Y808991D01*
X944654Y809010D01*
X944664Y809027D01*
X944705Y809160D01*
X944750Y809292D01*
X944752Y809312D01*
X944758Y809331D01*
X944765Y809470D01*
X944776Y809609D01*
X944772Y809629D01*
X944773Y809649D01*
X944745Y809785D01*
X944721Y809922D01*
X944713Y809941D01*
X944709Y809960D01*
X944647Y810086D01*
X944591Y810212D01*
X944578Y810228D01*
X944569Y810246D01*
X944479Y810352D01*
X944392Y810460D01*
X944376Y810473D01*
X944363Y810488D01*
X944249Y810568D01*
X944138Y810652D01*
X944113Y810664D01*
X944103Y810671D01*
X944083Y810678D01*
X943993Y810723D01*
X941063Y811936D01*
X938536Y814463D01*
X937169Y817764D01*
X937169Y821336D01*
X938536Y824637D01*
X941063Y827164D01*
X944364Y828531D01*
X947936Y828531D01*
X951237Y827164D01*
X953764Y824637D01*
X955131Y821336D01*
X955131Y817764D01*
X953764Y814463D01*
X951237Y811936D01*
X948307Y810723D01*
X948186Y810654D01*
X948063Y810589D01*
X948048Y810575D01*
X948030Y810565D01*
X947930Y810468D01*
X947828Y810375D01*
X947816Y810358D01*
X947802Y810344D01*
X947729Y810226D01*
X947653Y810109D01*
X947646Y810090D01*
X947636Y810073D01*
X947595Y809940D01*
X947550Y809808D01*
X947548Y809788D01*
X947542Y809769D01*
X947535Y809630D01*
X947524Y809491D01*
X947528Y809471D01*
X947527Y809451D01*
X947555Y809315D01*
X947579Y809178D01*
X947587Y809159D01*
X947591Y809140D01*
X947652Y809015D01*
X947709Y808888D01*
X947722Y808872D01*
X947731Y808854D01*
X947821Y808748D01*
X947908Y808640D01*
X947924Y808627D01*
X947937Y808612D01*
X948051Y808532D01*
X948162Y808448D01*
X948187Y808436D01*
X948197Y808429D01*
X948217Y808422D01*
X948307Y808377D01*
X951237Y807164D01*
X953764Y804637D01*
X955131Y801336D01*
X955131Y797764D01*
X953764Y794463D01*
X951237Y791936D01*
X947936Y790569D01*
X944364Y790569D01*
G37*
%LPD*%
%LPC*%
G36*
X366845Y126959D02*
X366845Y126959D01*
X362310Y128838D01*
X358838Y132310D01*
X356959Y136845D01*
X356959Y141755D01*
X358838Y146290D01*
X362310Y149762D01*
X366845Y151641D01*
X371755Y151641D01*
X376290Y149762D01*
X379762Y146290D01*
X381641Y141755D01*
X381641Y136845D01*
X379762Y132310D01*
X376290Y128838D01*
X371755Y126959D01*
X366845Y126959D01*
G37*
%LPD*%
%LPC*%
G36*
X491845Y126959D02*
X491845Y126959D01*
X487310Y128838D01*
X483838Y132310D01*
X481959Y136845D01*
X481959Y141755D01*
X483838Y146290D01*
X487310Y149762D01*
X491845Y151641D01*
X496755Y151641D01*
X501290Y149762D01*
X504762Y146290D01*
X506641Y141755D01*
X506641Y136845D01*
X504762Y132310D01*
X501290Y128838D01*
X496755Y126959D01*
X491845Y126959D01*
G37*
%LPD*%
%LPC*%
G36*
X138245Y126959D02*
X138245Y126959D01*
X133710Y128838D01*
X130238Y132310D01*
X128359Y136845D01*
X128359Y141755D01*
X130238Y146290D01*
X133710Y149762D01*
X138245Y151641D01*
X143155Y151641D01*
X147690Y149762D01*
X151162Y146290D01*
X153041Y141755D01*
X153041Y136845D01*
X151162Y132310D01*
X147690Y128838D01*
X143155Y126959D01*
X138245Y126959D01*
G37*
%LPD*%
%LPC*%
G36*
X263245Y126959D02*
X263245Y126959D01*
X258710Y128838D01*
X255238Y132310D01*
X253359Y136845D01*
X253359Y141755D01*
X255238Y146290D01*
X258710Y149762D01*
X263245Y151641D01*
X268155Y151641D01*
X272690Y149762D01*
X276162Y146290D01*
X278041Y141755D01*
X278041Y136845D01*
X276162Y132310D01*
X272690Y128838D01*
X268155Y126959D01*
X263245Y126959D01*
G37*
%LPD*%
%LPC*%
G36*
X99702Y244459D02*
X99702Y244459D01*
X96196Y245912D01*
X93512Y248596D01*
X92059Y252102D01*
X92059Y255898D01*
X93512Y259404D01*
X96196Y262088D01*
X99702Y263541D01*
X103498Y263541D01*
X107004Y262088D01*
X109688Y259404D01*
X111141Y255898D01*
X111141Y252102D01*
X109688Y248596D01*
X107004Y245912D01*
X103498Y244459D01*
X99702Y244459D01*
G37*
%LPD*%
%LPC*%
G36*
X99702Y269859D02*
X99702Y269859D01*
X96196Y271312D01*
X93512Y273996D01*
X92059Y277502D01*
X92059Y281298D01*
X93512Y284804D01*
X96196Y287488D01*
X99702Y288941D01*
X103498Y288941D01*
X107004Y287488D01*
X109688Y284804D01*
X111141Y281298D01*
X111141Y277502D01*
X109688Y273996D01*
X107004Y271312D01*
X103498Y269859D01*
X99702Y269859D01*
G37*
%LPD*%
%LPC*%
G36*
X99702Y295259D02*
X99702Y295259D01*
X96196Y296712D01*
X93512Y299396D01*
X92059Y302902D01*
X92059Y306698D01*
X93512Y310204D01*
X96196Y312888D01*
X99702Y314341D01*
X103498Y314341D01*
X107004Y312888D01*
X109688Y310204D01*
X111141Y306698D01*
X111141Y302902D01*
X109688Y299396D01*
X107004Y296712D01*
X103498Y295259D01*
X99702Y295259D01*
G37*
%LPD*%
%LPC*%
G36*
X99702Y320659D02*
X99702Y320659D01*
X96196Y322112D01*
X93512Y324796D01*
X92059Y328302D01*
X92059Y332098D01*
X93512Y335604D01*
X96196Y338288D01*
X99702Y339741D01*
X103498Y339741D01*
X107004Y338288D01*
X109688Y335604D01*
X111141Y332098D01*
X111141Y328302D01*
X109688Y324796D01*
X107004Y322112D01*
X103498Y320659D01*
X99702Y320659D01*
G37*
%LPD*%
%LPC*%
G36*
X99702Y346059D02*
X99702Y346059D01*
X96196Y347512D01*
X93512Y350196D01*
X92059Y353702D01*
X92059Y357498D01*
X93512Y361004D01*
X96196Y363688D01*
X99702Y365141D01*
X103498Y365141D01*
X107004Y363688D01*
X109688Y361004D01*
X111141Y357498D01*
X111141Y353702D01*
X109688Y350196D01*
X107004Y347512D01*
X103498Y346059D01*
X99702Y346059D01*
G37*
%LPD*%
%LPC*%
G36*
X99702Y371459D02*
X99702Y371459D01*
X96196Y372912D01*
X93512Y375596D01*
X92059Y379102D01*
X92059Y382898D01*
X93512Y386404D01*
X96196Y389088D01*
X99702Y390541D01*
X103498Y390541D01*
X107004Y389088D01*
X109688Y386404D01*
X111141Y382898D01*
X111141Y379102D01*
X109688Y375596D01*
X107004Y372912D01*
X103498Y371459D01*
X99702Y371459D01*
G37*
%LPD*%
%LPC*%
G36*
X99702Y396859D02*
X99702Y396859D01*
X96196Y398312D01*
X93512Y400996D01*
X92059Y404502D01*
X92059Y408298D01*
X93512Y411804D01*
X96196Y414488D01*
X99702Y415941D01*
X103498Y415941D01*
X107004Y414488D01*
X109688Y411804D01*
X111141Y408298D01*
X111141Y404502D01*
X109688Y400996D01*
X107004Y398312D01*
X103498Y396859D01*
X99702Y396859D01*
G37*
%LPD*%
%LPC*%
G36*
X785102Y409559D02*
X785102Y409559D01*
X781596Y411012D01*
X778912Y413696D01*
X777459Y417202D01*
X777459Y420998D01*
X778912Y424504D01*
X781596Y427188D01*
X785102Y428641D01*
X788898Y428641D01*
X792404Y427188D01*
X795088Y424504D01*
X796541Y420998D01*
X796541Y417202D01*
X795088Y413696D01*
X792404Y411012D01*
X788898Y409559D01*
X785102Y409559D01*
G37*
%LPD*%
%LPC*%
G36*
X912902Y409559D02*
X912902Y409559D01*
X909396Y411012D01*
X906712Y413696D01*
X905259Y417202D01*
X905259Y420998D01*
X906712Y424504D01*
X909396Y427188D01*
X912902Y428641D01*
X916698Y428641D01*
X920204Y427188D01*
X922888Y424504D01*
X924341Y420998D01*
X924341Y417202D01*
X922888Y413696D01*
X920204Y411012D01*
X916698Y409559D01*
X912902Y409559D01*
G37*
%LPD*%
%LPC*%
G36*
X937902Y409559D02*
X937902Y409559D01*
X934396Y411012D01*
X931712Y413696D01*
X930259Y417202D01*
X930259Y420998D01*
X931712Y424504D01*
X934396Y427188D01*
X937902Y428641D01*
X941698Y428641D01*
X945204Y427188D01*
X947888Y424504D01*
X949341Y420998D01*
X949341Y417202D01*
X947888Y413696D01*
X945204Y411012D01*
X941698Y409559D01*
X937902Y409559D01*
G37*
%LPD*%
%LPC*%
G36*
X962902Y409559D02*
X962902Y409559D01*
X959396Y411012D01*
X956712Y413696D01*
X955259Y417202D01*
X955259Y420998D01*
X956712Y424504D01*
X959396Y427188D01*
X962902Y428641D01*
X966698Y428641D01*
X970204Y427188D01*
X972888Y424504D01*
X974341Y420998D01*
X974341Y417202D01*
X972888Y413696D01*
X970204Y411012D01*
X966698Y409559D01*
X962902Y409559D01*
G37*
%LPD*%
%LPC*%
G36*
X735102Y409559D02*
X735102Y409559D01*
X731596Y411012D01*
X728912Y413696D01*
X727459Y417202D01*
X727459Y420998D01*
X728912Y424504D01*
X731596Y427188D01*
X735102Y428641D01*
X738898Y428641D01*
X742404Y427188D01*
X745088Y424504D01*
X746541Y420998D01*
X746541Y417202D01*
X745088Y413696D01*
X742404Y411012D01*
X738898Y409559D01*
X735102Y409559D01*
G37*
%LPD*%
%LPC*%
G36*
X760102Y409559D02*
X760102Y409559D01*
X756596Y411012D01*
X753912Y413696D01*
X752459Y417202D01*
X752459Y420998D01*
X753912Y424504D01*
X756596Y427188D01*
X760102Y428641D01*
X763898Y428641D01*
X767404Y427188D01*
X770088Y424504D01*
X771541Y420998D01*
X771541Y417202D01*
X770088Y413696D01*
X767404Y411012D01*
X763898Y409559D01*
X760102Y409559D01*
G37*
%LPD*%
%LPC*%
G36*
X99702Y422259D02*
X99702Y422259D01*
X96196Y423712D01*
X93512Y426396D01*
X92059Y429902D01*
X92059Y433698D01*
X93512Y437204D01*
X96196Y439888D01*
X99702Y441341D01*
X103498Y441341D01*
X107004Y439888D01*
X109688Y437204D01*
X111141Y433698D01*
X111141Y429902D01*
X109688Y426396D01*
X107004Y423712D01*
X103498Y422259D01*
X99702Y422259D01*
G37*
%LPD*%
%LPC*%
G36*
X99702Y447659D02*
X99702Y447659D01*
X96196Y449112D01*
X93512Y451796D01*
X92059Y455302D01*
X92059Y459098D01*
X93512Y462604D01*
X96196Y465288D01*
X99702Y466741D01*
X103498Y466741D01*
X107004Y465288D01*
X109688Y462604D01*
X111141Y459098D01*
X111141Y455302D01*
X109688Y451796D01*
X107004Y449112D01*
X103498Y447659D01*
X99702Y447659D01*
G37*
%LPD*%
%LPC*%
G36*
X99702Y473059D02*
X99702Y473059D01*
X96196Y474512D01*
X93512Y477196D01*
X92059Y480702D01*
X92059Y484498D01*
X93512Y488004D01*
X96196Y490688D01*
X99702Y492141D01*
X103498Y492141D01*
X107004Y490688D01*
X109688Y488004D01*
X111141Y484498D01*
X111141Y480702D01*
X109688Y477196D01*
X107004Y474512D01*
X103498Y473059D01*
X99702Y473059D01*
G37*
%LPD*%
%LPC*%
G36*
X99702Y498459D02*
X99702Y498459D01*
X96196Y499912D01*
X93512Y502596D01*
X92059Y506102D01*
X92059Y509898D01*
X93512Y513404D01*
X96196Y516088D01*
X99702Y517541D01*
X103498Y517541D01*
X107004Y516088D01*
X109688Y513404D01*
X111141Y509898D01*
X111141Y506102D01*
X109688Y502596D01*
X107004Y499912D01*
X103498Y498459D01*
X99702Y498459D01*
G37*
%LPD*%
%LPC*%
G36*
X99702Y523859D02*
X99702Y523859D01*
X96196Y525312D01*
X93512Y527996D01*
X92059Y531502D01*
X92059Y535298D01*
X93512Y538804D01*
X96196Y541488D01*
X99702Y542941D01*
X103498Y542941D01*
X107004Y541488D01*
X109688Y538804D01*
X111141Y535298D01*
X111141Y531502D01*
X109688Y527996D01*
X107004Y525312D01*
X103498Y523859D01*
X99702Y523859D01*
G37*
%LPD*%
%LPC*%
G36*
X99702Y549259D02*
X99702Y549259D01*
X96196Y550712D01*
X93512Y553396D01*
X92059Y556902D01*
X92059Y560698D01*
X93512Y564204D01*
X96196Y566888D01*
X99702Y568341D01*
X103498Y568341D01*
X107004Y566888D01*
X109688Y564204D01*
X111141Y560698D01*
X111141Y556902D01*
X109688Y553396D01*
X107004Y550712D01*
X103498Y549259D01*
X99702Y549259D01*
G37*
%LPD*%
%LPC*%
G36*
X99702Y574659D02*
X99702Y574659D01*
X96196Y576112D01*
X93512Y578796D01*
X92059Y582302D01*
X92059Y586098D01*
X93512Y589604D01*
X96196Y592288D01*
X99702Y593741D01*
X103498Y593741D01*
X107004Y592288D01*
X109688Y589604D01*
X111141Y586098D01*
X111141Y582302D01*
X109688Y578796D01*
X107004Y576112D01*
X103498Y574659D01*
X99702Y574659D01*
G37*
%LPD*%
%LPC*%
G36*
X99702Y600059D02*
X99702Y600059D01*
X96196Y601512D01*
X93512Y604196D01*
X92059Y607702D01*
X92059Y611498D01*
X93512Y615004D01*
X96196Y617688D01*
X99702Y619141D01*
X103498Y619141D01*
X107004Y617688D01*
X109688Y615004D01*
X111141Y611498D01*
X111141Y607702D01*
X109688Y604196D01*
X107004Y601512D01*
X103498Y600059D01*
X99702Y600059D01*
G37*
%LPD*%
%LPC*%
G36*
X99702Y625459D02*
X99702Y625459D01*
X96196Y626912D01*
X93512Y629596D01*
X92059Y633102D01*
X92059Y636898D01*
X93512Y640404D01*
X96196Y643088D01*
X99702Y644541D01*
X103498Y644541D01*
X107004Y643088D01*
X109688Y640404D01*
X111141Y636898D01*
X111141Y633102D01*
X109688Y629596D01*
X107004Y626912D01*
X103498Y625459D01*
X99702Y625459D01*
G37*
%LPD*%
%LPC*%
G36*
X99702Y650859D02*
X99702Y650859D01*
X96196Y652312D01*
X93512Y654996D01*
X92059Y658502D01*
X92059Y662298D01*
X93512Y665804D01*
X96196Y668488D01*
X99702Y669941D01*
X103498Y669941D01*
X107004Y668488D01*
X109688Y665804D01*
X111141Y662298D01*
X111141Y658502D01*
X109688Y654996D01*
X107004Y652312D01*
X103498Y650859D01*
X99702Y650859D01*
G37*
%LPD*%
%LPC*%
G36*
X99702Y676259D02*
X99702Y676259D01*
X96196Y677712D01*
X93512Y680396D01*
X92059Y683902D01*
X92059Y687698D01*
X93512Y691204D01*
X96196Y693888D01*
X99702Y695341D01*
X103498Y695341D01*
X107004Y693888D01*
X109688Y691204D01*
X111141Y687698D01*
X111141Y683902D01*
X109688Y680396D01*
X107004Y677712D01*
X103498Y676259D01*
X99702Y676259D01*
G37*
%LPD*%
%LPC*%
G36*
X99702Y701659D02*
X99702Y701659D01*
X96196Y703112D01*
X93512Y705796D01*
X92059Y709302D01*
X92059Y713098D01*
X93512Y716604D01*
X96196Y719288D01*
X99702Y720741D01*
X103498Y720741D01*
X107004Y719288D01*
X109688Y716604D01*
X111141Y713098D01*
X111141Y709302D01*
X109688Y705796D01*
X107004Y703112D01*
X103498Y701659D01*
X99702Y701659D01*
G37*
%LPD*%
%LPC*%
G36*
X944364Y835569D02*
X944364Y835569D01*
X941063Y836936D01*
X938536Y839463D01*
X937169Y842764D01*
X937169Y846336D01*
X938536Y849637D01*
X941063Y852164D01*
X944364Y853531D01*
X947936Y853531D01*
X951237Y852164D01*
X953764Y849637D01*
X955131Y846336D01*
X955131Y842764D01*
X953764Y839463D01*
X951237Y836936D01*
X947936Y835569D01*
X944364Y835569D01*
G37*
%LPD*%
%LPC*%
G36*
X311357Y679836D02*
X311357Y679836D01*
X308136Y681170D01*
X305670Y683636D01*
X304336Y686857D01*
X304336Y690343D01*
X305670Y693564D01*
X308136Y696030D01*
X311357Y697364D01*
X314843Y697364D01*
X318064Y696030D01*
X320530Y693564D01*
X321864Y690343D01*
X321864Y686857D01*
X320530Y683636D01*
X318064Y681170D01*
X314843Y679836D01*
X311357Y679836D01*
G37*
%LPD*%
%LPC*%
G36*
X616157Y654436D02*
X616157Y654436D01*
X612936Y655770D01*
X610470Y658236D01*
X609136Y661457D01*
X609136Y664943D01*
X610470Y668164D01*
X612936Y670630D01*
X616157Y671964D01*
X619643Y671964D01*
X622864Y670630D01*
X625330Y668164D01*
X626664Y664943D01*
X626664Y661457D01*
X625330Y658236D01*
X622864Y655770D01*
X619643Y654436D01*
X616157Y654436D01*
G37*
%LPD*%
%LPC*%
G36*
X311357Y933836D02*
X311357Y933836D01*
X308136Y935170D01*
X305670Y937636D01*
X304336Y940857D01*
X304336Y944343D01*
X305670Y947564D01*
X308136Y950030D01*
X311357Y951364D01*
X314843Y951364D01*
X318064Y950030D01*
X320530Y947564D01*
X321864Y944343D01*
X321864Y940857D01*
X320530Y937636D01*
X318064Y935170D01*
X314843Y933836D01*
X311357Y933836D01*
G37*
%LPD*%
%LPC*%
G36*
X387557Y933836D02*
X387557Y933836D01*
X384336Y935170D01*
X381870Y937636D01*
X380536Y940857D01*
X380536Y944343D01*
X381870Y947564D01*
X384336Y950030D01*
X387557Y951364D01*
X391043Y951364D01*
X394264Y950030D01*
X396730Y947564D01*
X398064Y944343D01*
X398064Y940857D01*
X396730Y937636D01*
X394264Y935170D01*
X391043Y933836D01*
X387557Y933836D01*
G37*
%LPD*%
%LPC*%
G36*
X285957Y933836D02*
X285957Y933836D01*
X282736Y935170D01*
X280270Y937636D01*
X278936Y940857D01*
X278936Y944343D01*
X280270Y947564D01*
X282736Y950030D01*
X285957Y951364D01*
X289443Y951364D01*
X292664Y950030D01*
X295130Y947564D01*
X296464Y944343D01*
X296464Y940857D01*
X295130Y937636D01*
X292664Y935170D01*
X289443Y933836D01*
X285957Y933836D01*
G37*
%LPD*%
%LPC*%
G36*
X438357Y933836D02*
X438357Y933836D01*
X435136Y935170D01*
X432670Y937636D01*
X431336Y940857D01*
X431336Y944343D01*
X432670Y947564D01*
X435136Y950030D01*
X438357Y951364D01*
X441843Y951364D01*
X445064Y950030D01*
X447530Y947564D01*
X448864Y944343D01*
X448864Y940857D01*
X447530Y937636D01*
X445064Y935170D01*
X441843Y933836D01*
X438357Y933836D01*
G37*
%LPD*%
%LPC*%
G36*
X463757Y933836D02*
X463757Y933836D01*
X460536Y935170D01*
X458070Y937636D01*
X456736Y940857D01*
X456736Y944343D01*
X458070Y947564D01*
X460536Y950030D01*
X463757Y951364D01*
X467243Y951364D01*
X470464Y950030D01*
X472930Y947564D01*
X474264Y944343D01*
X474264Y940857D01*
X472930Y937636D01*
X470464Y935170D01*
X467243Y933836D01*
X463757Y933836D01*
G37*
%LPD*%
%LPC*%
G36*
X489157Y933836D02*
X489157Y933836D01*
X485936Y935170D01*
X483470Y937636D01*
X482136Y940857D01*
X482136Y944343D01*
X483470Y947564D01*
X485936Y950030D01*
X489157Y951364D01*
X492643Y951364D01*
X495864Y950030D01*
X498330Y947564D01*
X499664Y944343D01*
X499664Y940857D01*
X498330Y937636D01*
X495864Y935170D01*
X492643Y933836D01*
X489157Y933836D01*
G37*
%LPD*%
%LPC*%
G36*
X260557Y933836D02*
X260557Y933836D01*
X257336Y935170D01*
X254870Y937636D01*
X253536Y940857D01*
X253536Y944343D01*
X254870Y947564D01*
X257336Y950030D01*
X260557Y951364D01*
X264043Y951364D01*
X267264Y950030D01*
X269730Y947564D01*
X271064Y944343D01*
X271064Y940857D01*
X269730Y937636D01*
X267264Y935170D01*
X264043Y933836D01*
X260557Y933836D01*
G37*
%LPD*%
%LPC*%
G36*
X666957Y933836D02*
X666957Y933836D01*
X663736Y935170D01*
X661270Y937636D01*
X659936Y940857D01*
X659936Y944343D01*
X661270Y947564D01*
X663736Y950030D01*
X666957Y951364D01*
X670443Y951364D01*
X673664Y950030D01*
X676130Y947564D01*
X677464Y944343D01*
X677464Y940857D01*
X676130Y937636D01*
X673664Y935170D01*
X670443Y933836D01*
X666957Y933836D01*
G37*
%LPD*%
%LPC*%
G36*
X235157Y933836D02*
X235157Y933836D01*
X231936Y935170D01*
X229470Y937636D01*
X228136Y940857D01*
X228136Y944343D01*
X229470Y947564D01*
X231936Y950030D01*
X235157Y951364D01*
X238643Y951364D01*
X241864Y950030D01*
X244330Y947564D01*
X245664Y944343D01*
X245664Y940857D01*
X244330Y937636D01*
X241864Y935170D01*
X238643Y933836D01*
X235157Y933836D01*
G37*
%LPD*%
%LPC*%
G36*
X362157Y933836D02*
X362157Y933836D01*
X358936Y935170D01*
X356470Y937636D01*
X355136Y940857D01*
X355136Y944343D01*
X356470Y947564D01*
X358936Y950030D01*
X362157Y951364D01*
X365643Y951364D01*
X368864Y950030D01*
X371330Y947564D01*
X372664Y944343D01*
X372664Y940857D01*
X371330Y937636D01*
X368864Y935170D01*
X365643Y933836D01*
X362157Y933836D01*
G37*
%LPD*%
%LPC*%
G36*
X514557Y933836D02*
X514557Y933836D01*
X511336Y935170D01*
X508870Y937636D01*
X507536Y940857D01*
X507536Y944343D01*
X508870Y947564D01*
X511336Y950030D01*
X514557Y951364D01*
X518043Y951364D01*
X521264Y950030D01*
X523730Y947564D01*
X525064Y944343D01*
X525064Y940857D01*
X523730Y937636D01*
X521264Y935170D01*
X518043Y933836D01*
X514557Y933836D01*
G37*
%LPD*%
%LPC*%
G36*
X641557Y933836D02*
X641557Y933836D01*
X638336Y935170D01*
X635870Y937636D01*
X634536Y940857D01*
X634536Y944343D01*
X635870Y947564D01*
X638336Y950030D01*
X641557Y951364D01*
X645043Y951364D01*
X648264Y950030D01*
X650730Y947564D01*
X652064Y944343D01*
X652064Y940857D01*
X650730Y937636D01*
X648264Y935170D01*
X645043Y933836D01*
X641557Y933836D01*
G37*
%LPD*%
%LPC*%
G36*
X616157Y933836D02*
X616157Y933836D01*
X612936Y935170D01*
X610470Y937636D01*
X609136Y940857D01*
X609136Y944343D01*
X610470Y947564D01*
X612936Y950030D01*
X616157Y951364D01*
X619643Y951364D01*
X622864Y950030D01*
X625330Y947564D01*
X626664Y944343D01*
X626664Y940857D01*
X625330Y937636D01*
X622864Y935170D01*
X619643Y933836D01*
X616157Y933836D01*
G37*
%LPD*%
%LPC*%
G36*
X590757Y933836D02*
X590757Y933836D01*
X587536Y935170D01*
X585070Y937636D01*
X583736Y940857D01*
X583736Y944343D01*
X585070Y947564D01*
X587536Y950030D01*
X590757Y951364D01*
X594243Y951364D01*
X597464Y950030D01*
X599930Y947564D01*
X601264Y944343D01*
X601264Y940857D01*
X599930Y937636D01*
X597464Y935170D01*
X594243Y933836D01*
X590757Y933836D01*
G37*
%LPD*%
%LPC*%
G36*
X565357Y933836D02*
X565357Y933836D01*
X562136Y935170D01*
X559670Y937636D01*
X558336Y940857D01*
X558336Y944343D01*
X559670Y947564D01*
X562136Y950030D01*
X565357Y951364D01*
X568843Y951364D01*
X572064Y950030D01*
X574530Y947564D01*
X575864Y944343D01*
X575864Y940857D01*
X574530Y937636D01*
X572064Y935170D01*
X568843Y933836D01*
X565357Y933836D01*
G37*
%LPD*%
%LPC*%
G36*
X311357Y908436D02*
X311357Y908436D01*
X308136Y909770D01*
X305670Y912236D01*
X304336Y915457D01*
X304336Y918943D01*
X305670Y922164D01*
X308136Y924630D01*
X311357Y925964D01*
X314843Y925964D01*
X318064Y924630D01*
X320530Y922164D01*
X321864Y918943D01*
X321864Y915457D01*
X320530Y912236D01*
X318064Y909770D01*
X314843Y908436D01*
X311357Y908436D01*
G37*
%LPD*%
%LPC*%
G36*
X260557Y679836D02*
X260557Y679836D01*
X257336Y681170D01*
X254870Y683636D01*
X253536Y686857D01*
X253536Y690343D01*
X254870Y693564D01*
X257336Y696030D01*
X260557Y697364D01*
X264043Y697364D01*
X267264Y696030D01*
X269730Y693564D01*
X271064Y690343D01*
X271064Y686857D01*
X269730Y683636D01*
X267264Y681170D01*
X264043Y679836D01*
X260557Y679836D01*
G37*
%LPD*%
%LPC*%
G36*
X235157Y679836D02*
X235157Y679836D01*
X231936Y681170D01*
X229470Y683636D01*
X228136Y686857D01*
X228136Y690343D01*
X229470Y693564D01*
X231936Y696030D01*
X235157Y697364D01*
X238643Y697364D01*
X241864Y696030D01*
X244330Y693564D01*
X245664Y690343D01*
X245664Y686857D01*
X244330Y683636D01*
X241864Y681170D01*
X238643Y679836D01*
X235157Y679836D01*
G37*
%LPD*%
%LPC*%
G36*
X666957Y679836D02*
X666957Y679836D01*
X663736Y681170D01*
X661270Y683636D01*
X659936Y686857D01*
X659936Y690343D01*
X661270Y693564D01*
X663736Y696030D01*
X666957Y697364D01*
X670443Y697364D01*
X673664Y696030D01*
X676130Y693564D01*
X677464Y690343D01*
X677464Y686857D01*
X676130Y683636D01*
X673664Y681170D01*
X670443Y679836D01*
X666957Y679836D01*
G37*
%LPD*%
%LPC*%
G36*
X641557Y679836D02*
X641557Y679836D01*
X638336Y681170D01*
X635870Y683636D01*
X634536Y686857D01*
X634536Y690343D01*
X635870Y693564D01*
X638336Y696030D01*
X641557Y697364D01*
X645043Y697364D01*
X648264Y696030D01*
X650730Y693564D01*
X652064Y690343D01*
X652064Y686857D01*
X650730Y683636D01*
X648264Y681170D01*
X645043Y679836D01*
X641557Y679836D01*
G37*
%LPD*%
%LPC*%
G36*
X616157Y679836D02*
X616157Y679836D01*
X612936Y681170D01*
X610470Y683636D01*
X609136Y686857D01*
X609136Y690343D01*
X610470Y693564D01*
X612936Y696030D01*
X616157Y697364D01*
X619643Y697364D01*
X622864Y696030D01*
X625330Y693564D01*
X626664Y690343D01*
X626664Y686857D01*
X625330Y683636D01*
X622864Y681170D01*
X619643Y679836D01*
X616157Y679836D01*
G37*
%LPD*%
%LPC*%
G36*
X590757Y679836D02*
X590757Y679836D01*
X587536Y681170D01*
X585070Y683636D01*
X583736Y686857D01*
X583736Y690343D01*
X585070Y693564D01*
X587536Y696030D01*
X590757Y697364D01*
X594243Y697364D01*
X597464Y696030D01*
X599930Y693564D01*
X601264Y690343D01*
X601264Y686857D01*
X599930Y683636D01*
X597464Y681170D01*
X594243Y679836D01*
X590757Y679836D01*
G37*
%LPD*%
%LPC*%
G36*
X565357Y679836D02*
X565357Y679836D01*
X562136Y681170D01*
X559670Y683636D01*
X558336Y686857D01*
X558336Y690343D01*
X559670Y693564D01*
X562136Y696030D01*
X565357Y697364D01*
X568843Y697364D01*
X572064Y696030D01*
X574530Y693564D01*
X575864Y690343D01*
X575864Y686857D01*
X574530Y683636D01*
X572064Y681170D01*
X568843Y679836D01*
X565357Y679836D01*
G37*
%LPD*%
%LPC*%
G36*
X336757Y933836D02*
X336757Y933836D01*
X333536Y935170D01*
X331070Y937636D01*
X329736Y940857D01*
X329736Y944343D01*
X331070Y947564D01*
X333536Y950030D01*
X336757Y951364D01*
X340243Y951364D01*
X343464Y950030D01*
X345930Y947564D01*
X347264Y944343D01*
X347264Y940857D01*
X345930Y937636D01*
X343464Y935170D01*
X340243Y933836D01*
X336757Y933836D01*
G37*
%LPD*%
%LPC*%
G36*
X514557Y679836D02*
X514557Y679836D01*
X511336Y681170D01*
X508870Y683636D01*
X507536Y686857D01*
X507536Y690343D01*
X508870Y693564D01*
X511336Y696030D01*
X514557Y697364D01*
X518043Y697364D01*
X521264Y696030D01*
X523730Y693564D01*
X525064Y690343D01*
X525064Y686857D01*
X523730Y683636D01*
X521264Y681170D01*
X518043Y679836D01*
X514557Y679836D01*
G37*
%LPD*%
%LPC*%
G36*
X463757Y679836D02*
X463757Y679836D01*
X460536Y681170D01*
X458070Y683636D01*
X456736Y686857D01*
X456736Y690343D01*
X458070Y693564D01*
X460536Y696030D01*
X463757Y697364D01*
X467243Y697364D01*
X470464Y696030D01*
X472930Y693564D01*
X474264Y690343D01*
X474264Y686857D01*
X472930Y683636D01*
X470464Y681170D01*
X467243Y679836D01*
X463757Y679836D01*
G37*
%LPD*%
%LPC*%
G36*
X438357Y679836D02*
X438357Y679836D01*
X435136Y681170D01*
X432670Y683636D01*
X431336Y686857D01*
X431336Y690343D01*
X432670Y693564D01*
X435136Y696030D01*
X438357Y697364D01*
X441843Y697364D01*
X445064Y696030D01*
X447530Y693564D01*
X448864Y690343D01*
X448864Y686857D01*
X447530Y683636D01*
X445064Y681170D01*
X441843Y679836D01*
X438357Y679836D01*
G37*
%LPD*%
%LPC*%
G36*
X387557Y679836D02*
X387557Y679836D01*
X384336Y681170D01*
X381870Y683636D01*
X380536Y686857D01*
X380536Y690343D01*
X381870Y693564D01*
X384336Y696030D01*
X387557Y697364D01*
X391043Y697364D01*
X394264Y696030D01*
X396730Y693564D01*
X398064Y690343D01*
X398064Y686857D01*
X396730Y683636D01*
X394264Y681170D01*
X391043Y679836D01*
X387557Y679836D01*
G37*
%LPD*%
%LPC*%
G36*
X362157Y679836D02*
X362157Y679836D01*
X358936Y681170D01*
X356470Y683636D01*
X355136Y686857D01*
X355136Y690343D01*
X356470Y693564D01*
X358936Y696030D01*
X362157Y697364D01*
X365643Y697364D01*
X368864Y696030D01*
X371330Y693564D01*
X372664Y690343D01*
X372664Y686857D01*
X371330Y683636D01*
X368864Y681170D01*
X365643Y679836D01*
X362157Y679836D01*
G37*
%LPD*%
%LPC*%
G36*
X336757Y679836D02*
X336757Y679836D01*
X333536Y681170D01*
X331070Y683636D01*
X329736Y686857D01*
X329736Y690343D01*
X331070Y693564D01*
X333536Y696030D01*
X336757Y697364D01*
X340243Y697364D01*
X343464Y696030D01*
X345930Y693564D01*
X347264Y690343D01*
X347264Y686857D01*
X345930Y683636D01*
X343464Y681170D01*
X340243Y679836D01*
X336757Y679836D01*
G37*
%LPD*%
%LPC*%
G36*
X285957Y908436D02*
X285957Y908436D01*
X282736Y909770D01*
X280270Y912236D01*
X278936Y915457D01*
X278936Y918943D01*
X280270Y922164D01*
X282736Y924630D01*
X285957Y925964D01*
X289443Y925964D01*
X292664Y924630D01*
X295130Y922164D01*
X296464Y918943D01*
X296464Y915457D01*
X295130Y912236D01*
X292664Y909770D01*
X289443Y908436D01*
X285957Y908436D01*
G37*
%LPD*%
%LPC*%
G36*
X285957Y679836D02*
X285957Y679836D01*
X282736Y681170D01*
X280270Y683636D01*
X278936Y686857D01*
X278936Y690343D01*
X280270Y693564D01*
X282736Y696030D01*
X285957Y697364D01*
X289443Y697364D01*
X292664Y696030D01*
X295130Y693564D01*
X296464Y690343D01*
X296464Y686857D01*
X295130Y683636D01*
X292664Y681170D01*
X289443Y679836D01*
X285957Y679836D01*
G37*
%LPD*%
%LPC*%
G36*
X666957Y908436D02*
X666957Y908436D01*
X663736Y909770D01*
X661270Y912236D01*
X659936Y915457D01*
X659936Y918943D01*
X661270Y922164D01*
X663736Y924630D01*
X666957Y925964D01*
X670443Y925964D01*
X673664Y924630D01*
X676130Y922164D01*
X677464Y918943D01*
X677464Y915457D01*
X676130Y912236D01*
X673664Y909770D01*
X670443Y908436D01*
X666957Y908436D01*
G37*
%LPD*%
%LPC*%
G36*
X641557Y908436D02*
X641557Y908436D01*
X638336Y909770D01*
X635870Y912236D01*
X634536Y915457D01*
X634536Y918943D01*
X635870Y922164D01*
X638336Y924630D01*
X641557Y925964D01*
X645043Y925964D01*
X648264Y924630D01*
X650730Y922164D01*
X652064Y918943D01*
X652064Y915457D01*
X650730Y912236D01*
X648264Y909770D01*
X645043Y908436D01*
X641557Y908436D01*
G37*
%LPD*%
%LPC*%
G36*
X539957Y933836D02*
X539957Y933836D01*
X536736Y935170D01*
X534270Y937636D01*
X532936Y940857D01*
X532936Y944343D01*
X534270Y947564D01*
X536736Y950030D01*
X539957Y951364D01*
X543443Y951364D01*
X546664Y950030D01*
X549130Y947564D01*
X550464Y944343D01*
X550464Y940857D01*
X549130Y937636D01*
X546664Y935170D01*
X543443Y933836D01*
X539957Y933836D01*
G37*
%LPD*%
%LPC*%
G36*
X616157Y908436D02*
X616157Y908436D01*
X612936Y909770D01*
X610470Y912236D01*
X609136Y915457D01*
X609136Y918943D01*
X610470Y922164D01*
X612936Y924630D01*
X616157Y925964D01*
X619643Y925964D01*
X622864Y924630D01*
X625330Y922164D01*
X626664Y918943D01*
X626664Y915457D01*
X625330Y912236D01*
X622864Y909770D01*
X619643Y908436D01*
X616157Y908436D01*
G37*
%LPD*%
%LPC*%
G36*
X590757Y908436D02*
X590757Y908436D01*
X587536Y909770D01*
X585070Y912236D01*
X583736Y915457D01*
X583736Y918943D01*
X585070Y922164D01*
X587536Y924630D01*
X590757Y925964D01*
X594243Y925964D01*
X597464Y924630D01*
X599930Y922164D01*
X601264Y918943D01*
X601264Y915457D01*
X599930Y912236D01*
X597464Y909770D01*
X594243Y908436D01*
X590757Y908436D01*
G37*
%LPD*%
%LPC*%
G36*
X565357Y908436D02*
X565357Y908436D01*
X562136Y909770D01*
X559670Y912236D01*
X558336Y915457D01*
X558336Y918943D01*
X559670Y922164D01*
X562136Y924630D01*
X565357Y925964D01*
X568843Y925964D01*
X572064Y924630D01*
X574530Y922164D01*
X575864Y918943D01*
X575864Y915457D01*
X574530Y912236D01*
X572064Y909770D01*
X568843Y908436D01*
X565357Y908436D01*
G37*
%LPD*%
%LPC*%
G36*
X539957Y908436D02*
X539957Y908436D01*
X536736Y909770D01*
X534270Y912236D01*
X532936Y915457D01*
X532936Y918943D01*
X534270Y922164D01*
X536736Y924630D01*
X539957Y925964D01*
X543443Y925964D01*
X546664Y924630D01*
X549130Y922164D01*
X550464Y918943D01*
X550464Y915457D01*
X549130Y912236D01*
X546664Y909770D01*
X543443Y908436D01*
X539957Y908436D01*
G37*
%LPD*%
%LPC*%
G36*
X514557Y908436D02*
X514557Y908436D01*
X511336Y909770D01*
X508870Y912236D01*
X507536Y915457D01*
X507536Y918943D01*
X508870Y922164D01*
X511336Y924630D01*
X514557Y925964D01*
X518043Y925964D01*
X521264Y924630D01*
X523730Y922164D01*
X525064Y918943D01*
X525064Y915457D01*
X523730Y912236D01*
X521264Y909770D01*
X518043Y908436D01*
X514557Y908436D01*
G37*
%LPD*%
%LPC*%
G36*
X463757Y908436D02*
X463757Y908436D01*
X460536Y909770D01*
X458070Y912236D01*
X456736Y915457D01*
X456736Y918943D01*
X458070Y922164D01*
X460536Y924630D01*
X463757Y925964D01*
X467243Y925964D01*
X470464Y924630D01*
X472930Y922164D01*
X474264Y918943D01*
X474264Y915457D01*
X472930Y912236D01*
X470464Y909770D01*
X467243Y908436D01*
X463757Y908436D01*
G37*
%LPD*%
%LPC*%
G36*
X463757Y654436D02*
X463757Y654436D01*
X460536Y655770D01*
X458070Y658236D01*
X456736Y661457D01*
X456736Y664943D01*
X458070Y668164D01*
X460536Y670630D01*
X463757Y671964D01*
X467243Y671964D01*
X470464Y670630D01*
X472930Y668164D01*
X474264Y664943D01*
X474264Y661457D01*
X472930Y658236D01*
X470464Y655770D01*
X467243Y654436D01*
X463757Y654436D01*
G37*
%LPD*%
%LPC*%
G36*
X438357Y654436D02*
X438357Y654436D01*
X435136Y655770D01*
X432670Y658236D01*
X431336Y661457D01*
X431336Y664943D01*
X432670Y668164D01*
X435136Y670630D01*
X438357Y671964D01*
X441843Y671964D01*
X445064Y670630D01*
X447530Y668164D01*
X448864Y664943D01*
X448864Y661457D01*
X447530Y658236D01*
X445064Y655770D01*
X441843Y654436D01*
X438357Y654436D01*
G37*
%LPD*%
%LPC*%
G36*
X666957Y654436D02*
X666957Y654436D01*
X663736Y655770D01*
X661270Y658236D01*
X659936Y661457D01*
X659936Y664943D01*
X661270Y668164D01*
X663736Y670630D01*
X666957Y671964D01*
X670443Y671964D01*
X673664Y670630D01*
X676130Y668164D01*
X677464Y664943D01*
X677464Y661457D01*
X676130Y658236D01*
X673664Y655770D01*
X670443Y654436D01*
X666957Y654436D01*
G37*
%LPD*%
%LPC*%
G36*
X641557Y654436D02*
X641557Y654436D01*
X638336Y655770D01*
X635870Y658236D01*
X634536Y661457D01*
X634536Y664943D01*
X635870Y668164D01*
X638336Y670630D01*
X641557Y671964D01*
X645043Y671964D01*
X648264Y670630D01*
X650730Y668164D01*
X652064Y664943D01*
X652064Y661457D01*
X650730Y658236D01*
X648264Y655770D01*
X645043Y654436D01*
X641557Y654436D01*
G37*
%LPD*%
%LPC*%
G36*
X539957Y679836D02*
X539957Y679836D01*
X536736Y681170D01*
X534270Y683636D01*
X532936Y686857D01*
X532936Y690343D01*
X534270Y693564D01*
X536736Y696030D01*
X539957Y697364D01*
X543443Y697364D01*
X546664Y696030D01*
X549130Y693564D01*
X550464Y690343D01*
X550464Y686857D01*
X549130Y683636D01*
X546664Y681170D01*
X543443Y679836D01*
X539957Y679836D01*
G37*
%LPD*%
%LPC*%
G36*
X590757Y654436D02*
X590757Y654436D01*
X587536Y655770D01*
X585070Y658236D01*
X583736Y661457D01*
X583736Y664943D01*
X585070Y668164D01*
X587536Y670630D01*
X590757Y671964D01*
X594243Y671964D01*
X597464Y670630D01*
X599930Y668164D01*
X601264Y664943D01*
X601264Y661457D01*
X599930Y658236D01*
X597464Y655770D01*
X594243Y654436D01*
X590757Y654436D01*
G37*
%LPD*%
%LPC*%
G36*
X565357Y654436D02*
X565357Y654436D01*
X562136Y655770D01*
X559670Y658236D01*
X558336Y661457D01*
X558336Y664943D01*
X559670Y668164D01*
X562136Y670630D01*
X565357Y671964D01*
X568843Y671964D01*
X572064Y670630D01*
X574530Y668164D01*
X575864Y664943D01*
X575864Y661457D01*
X574530Y658236D01*
X572064Y655770D01*
X568843Y654436D01*
X565357Y654436D01*
G37*
%LPD*%
%LPC*%
G36*
X539957Y654436D02*
X539957Y654436D01*
X536736Y655770D01*
X534270Y658236D01*
X532936Y661457D01*
X532936Y664943D01*
X534270Y668164D01*
X536736Y670630D01*
X539957Y671964D01*
X543443Y671964D01*
X546664Y670630D01*
X549130Y668164D01*
X550464Y664943D01*
X550464Y661457D01*
X549130Y658236D01*
X546664Y655770D01*
X543443Y654436D01*
X539957Y654436D01*
G37*
%LPD*%
%LPC*%
G36*
X514557Y654436D02*
X514557Y654436D01*
X511336Y655770D01*
X508870Y658236D01*
X507536Y661457D01*
X507536Y664943D01*
X508870Y668164D01*
X511336Y670630D01*
X514557Y671964D01*
X518043Y671964D01*
X521264Y670630D01*
X523730Y668164D01*
X525064Y664943D01*
X525064Y661457D01*
X523730Y658236D01*
X521264Y655770D01*
X518043Y654436D01*
X514557Y654436D01*
G37*
%LPD*%
%LPC*%
G36*
X489157Y654436D02*
X489157Y654436D01*
X485936Y655770D01*
X483470Y658236D01*
X482136Y661457D01*
X482136Y664943D01*
X483470Y668164D01*
X485936Y670630D01*
X489157Y671964D01*
X492643Y671964D01*
X495864Y670630D01*
X498330Y668164D01*
X499664Y664943D01*
X499664Y661457D01*
X498330Y658236D01*
X495864Y655770D01*
X492643Y654436D01*
X489157Y654436D01*
G37*
%LPD*%
%LPC*%
G36*
X412957Y654436D02*
X412957Y654436D01*
X409736Y655770D01*
X407270Y658236D01*
X405936Y661457D01*
X405936Y664943D01*
X407270Y668164D01*
X409736Y670630D01*
X412957Y671964D01*
X416443Y671964D01*
X419664Y670630D01*
X422130Y668164D01*
X423464Y664943D01*
X423464Y661457D01*
X422130Y658236D01*
X419664Y655770D01*
X416443Y654436D01*
X412957Y654436D01*
G37*
%LPD*%
%LPC*%
G36*
X387557Y654436D02*
X387557Y654436D01*
X384336Y655770D01*
X381870Y658236D01*
X380536Y661457D01*
X380536Y664943D01*
X381870Y668164D01*
X384336Y670630D01*
X387557Y671964D01*
X391043Y671964D01*
X394264Y670630D01*
X396730Y668164D01*
X398064Y664943D01*
X398064Y661457D01*
X396730Y658236D01*
X394264Y655770D01*
X391043Y654436D01*
X387557Y654436D01*
G37*
%LPD*%
%LPC*%
G36*
X362157Y654436D02*
X362157Y654436D01*
X358936Y655770D01*
X356470Y658236D01*
X355136Y661457D01*
X355136Y664943D01*
X356470Y668164D01*
X358936Y670630D01*
X362157Y671964D01*
X365643Y671964D01*
X368864Y670630D01*
X371330Y668164D01*
X372664Y664943D01*
X372664Y661457D01*
X371330Y658236D01*
X368864Y655770D01*
X365643Y654436D01*
X362157Y654436D01*
G37*
%LPD*%
%LPC*%
G36*
X336757Y654436D02*
X336757Y654436D01*
X333536Y655770D01*
X331070Y658236D01*
X329736Y661457D01*
X329736Y664943D01*
X331070Y668164D01*
X333536Y670630D01*
X336757Y671964D01*
X340243Y671964D01*
X343464Y670630D01*
X345930Y668164D01*
X347264Y664943D01*
X347264Y661457D01*
X345930Y658236D01*
X343464Y655770D01*
X340243Y654436D01*
X336757Y654436D01*
G37*
%LPD*%
%LPC*%
G36*
X311357Y654436D02*
X311357Y654436D01*
X308136Y655770D01*
X305670Y658236D01*
X304336Y661457D01*
X304336Y664943D01*
X305670Y668164D01*
X308136Y670630D01*
X311357Y671964D01*
X314843Y671964D01*
X318064Y670630D01*
X320530Y668164D01*
X321864Y664943D01*
X321864Y661457D01*
X320530Y658236D01*
X318064Y655770D01*
X314843Y654436D01*
X311357Y654436D01*
G37*
%LPD*%
%LPC*%
G36*
X285957Y654436D02*
X285957Y654436D01*
X282736Y655770D01*
X280270Y658236D01*
X278936Y661457D01*
X278936Y664943D01*
X280270Y668164D01*
X282736Y670630D01*
X285957Y671964D01*
X289443Y671964D01*
X292664Y670630D01*
X295130Y668164D01*
X296464Y664943D01*
X296464Y661457D01*
X295130Y658236D01*
X292664Y655770D01*
X289443Y654436D01*
X285957Y654436D01*
G37*
%LPD*%
%LPC*%
G36*
X260557Y654436D02*
X260557Y654436D01*
X257336Y655770D01*
X254870Y658236D01*
X253536Y661457D01*
X253536Y664943D01*
X254870Y668164D01*
X257336Y670630D01*
X260557Y671964D01*
X264043Y671964D01*
X267264Y670630D01*
X269730Y668164D01*
X271064Y664943D01*
X271064Y661457D01*
X269730Y658236D01*
X267264Y655770D01*
X264043Y654436D01*
X260557Y654436D01*
G37*
%LPD*%
%LPC*%
G36*
X235157Y654436D02*
X235157Y654436D01*
X231936Y655770D01*
X229470Y658236D01*
X228136Y661457D01*
X228136Y664943D01*
X229470Y668164D01*
X231936Y670630D01*
X235157Y671964D01*
X238643Y671964D01*
X241864Y670630D01*
X244330Y668164D01*
X245664Y664943D01*
X245664Y661457D01*
X244330Y658236D01*
X241864Y655770D01*
X238643Y654436D01*
X235157Y654436D01*
G37*
%LPD*%
%LPC*%
G36*
X438357Y908436D02*
X438357Y908436D01*
X435136Y909770D01*
X432670Y912236D01*
X431336Y915457D01*
X431336Y918943D01*
X432670Y922164D01*
X435136Y924630D01*
X438357Y925964D01*
X441843Y925964D01*
X445064Y924630D01*
X447530Y922164D01*
X448864Y918943D01*
X448864Y915457D01*
X447530Y912236D01*
X445064Y909770D01*
X441843Y908436D01*
X438357Y908436D01*
G37*
%LPD*%
%LPC*%
G36*
X387557Y908436D02*
X387557Y908436D01*
X384336Y909770D01*
X381870Y912236D01*
X380536Y915457D01*
X380536Y918943D01*
X381870Y922164D01*
X384336Y924630D01*
X387557Y925964D01*
X391043Y925964D01*
X394264Y924630D01*
X396730Y922164D01*
X398064Y918943D01*
X398064Y915457D01*
X396730Y912236D01*
X394264Y909770D01*
X391043Y908436D01*
X387557Y908436D01*
G37*
%LPD*%
%LPC*%
G36*
X235157Y908436D02*
X235157Y908436D01*
X231936Y909770D01*
X229470Y912236D01*
X228136Y915457D01*
X228136Y918943D01*
X229470Y922164D01*
X231936Y924630D01*
X235157Y925964D01*
X238643Y925964D01*
X241864Y924630D01*
X244330Y922164D01*
X245664Y918943D01*
X245664Y915457D01*
X244330Y912236D01*
X241864Y909770D01*
X238643Y908436D01*
X235157Y908436D01*
G37*
%LPD*%
%LPC*%
G36*
X260557Y908436D02*
X260557Y908436D01*
X257336Y909770D01*
X254870Y912236D01*
X253536Y915457D01*
X253536Y918943D01*
X254870Y922164D01*
X257336Y924630D01*
X260557Y925964D01*
X264043Y925964D01*
X267264Y924630D01*
X269730Y922164D01*
X271064Y918943D01*
X271064Y915457D01*
X269730Y912236D01*
X267264Y909770D01*
X264043Y908436D01*
X260557Y908436D01*
G37*
%LPD*%
%LPC*%
G36*
X336757Y908436D02*
X336757Y908436D01*
X333536Y909770D01*
X331070Y912236D01*
X329736Y915457D01*
X329736Y918943D01*
X331070Y922164D01*
X333536Y924630D01*
X336757Y925964D01*
X340243Y925964D01*
X343464Y924630D01*
X345930Y922164D01*
X347264Y918943D01*
X347264Y915457D01*
X345930Y912236D01*
X343464Y909770D01*
X340243Y908436D01*
X336757Y908436D01*
G37*
%LPD*%
%LPC*%
G36*
X362157Y908436D02*
X362157Y908436D01*
X358936Y909770D01*
X356470Y912236D01*
X355136Y915457D01*
X355136Y918943D01*
X356470Y922164D01*
X358936Y924630D01*
X362157Y925964D01*
X365643Y925964D01*
X368864Y924630D01*
X371330Y922164D01*
X372664Y918943D01*
X372664Y915457D01*
X371330Y912236D01*
X368864Y909770D01*
X365643Y908436D01*
X362157Y908436D01*
G37*
%LPD*%
%LPC*%
G36*
X824388Y940561D02*
X824388Y940561D01*
X822334Y941412D01*
X820762Y942984D01*
X819911Y945038D01*
X819911Y947262D01*
X820762Y949316D01*
X822334Y950888D01*
X824388Y951739D01*
X826612Y951739D01*
X828666Y950888D01*
X830238Y949316D01*
X831089Y947262D01*
X831089Y945038D01*
X830238Y942984D01*
X828666Y941412D01*
X826612Y940561D01*
X824388Y940561D01*
G37*
%LPD*%
%LPC*%
G36*
X100488Y108711D02*
X100488Y108711D01*
X98434Y109562D01*
X96862Y111134D01*
X96011Y113188D01*
X96011Y115412D01*
X96862Y117466D01*
X98434Y119038D01*
X100488Y119889D01*
X102712Y119889D01*
X104766Y119038D01*
X106338Y117466D01*
X107189Y115412D01*
X107189Y113188D01*
X106338Y111134D01*
X104766Y109562D01*
X102712Y108711D01*
X100488Y108711D01*
G37*
%LPD*%
%LPC*%
G36*
X532288Y108711D02*
X532288Y108711D01*
X530234Y109562D01*
X528662Y111134D01*
X527811Y113188D01*
X527811Y115412D01*
X528662Y117466D01*
X530234Y119038D01*
X532288Y119889D01*
X534512Y119889D01*
X536566Y119038D01*
X538138Y117466D01*
X538989Y115412D01*
X538989Y113188D01*
X538138Y111134D01*
X536566Y109562D01*
X534512Y108711D01*
X532288Y108711D01*
G37*
%LPD*%
%LPC*%
G36*
X496839Y91839D02*
X496839Y91839D01*
X496839Y101392D01*
X497190Y101337D01*
X499037Y100737D01*
X500768Y99855D01*
X502339Y98713D01*
X503713Y97339D01*
X504855Y95768D01*
X505737Y94037D01*
X506337Y92190D01*
X506392Y91839D01*
X496839Y91839D01*
G37*
%LPD*%
%LPC*%
G36*
X143239Y91839D02*
X143239Y91839D01*
X143239Y101392D01*
X143590Y101337D01*
X145437Y100737D01*
X147168Y99855D01*
X148739Y98713D01*
X150113Y97339D01*
X151255Y95768D01*
X152137Y94037D01*
X152737Y92190D01*
X152792Y91839D01*
X143239Y91839D01*
G37*
%LPD*%
%LPC*%
G36*
X268239Y91839D02*
X268239Y91839D01*
X268239Y101392D01*
X268590Y101337D01*
X270437Y100737D01*
X272168Y99855D01*
X273739Y98713D01*
X275113Y97339D01*
X276255Y95768D01*
X277137Y94037D01*
X277737Y92190D01*
X277792Y91839D01*
X268239Y91839D01*
G37*
%LPD*%
%LPC*%
G36*
X371839Y91839D02*
X371839Y91839D01*
X371839Y101392D01*
X372190Y101337D01*
X374037Y100737D01*
X375768Y99855D01*
X377339Y98713D01*
X378713Y97339D01*
X379855Y95768D01*
X380737Y94037D01*
X381337Y92190D01*
X381392Y91839D01*
X371839Y91839D01*
G37*
%LPD*%
%LPC*%
G36*
X371839Y86761D02*
X371839Y86761D01*
X381392Y86761D01*
X381337Y86410D01*
X380737Y84563D01*
X379855Y82832D01*
X378713Y81261D01*
X377339Y79887D01*
X375768Y78745D01*
X374037Y77863D01*
X372190Y77263D01*
X371839Y77208D01*
X371839Y86761D01*
G37*
%LPD*%
%LPC*%
G36*
X143239Y86761D02*
X143239Y86761D01*
X152792Y86761D01*
X152737Y86410D01*
X152137Y84563D01*
X151255Y82832D01*
X150113Y81261D01*
X148739Y79887D01*
X147168Y78745D01*
X145437Y77863D01*
X143590Y77263D01*
X143239Y77208D01*
X143239Y86761D01*
G37*
%LPD*%
%LPC*%
G36*
X128608Y91839D02*
X128608Y91839D01*
X128663Y92190D01*
X129263Y94037D01*
X130145Y95768D01*
X131287Y97339D01*
X132661Y98713D01*
X134232Y99855D01*
X135963Y100737D01*
X137810Y101337D01*
X138161Y101392D01*
X138161Y91839D01*
X128608Y91839D01*
G37*
%LPD*%
%LPC*%
G36*
X482208Y91839D02*
X482208Y91839D01*
X482263Y92190D01*
X482863Y94037D01*
X483745Y95768D01*
X484887Y97339D01*
X486261Y98713D01*
X487832Y99855D01*
X489563Y100737D01*
X491410Y101337D01*
X491761Y101392D01*
X491761Y91839D01*
X482208Y91839D01*
G37*
%LPD*%
%LPC*%
G36*
X253608Y91839D02*
X253608Y91839D01*
X253663Y92190D01*
X254263Y94037D01*
X255145Y95768D01*
X256287Y97339D01*
X257661Y98713D01*
X259232Y99855D01*
X260963Y100737D01*
X262810Y101337D01*
X263161Y101392D01*
X263161Y91839D01*
X253608Y91839D01*
G37*
%LPD*%
%LPC*%
G36*
X496839Y86761D02*
X496839Y86761D01*
X506392Y86761D01*
X506337Y86410D01*
X505737Y84563D01*
X504855Y82832D01*
X503713Y81261D01*
X502339Y79887D01*
X500768Y78745D01*
X499037Y77863D01*
X497190Y77263D01*
X496839Y77208D01*
X496839Y86761D01*
G37*
%LPD*%
%LPC*%
G36*
X357208Y91839D02*
X357208Y91839D01*
X357263Y92190D01*
X357863Y94037D01*
X358745Y95768D01*
X359887Y97339D01*
X361261Y98713D01*
X362832Y99855D01*
X364563Y100737D01*
X366410Y101337D01*
X366761Y101392D01*
X366761Y91839D01*
X357208Y91839D01*
G37*
%LPD*%
%LPC*%
G36*
X268239Y86761D02*
X268239Y86761D01*
X277792Y86761D01*
X277737Y86410D01*
X277137Y84563D01*
X276255Y82832D01*
X275113Y81261D01*
X273739Y79887D01*
X272168Y78745D01*
X270437Y77863D01*
X268590Y77263D01*
X268239Y77208D01*
X268239Y86761D01*
G37*
%LPD*%
%LPC*%
G36*
X366410Y77263D02*
X366410Y77263D01*
X364563Y77863D01*
X362832Y78745D01*
X361261Y79887D01*
X359887Y81261D01*
X358745Y82832D01*
X357863Y84563D01*
X357263Y86410D01*
X357208Y86761D01*
X366761Y86761D01*
X366761Y77208D01*
X366410Y77263D01*
G37*
%LPD*%
%LPC*%
G36*
X137810Y77263D02*
X137810Y77263D01*
X135963Y77863D01*
X134232Y78745D01*
X132661Y79887D01*
X131287Y81261D01*
X130145Y82832D01*
X129263Y84563D01*
X128663Y86410D01*
X128608Y86761D01*
X138161Y86761D01*
X138161Y77208D01*
X137810Y77263D01*
G37*
%LPD*%
%LPC*%
G36*
X491410Y77263D02*
X491410Y77263D01*
X489563Y77863D01*
X487832Y78745D01*
X486261Y79887D01*
X484887Y81261D01*
X483745Y82832D01*
X482863Y84563D01*
X482263Y86410D01*
X482208Y86761D01*
X491761Y86761D01*
X491761Y77208D01*
X491410Y77263D01*
G37*
%LPD*%
%LPC*%
G36*
X262810Y77263D02*
X262810Y77263D01*
X260963Y77863D01*
X259232Y78745D01*
X257661Y79887D01*
X256287Y81261D01*
X255145Y82832D01*
X254263Y84563D01*
X253663Y86410D01*
X253608Y86761D01*
X263161Y86761D01*
X263161Y77208D01*
X262810Y77263D01*
G37*
%LPD*%
%LPC*%
G36*
X104099Y739099D02*
X104099Y739099D01*
X104099Y745820D01*
X105262Y745442D01*
X106601Y744760D01*
X107815Y743877D01*
X108877Y742815D01*
X109760Y741601D01*
X110442Y740262D01*
X110820Y739099D01*
X104099Y739099D01*
G37*
%LPD*%
%LPC*%
G36*
X92380Y739099D02*
X92380Y739099D01*
X92758Y740262D01*
X93440Y741601D01*
X94323Y742815D01*
X95385Y743877D01*
X96599Y744760D01*
X97938Y745442D01*
X99101Y745820D01*
X99101Y739099D01*
X92380Y739099D01*
G37*
%LPD*%
%LPC*%
G36*
X104099Y734101D02*
X104099Y734101D01*
X110820Y734101D01*
X110442Y732938D01*
X109760Y731599D01*
X108877Y730385D01*
X107815Y729323D01*
X106601Y728440D01*
X105262Y727758D01*
X104099Y727380D01*
X104099Y734101D01*
G37*
%LPD*%
%LPC*%
G36*
X97938Y727758D02*
X97938Y727758D01*
X96599Y728440D01*
X95385Y729323D01*
X94323Y730385D01*
X93440Y731599D01*
X92758Y732938D01*
X92380Y734101D01*
X99101Y734101D01*
X99101Y727380D01*
X97938Y727758D01*
G37*
%LPD*%
%LPC*%
G36*
X948449Y776849D02*
X948449Y776849D01*
X948449Y783249D01*
X948770Y783186D01*
X950404Y782509D01*
X951875Y781526D01*
X953126Y780275D01*
X954109Y778804D01*
X954786Y777170D01*
X954849Y776849D01*
X948449Y776849D01*
G37*
%LPD*%
%LPC*%
G36*
X948449Y772251D02*
X948449Y772251D01*
X954849Y772251D01*
X954786Y771930D01*
X954109Y770296D01*
X953126Y768825D01*
X951875Y767574D01*
X950404Y766591D01*
X948770Y765914D01*
X948449Y765851D01*
X948449Y772251D01*
G37*
%LPD*%
%LPC*%
G36*
X937451Y776849D02*
X937451Y776849D01*
X937514Y777170D01*
X938191Y778804D01*
X939174Y780275D01*
X940425Y781526D01*
X941896Y782509D01*
X943530Y783186D01*
X943851Y783249D01*
X943851Y776849D01*
X937451Y776849D01*
G37*
%LPD*%
%LPC*%
G36*
X943530Y765914D02*
X943530Y765914D01*
X941896Y766591D01*
X940425Y767574D01*
X939174Y768825D01*
X938191Y770296D01*
X937514Y771930D01*
X937451Y772251D01*
X943851Y772251D01*
X943851Y765851D01*
X943530Y765914D01*
G37*
%LPD*%
%LPC*%
G36*
X493122Y690822D02*
X493122Y690822D01*
X493122Y697093D01*
X493456Y697027D01*
X495051Y696366D01*
X496487Y695407D01*
X497707Y694187D01*
X498666Y692751D01*
X499327Y691156D01*
X499393Y690822D01*
X493122Y690822D01*
G37*
%LPD*%
%LPC*%
G36*
X416922Y944822D02*
X416922Y944822D01*
X416922Y951093D01*
X417256Y951027D01*
X418851Y950366D01*
X420287Y949407D01*
X421507Y948187D01*
X422466Y946751D01*
X423127Y945156D01*
X423193Y944822D01*
X416922Y944822D01*
G37*
%LPD*%
%LPC*%
G36*
X416922Y919422D02*
X416922Y919422D01*
X416922Y925693D01*
X417256Y925627D01*
X418851Y924966D01*
X420287Y924007D01*
X421507Y922787D01*
X422466Y921351D01*
X423127Y919756D01*
X423193Y919422D01*
X416922Y919422D01*
G37*
%LPD*%
%LPC*%
G36*
X493122Y919422D02*
X493122Y919422D01*
X493122Y925693D01*
X493456Y925627D01*
X495051Y924966D01*
X496487Y924007D01*
X497707Y922787D01*
X498666Y921351D01*
X499327Y919756D01*
X499393Y919422D01*
X493122Y919422D01*
G37*
%LPD*%
%LPC*%
G36*
X416922Y690822D02*
X416922Y690822D01*
X416922Y697093D01*
X417256Y697027D01*
X418851Y696366D01*
X420287Y695407D01*
X421507Y694187D01*
X422466Y692751D01*
X423127Y691156D01*
X423193Y690822D01*
X416922Y690822D01*
G37*
%LPD*%
%LPC*%
G36*
X482407Y690822D02*
X482407Y690822D01*
X482473Y691156D01*
X483134Y692751D01*
X484093Y694187D01*
X485313Y695407D01*
X486749Y696366D01*
X488344Y697027D01*
X488678Y697093D01*
X488678Y690822D01*
X482407Y690822D01*
G37*
%LPD*%
%LPC*%
G36*
X406207Y690822D02*
X406207Y690822D01*
X406273Y691156D01*
X406934Y692751D01*
X407893Y694187D01*
X409113Y695407D01*
X410549Y696366D01*
X412144Y697027D01*
X412478Y697093D01*
X412478Y690822D01*
X406207Y690822D01*
G37*
%LPD*%
%LPC*%
G36*
X406207Y944822D02*
X406207Y944822D01*
X406273Y945156D01*
X406934Y946751D01*
X407893Y948187D01*
X409113Y949407D01*
X410549Y950366D01*
X412144Y951027D01*
X412478Y951093D01*
X412478Y944822D01*
X406207Y944822D01*
G37*
%LPD*%
%LPC*%
G36*
X416922Y914978D02*
X416922Y914978D01*
X423193Y914978D01*
X423127Y914644D01*
X422466Y913049D01*
X421507Y911613D01*
X420287Y910393D01*
X418851Y909434D01*
X417256Y908773D01*
X416922Y908707D01*
X416922Y914978D01*
G37*
%LPD*%
%LPC*%
G36*
X493122Y686378D02*
X493122Y686378D01*
X499393Y686378D01*
X499327Y686044D01*
X498666Y684449D01*
X497707Y683013D01*
X496487Y681793D01*
X495051Y680834D01*
X493456Y680173D01*
X493122Y680107D01*
X493122Y686378D01*
G37*
%LPD*%
%LPC*%
G36*
X416922Y940378D02*
X416922Y940378D01*
X423193Y940378D01*
X423127Y940044D01*
X422466Y938449D01*
X421507Y937013D01*
X420287Y935793D01*
X418851Y934834D01*
X417256Y934173D01*
X416922Y934107D01*
X416922Y940378D01*
G37*
%LPD*%
%LPC*%
G36*
X406207Y919422D02*
X406207Y919422D01*
X406273Y919756D01*
X406934Y921351D01*
X407893Y922787D01*
X409113Y924007D01*
X410549Y924966D01*
X412144Y925627D01*
X412478Y925693D01*
X412478Y919422D01*
X406207Y919422D01*
G37*
%LPD*%
%LPC*%
G36*
X482407Y919422D02*
X482407Y919422D01*
X482473Y919756D01*
X483134Y921351D01*
X484093Y922787D01*
X485313Y924007D01*
X486749Y924966D01*
X488344Y925627D01*
X488678Y925693D01*
X488678Y919422D01*
X482407Y919422D01*
G37*
%LPD*%
%LPC*%
G36*
X416922Y686378D02*
X416922Y686378D01*
X423193Y686378D01*
X423127Y686044D01*
X422466Y684449D01*
X421507Y683013D01*
X420287Y681793D01*
X418851Y680834D01*
X417256Y680173D01*
X416922Y680107D01*
X416922Y686378D01*
G37*
%LPD*%
%LPC*%
G36*
X493122Y914978D02*
X493122Y914978D01*
X499393Y914978D01*
X499327Y914644D01*
X498666Y913049D01*
X497707Y911613D01*
X496487Y910393D01*
X495051Y909434D01*
X493456Y908773D01*
X493122Y908707D01*
X493122Y914978D01*
G37*
%LPD*%
%LPC*%
G36*
X412144Y934173D02*
X412144Y934173D01*
X410549Y934834D01*
X409113Y935793D01*
X407893Y937013D01*
X406934Y938449D01*
X406273Y940044D01*
X406207Y940378D01*
X412478Y940378D01*
X412478Y934107D01*
X412144Y934173D01*
G37*
%LPD*%
%LPC*%
G36*
X488344Y680173D02*
X488344Y680173D01*
X486749Y680834D01*
X485313Y681793D01*
X484093Y683013D01*
X483134Y684449D01*
X482473Y686044D01*
X482407Y686378D01*
X488678Y686378D01*
X488678Y680107D01*
X488344Y680173D01*
G37*
%LPD*%
%LPC*%
G36*
X412144Y680173D02*
X412144Y680173D01*
X410549Y680834D01*
X409113Y681793D01*
X407893Y683013D01*
X406934Y684449D01*
X406273Y686044D01*
X406207Y686378D01*
X412478Y686378D01*
X412478Y680107D01*
X412144Y680173D01*
G37*
%LPD*%
%LPC*%
G36*
X412144Y908773D02*
X412144Y908773D01*
X410549Y909434D01*
X409113Y910393D01*
X407893Y911613D01*
X406934Y913049D01*
X406273Y914644D01*
X406207Y914978D01*
X412478Y914978D01*
X412478Y908707D01*
X412144Y908773D01*
G37*
%LPD*%
%LPC*%
G36*
X488344Y908773D02*
X488344Y908773D01*
X486749Y909434D01*
X485313Y910393D01*
X484093Y911613D01*
X483134Y913049D01*
X482473Y914644D01*
X482407Y914978D01*
X488678Y914978D01*
X488678Y908707D01*
X488344Y908773D01*
G37*
%LPD*%
%LPC*%
G36*
X494299Y89299D02*
X494299Y89299D01*
X494299Y89301D01*
X494301Y89301D01*
X494301Y89299D01*
X494299Y89299D01*
G37*
%LPD*%
%LPC*%
G36*
X140699Y89299D02*
X140699Y89299D01*
X140699Y89301D01*
X140701Y89301D01*
X140701Y89299D01*
X140699Y89299D01*
G37*
%LPD*%
%LPC*%
G36*
X369299Y89299D02*
X369299Y89299D01*
X369299Y89301D01*
X369301Y89301D01*
X369301Y89299D01*
X369299Y89299D01*
G37*
%LPD*%
%LPC*%
G36*
X265699Y89299D02*
X265699Y89299D01*
X265699Y89301D01*
X265701Y89301D01*
X265701Y89299D01*
X265699Y89299D01*
G37*
%LPD*%
D10*
X236900Y942600D03*
X236900Y917200D03*
X262300Y942600D03*
X262300Y917200D03*
X287700Y942600D03*
X287700Y917200D03*
X313100Y942600D03*
X313100Y917200D03*
X338500Y942600D03*
X338500Y917200D03*
X363900Y942600D03*
X363900Y917200D03*
X389300Y942600D03*
X389300Y917200D03*
X414700Y942600D03*
X414700Y917200D03*
X440100Y942600D03*
X440100Y917200D03*
X465500Y942600D03*
X465500Y917200D03*
X490900Y942600D03*
X490900Y917200D03*
X516300Y942600D03*
X516300Y917200D03*
X541700Y942600D03*
X541700Y917200D03*
X567100Y942600D03*
X567100Y917200D03*
X592500Y942600D03*
X592500Y917200D03*
X617900Y942600D03*
X617900Y917200D03*
X643300Y942600D03*
X643300Y917200D03*
X668700Y942600D03*
X668700Y917200D03*
X236900Y688600D03*
X236900Y663200D03*
X262300Y688600D03*
X262300Y663200D03*
X287700Y688600D03*
X287700Y663200D03*
X313100Y688600D03*
X313100Y663200D03*
X338500Y688600D03*
X338500Y663200D03*
X363900Y688600D03*
X363900Y663200D03*
X389300Y688600D03*
X389300Y663200D03*
X414700Y688600D03*
X414700Y663200D03*
X440100Y688600D03*
X440100Y663200D03*
X465500Y688600D03*
X465500Y663200D03*
X490900Y688600D03*
X490900Y663200D03*
X516300Y688600D03*
X516300Y663200D03*
X541700Y688600D03*
X541700Y663200D03*
X567100Y688600D03*
X567100Y663200D03*
X592500Y688600D03*
X592500Y663200D03*
X617900Y688600D03*
X617900Y663200D03*
X643300Y688600D03*
X643300Y663200D03*
X668700Y688600D03*
X668700Y663200D03*
D11*
X787000Y419100D03*
X762000Y419100D03*
X737000Y419100D03*
X914800Y419100D03*
X939800Y419100D03*
X964800Y419100D03*
D12*
X265700Y139300D03*
X265700Y89300D03*
X140700Y89300D03*
X140700Y139300D03*
X494300Y139300D03*
X494300Y89300D03*
X369300Y89300D03*
X369300Y139300D03*
D11*
X101600Y736600D03*
X101600Y711200D03*
X101600Y685800D03*
X101600Y660400D03*
X101600Y635000D03*
X101600Y609600D03*
X101600Y584200D03*
X101600Y558800D03*
X101600Y533400D03*
X101600Y508000D03*
X101600Y482600D03*
X101600Y457200D03*
X101600Y431800D03*
X101600Y406400D03*
X101600Y381000D03*
X101600Y355600D03*
X101600Y330200D03*
X101600Y304800D03*
X101600Y279400D03*
X101600Y254000D03*
D13*
X101600Y781050D03*
X101600Y209550D03*
X863600Y781050D03*
X863600Y209550D03*
D14*
X946150Y844550D03*
X946150Y819550D03*
X946150Y799550D03*
X946150Y774550D03*
D15*
X973250Y875250D03*
X973250Y743850D03*
D16*
X38100Y38100D03*
X38100Y977900D03*
X1231900Y977900D03*
X1231900Y38100D03*
D17*
X825500Y914400D03*
X825500Y889000D03*
X1212850Y139700D03*
X920750Y781050D03*
X76200Y736600D03*
X825500Y946150D03*
X533400Y114300D03*
X101600Y114300D03*
M02*
