G04 EAGLE Gerber RS-274X export*
G75*
%MOMM*%
%FSLAX34Y34*%
%LPD*%
%INBottom Copper*%
%IPPOS*%
%AMOC8*
5,1,8,0,0,1.08239X$1,22.5*%
G01*
%ADD10R,1.524000X1.524000*%
%ADD11P,1.649562X8X22.500000*%
%ADD12C,1.400000*%
%ADD13C,1.960000*%
%ADD14R,1.676400X1.676400*%
%ADD15C,1.676400*%
%ADD16C,4.016000*%
%ADD17R,1.288000X1.288000*%
%ADD18C,1.288000*%
%ADD19C,3.220000*%
%ADD20C,4.445000*%
%ADD21C,1.016000*%
%ADD22C,0.609600*%
%ADD23C,0.254000*%
%ADD24C,0.635000*%


D10*
X236900Y942600D03*
D11*
X236900Y917200D03*
X262300Y942600D03*
X262300Y917200D03*
X287700Y942600D03*
X287700Y917200D03*
X313100Y942600D03*
X313100Y917200D03*
X338500Y942600D03*
X338500Y917200D03*
X363900Y942600D03*
X363900Y917200D03*
X389300Y942600D03*
X389300Y917200D03*
X414700Y942600D03*
X414700Y917200D03*
X440100Y942600D03*
X440100Y917200D03*
X465500Y942600D03*
X465500Y917200D03*
X490900Y942600D03*
X490900Y917200D03*
X516300Y942600D03*
X516300Y917200D03*
X541700Y942600D03*
X541700Y917200D03*
X567100Y942600D03*
X567100Y917200D03*
X592500Y942600D03*
X592500Y917200D03*
X617900Y942600D03*
X617900Y917200D03*
X643300Y942600D03*
X643300Y917200D03*
X668700Y942600D03*
X668700Y917200D03*
D10*
X236900Y688600D03*
D11*
X236900Y663200D03*
X262300Y688600D03*
X262300Y663200D03*
X287700Y688600D03*
X287700Y663200D03*
X313100Y688600D03*
X313100Y663200D03*
X338500Y688600D03*
X338500Y663200D03*
X363900Y688600D03*
X363900Y663200D03*
X389300Y688600D03*
X389300Y663200D03*
X414700Y688600D03*
X414700Y663200D03*
X440100Y688600D03*
X440100Y663200D03*
X465500Y688600D03*
X465500Y663200D03*
X490900Y688600D03*
X490900Y663200D03*
X516300Y688600D03*
X516300Y663200D03*
X541700Y688600D03*
X541700Y663200D03*
X567100Y688600D03*
X567100Y663200D03*
X592500Y688600D03*
X592500Y663200D03*
X617900Y688600D03*
X617900Y663200D03*
X643300Y688600D03*
X643300Y663200D03*
X668700Y688600D03*
X668700Y663200D03*
D12*
X787000Y419100D03*
X762000Y419100D03*
X737000Y419100D03*
X914800Y419100D03*
X939800Y419100D03*
X964800Y419100D03*
D13*
X265700Y139300D03*
X265700Y89300D03*
X140700Y89300D03*
X140700Y139300D03*
X494300Y139300D03*
X494300Y89300D03*
X369300Y89300D03*
X369300Y139300D03*
D14*
X101600Y736600D03*
D15*
X101600Y711200D03*
X101600Y685800D03*
X101600Y660400D03*
X101600Y635000D03*
X101600Y609600D03*
X101600Y584200D03*
X101600Y558800D03*
X101600Y533400D03*
X101600Y508000D03*
X101600Y482600D03*
X101600Y457200D03*
X101600Y431800D03*
X101600Y406400D03*
X101600Y381000D03*
X101600Y355600D03*
X101600Y330200D03*
X101600Y304800D03*
X101600Y279400D03*
X101600Y254000D03*
D16*
X101600Y781050D03*
X101600Y209550D03*
X863600Y781050D03*
X863600Y209550D03*
D17*
X946150Y844550D03*
D18*
X946150Y819550D03*
X946150Y799550D03*
X946150Y774550D03*
D19*
X973250Y875250D03*
X973250Y743850D03*
D20*
X38100Y38100D03*
X38100Y977900D03*
X1231900Y977900D03*
X1231900Y38100D03*
D21*
X38100Y88900D03*
X38100Y927100D03*
X1231900Y88900D03*
D22*
X825500Y914400D03*
X825500Y889000D03*
X1212850Y139700D03*
D23*
X946150Y774550D02*
X927250Y774550D01*
X920750Y781050D01*
D22*
X920750Y781050D03*
X76200Y736600D03*
X825500Y946150D03*
X533400Y114300D03*
X101600Y114300D03*
D24*
X389300Y688600D02*
X389300Y757600D01*
X516300Y884600D02*
X516300Y917200D01*
X516300Y884600D02*
X389300Y757600D01*
D23*
X822659Y882142D02*
X826008Y882142D01*
X347736Y942600D02*
X338500Y942600D01*
X347736Y942600D02*
X364246Y959110D01*
X745691Y959110D01*
X822659Y882142D01*
X889000Y819150D02*
X945750Y819150D01*
X946150Y819550D01*
X889000Y819150D02*
X826008Y882142D01*
X373136Y942600D02*
X363900Y942600D01*
X373136Y942600D02*
X384566Y954030D01*
X735070Y954030D01*
X889550Y799550D02*
X946150Y799550D01*
X889550Y799550D02*
X735070Y954030D01*
M02*
