G04 EAGLE Gerber RS-274X export*
G75*
%MOMM*%
%FSLAX34Y34*%
%LPD*%
%IN*%
%IPPOS*%
%AMOC8*
5,1,8,0,0,1.08239X$1,22.5*%
G01*
%ADD10C,0.254000*%


D10*
X0Y0D02*
X1269800Y0D01*
X1270000Y1016000D01*
X0Y1016000D01*
X0Y0D01*
X799500Y349591D02*
X799577Y350570D01*
X799731Y351541D01*
X799960Y352496D01*
X800264Y353430D01*
X800639Y354337D01*
X801085Y355212D01*
X801599Y356050D01*
X802176Y356845D01*
X802814Y357592D01*
X803508Y358286D01*
X804255Y358924D01*
X805050Y359501D01*
X805888Y360015D01*
X806763Y360461D01*
X807670Y360836D01*
X808604Y361140D01*
X809560Y361369D01*
X810530Y361523D01*
X811509Y361600D01*
X812491Y361600D01*
X813470Y361523D01*
X814441Y361369D01*
X815396Y361140D01*
X816330Y360836D01*
X817237Y360461D01*
X818112Y360015D01*
X818950Y359501D01*
X819745Y358924D01*
X820492Y358286D01*
X821186Y357592D01*
X821824Y356845D01*
X822401Y356050D01*
X822915Y355212D01*
X823361Y354337D01*
X823736Y353430D01*
X824040Y352496D01*
X824269Y351541D01*
X824423Y350570D01*
X824500Y349591D01*
X824500Y348609D01*
X824423Y347630D01*
X824269Y346660D01*
X824040Y345704D01*
X823736Y344770D01*
X823361Y343863D01*
X822915Y342988D01*
X822401Y342150D01*
X821824Y341355D01*
X821186Y340608D01*
X820492Y339914D01*
X819745Y339276D01*
X818950Y338699D01*
X818112Y338185D01*
X817237Y337739D01*
X816330Y337364D01*
X815396Y337060D01*
X814441Y336831D01*
X813470Y336677D01*
X812491Y336600D01*
X811509Y336600D01*
X810530Y336677D01*
X809560Y336831D01*
X808604Y337060D01*
X807670Y337364D01*
X806763Y337739D01*
X805888Y338185D01*
X805050Y338699D01*
X804255Y339276D01*
X803508Y339914D01*
X802814Y340608D01*
X802176Y341355D01*
X801599Y342150D01*
X801085Y342988D01*
X800639Y343863D01*
X800264Y344770D01*
X799960Y345704D01*
X799731Y346660D01*
X799577Y347630D01*
X799500Y348609D01*
X799500Y349591D01*
X699500Y349591D02*
X699577Y350570D01*
X699731Y351541D01*
X699960Y352496D01*
X700264Y353430D01*
X700639Y354337D01*
X701085Y355212D01*
X701599Y356050D01*
X702176Y356845D01*
X702814Y357592D01*
X703508Y358286D01*
X704255Y358924D01*
X705050Y359501D01*
X705888Y360015D01*
X706763Y360461D01*
X707670Y360836D01*
X708604Y361140D01*
X709560Y361369D01*
X710530Y361523D01*
X711509Y361600D01*
X712491Y361600D01*
X713470Y361523D01*
X714441Y361369D01*
X715396Y361140D01*
X716330Y360836D01*
X717237Y360461D01*
X718112Y360015D01*
X718950Y359501D01*
X719745Y358924D01*
X720492Y358286D01*
X721186Y357592D01*
X721824Y356845D01*
X722401Y356050D01*
X722915Y355212D01*
X723361Y354337D01*
X723736Y353430D01*
X724040Y352496D01*
X724269Y351541D01*
X724423Y350570D01*
X724500Y349591D01*
X724500Y348609D01*
X724423Y347630D01*
X724269Y346660D01*
X724040Y345704D01*
X723736Y344770D01*
X723361Y343863D01*
X722915Y342988D01*
X722401Y342150D01*
X721824Y341355D01*
X721186Y340608D01*
X720492Y339914D01*
X719745Y339276D01*
X718950Y338699D01*
X718112Y338185D01*
X717237Y337739D01*
X716330Y337364D01*
X715396Y337060D01*
X714441Y336831D01*
X713470Y336677D01*
X712491Y336600D01*
X711509Y336600D01*
X710530Y336677D01*
X709560Y336831D01*
X708604Y337060D01*
X707670Y337364D01*
X706763Y337739D01*
X705888Y338185D01*
X705050Y338699D01*
X704255Y339276D01*
X703508Y339914D01*
X702814Y340608D01*
X702176Y341355D01*
X701599Y342150D01*
X701085Y342988D01*
X700639Y343863D01*
X700264Y344770D01*
X699960Y345704D01*
X699731Y346660D01*
X699577Y347630D01*
X699500Y348609D01*
X699500Y349591D01*
X902300Y349591D02*
X902223Y350570D01*
X902069Y351541D01*
X901840Y352496D01*
X901536Y353430D01*
X901161Y354337D01*
X900715Y355212D01*
X900201Y356050D01*
X899624Y356845D01*
X898986Y357592D01*
X898292Y358286D01*
X897545Y358924D01*
X896750Y359501D01*
X895912Y360015D01*
X895037Y360461D01*
X894130Y360836D01*
X893196Y361140D01*
X892241Y361369D01*
X891270Y361523D01*
X890291Y361600D01*
X889309Y361600D01*
X888330Y361523D01*
X887360Y361369D01*
X886404Y361140D01*
X885470Y360836D01*
X884563Y360461D01*
X883688Y360015D01*
X882850Y359501D01*
X882055Y358924D01*
X881308Y358286D01*
X880614Y357592D01*
X879976Y356845D01*
X879399Y356050D01*
X878885Y355212D01*
X878439Y354337D01*
X878064Y353430D01*
X877760Y352496D01*
X877531Y351541D01*
X877377Y350570D01*
X877300Y349591D01*
X877300Y348609D01*
X877377Y347630D01*
X877531Y346660D01*
X877760Y345704D01*
X878064Y344770D01*
X878439Y343863D01*
X878885Y342988D01*
X879399Y342150D01*
X879976Y341355D01*
X880614Y340608D01*
X881308Y339914D01*
X882055Y339276D01*
X882850Y338699D01*
X883688Y338185D01*
X884563Y337739D01*
X885470Y337364D01*
X886404Y337060D01*
X887360Y336831D01*
X888330Y336677D01*
X889309Y336600D01*
X890291Y336600D01*
X891270Y336677D01*
X892241Y336831D01*
X893196Y337060D01*
X894130Y337364D01*
X895037Y337739D01*
X895912Y338185D01*
X896750Y338699D01*
X897545Y339276D01*
X898292Y339914D01*
X898986Y340608D01*
X899624Y341355D01*
X900201Y342150D01*
X900715Y342988D01*
X901161Y343863D01*
X901536Y344770D01*
X901840Y345704D01*
X902069Y346660D01*
X902223Y347630D01*
X902300Y348609D01*
X902300Y349591D01*
X1002300Y349591D02*
X1002223Y350570D01*
X1002069Y351541D01*
X1001840Y352496D01*
X1001536Y353430D01*
X1001161Y354337D01*
X1000715Y355212D01*
X1000201Y356050D01*
X999624Y356845D01*
X998986Y357592D01*
X998292Y358286D01*
X997545Y358924D01*
X996750Y359501D01*
X995912Y360015D01*
X995037Y360461D01*
X994130Y360836D01*
X993196Y361140D01*
X992241Y361369D01*
X991270Y361523D01*
X990291Y361600D01*
X989309Y361600D01*
X988330Y361523D01*
X987360Y361369D01*
X986404Y361140D01*
X985470Y360836D01*
X984563Y360461D01*
X983688Y360015D01*
X982850Y359501D01*
X982055Y358924D01*
X981308Y358286D01*
X980614Y357592D01*
X979976Y356845D01*
X979399Y356050D01*
X978885Y355212D01*
X978439Y354337D01*
X978064Y353430D01*
X977760Y352496D01*
X977531Y351541D01*
X977377Y350570D01*
X977300Y349591D01*
X977300Y348609D01*
X977377Y347630D01*
X977531Y346660D01*
X977760Y345704D01*
X978064Y344770D01*
X978439Y343863D01*
X978885Y342988D01*
X979399Y342150D01*
X979976Y341355D01*
X980614Y340608D01*
X981308Y339914D01*
X982055Y339276D01*
X982850Y338699D01*
X983688Y338185D01*
X984563Y337739D01*
X985470Y337364D01*
X986404Y337060D01*
X987360Y336831D01*
X988330Y336677D01*
X989309Y336600D01*
X990291Y336600D01*
X991270Y336677D01*
X992241Y336831D01*
X993196Y337060D01*
X994130Y337364D01*
X995037Y337739D01*
X995912Y338185D01*
X996750Y338699D01*
X997545Y339276D01*
X998292Y339914D01*
X998986Y340608D01*
X999624Y341355D01*
X1000201Y342150D01*
X1000715Y342988D01*
X1001161Y343863D01*
X1001536Y344770D01*
X1001840Y345704D01*
X1002069Y346660D01*
X1002223Y347630D01*
X1002300Y348609D01*
X1002300Y349591D01*
M02*
