G04 EAGLE Gerber RS-274X export*
G75*
%MOMM*%
%FSLAX34Y34*%
%LPD*%
%INSoldermask Top*%
%IPPOS*%
%AMOC8*
5,1,8,0,0,1.08239X$1,22.5*%
G01*
%ADD10R,1.676400X1.676400*%
%ADD11P,1.814519X8X22.500000*%
%ADD12R,0.952400X0.952400*%
%ADD13C,1.552400*%
%ADD14C,2.652400*%
%ADD15C,2.112400*%
%ADD16R,1.828800X1.828800*%
%ADD17C,1.828800*%
%ADD18C,4.168400*%
%ADD19R,1.183641X1.102359*%
%ADD20R,1.440400X1.440400*%
%ADD21C,1.440400*%
%ADD22C,3.372400*%
%ADD23C,4.597400*%
%ADD24C,0.609600*%
%ADD25C,1.168400*%
%ADD26R,1.295400X1.422400*%


D10*
X236900Y942600D03*
D11*
X236900Y917200D03*
X262300Y942600D03*
X262300Y917200D03*
X287700Y942600D03*
X287700Y917200D03*
X313100Y942600D03*
X313100Y917200D03*
X338500Y942600D03*
X338500Y917200D03*
X363900Y942600D03*
X363900Y917200D03*
X389300Y942600D03*
X389300Y917200D03*
X414700Y942600D03*
X414700Y917200D03*
X440100Y942600D03*
X440100Y917200D03*
X465500Y942600D03*
X465500Y917200D03*
X490900Y942600D03*
X490900Y917200D03*
X516300Y942600D03*
X516300Y917200D03*
X541700Y942600D03*
X541700Y917200D03*
X567100Y942600D03*
X567100Y917200D03*
X592500Y942600D03*
X592500Y917200D03*
X617900Y942600D03*
X617900Y917200D03*
X643300Y942600D03*
X643300Y917200D03*
X668700Y942600D03*
X668700Y917200D03*
D10*
X236900Y688600D03*
D11*
X236900Y663200D03*
X262300Y688600D03*
X262300Y663200D03*
X287700Y688600D03*
X287700Y663200D03*
X313100Y688600D03*
X313100Y663200D03*
X338500Y688600D03*
X338500Y663200D03*
X363900Y688600D03*
X363900Y663200D03*
X389300Y688600D03*
X389300Y663200D03*
X414700Y688600D03*
X414700Y663200D03*
X440100Y688600D03*
X440100Y663200D03*
X465500Y688600D03*
X465500Y663200D03*
X490900Y688600D03*
X490900Y663200D03*
X516300Y688600D03*
X516300Y663200D03*
X541700Y688600D03*
X541700Y663200D03*
X567100Y688600D03*
X567100Y663200D03*
X592500Y688600D03*
X592500Y663200D03*
X617900Y688600D03*
X617900Y663200D03*
X643300Y688600D03*
X643300Y663200D03*
X668700Y688600D03*
X668700Y663200D03*
D12*
X792600Y946150D03*
X807600Y946150D03*
X792600Y914400D03*
X807600Y914400D03*
X792600Y889000D03*
X807600Y889000D03*
D13*
X787000Y419100D03*
X762000Y419100D03*
X737000Y419100D03*
D14*
X812000Y349100D03*
X712000Y349100D03*
D13*
X914800Y419100D03*
X939800Y419100D03*
X964800Y419100D03*
D14*
X889800Y349100D03*
X989800Y349100D03*
D15*
X265700Y139300D03*
X265700Y89300D03*
X140700Y89300D03*
X140700Y139300D03*
X494300Y139300D03*
X494300Y89300D03*
X369300Y89300D03*
X369300Y139300D03*
D16*
X101600Y736600D03*
D17*
X101600Y711200D03*
X101600Y685800D03*
X101600Y660400D03*
X101600Y635000D03*
X101600Y609600D03*
X101600Y584200D03*
X101600Y558800D03*
X101600Y533400D03*
X101600Y508000D03*
X101600Y482600D03*
X101600Y457200D03*
X101600Y431800D03*
X101600Y406400D03*
X101600Y381000D03*
X101600Y355600D03*
X101600Y330200D03*
X101600Y304800D03*
X101600Y279400D03*
X101600Y254000D03*
D18*
X101600Y781050D03*
X101600Y209550D03*
X863600Y781050D03*
X863600Y209550D03*
D19*
X101600Y131699D03*
X101600Y147701D03*
X533400Y131699D03*
X533400Y147701D03*
D20*
X946150Y844550D03*
D21*
X946150Y819550D03*
X946150Y799550D03*
X946150Y774550D03*
D22*
X973250Y875250D03*
X973250Y743850D03*
D23*
X38100Y38100D03*
X38100Y977900D03*
D24*
X30480Y88900D02*
X30482Y89087D01*
X30489Y89274D01*
X30501Y89461D01*
X30517Y89647D01*
X30537Y89833D01*
X30562Y90018D01*
X30592Y90203D01*
X30626Y90387D01*
X30665Y90570D01*
X30708Y90752D01*
X30756Y90932D01*
X30808Y91112D01*
X30865Y91290D01*
X30925Y91467D01*
X30991Y91642D01*
X31060Y91816D01*
X31134Y91988D01*
X31212Y92158D01*
X31294Y92326D01*
X31380Y92492D01*
X31470Y92656D01*
X31564Y92817D01*
X31662Y92977D01*
X31764Y93133D01*
X31870Y93288D01*
X31980Y93439D01*
X32093Y93588D01*
X32210Y93734D01*
X32330Y93877D01*
X32454Y94017D01*
X32581Y94154D01*
X32712Y94288D01*
X32846Y94419D01*
X32983Y94546D01*
X33123Y94670D01*
X33266Y94790D01*
X33412Y94907D01*
X33561Y95020D01*
X33712Y95130D01*
X33867Y95236D01*
X34023Y95338D01*
X34183Y95436D01*
X34344Y95530D01*
X34508Y95620D01*
X34674Y95706D01*
X34842Y95788D01*
X35012Y95866D01*
X35184Y95940D01*
X35358Y96009D01*
X35533Y96075D01*
X35710Y96135D01*
X35888Y96192D01*
X36068Y96244D01*
X36248Y96292D01*
X36430Y96335D01*
X36613Y96374D01*
X36797Y96408D01*
X36982Y96438D01*
X37167Y96463D01*
X37353Y96483D01*
X37539Y96499D01*
X37726Y96511D01*
X37913Y96518D01*
X38100Y96520D01*
X38287Y96518D01*
X38474Y96511D01*
X38661Y96499D01*
X38847Y96483D01*
X39033Y96463D01*
X39218Y96438D01*
X39403Y96408D01*
X39587Y96374D01*
X39770Y96335D01*
X39952Y96292D01*
X40132Y96244D01*
X40312Y96192D01*
X40490Y96135D01*
X40667Y96075D01*
X40842Y96009D01*
X41016Y95940D01*
X41188Y95866D01*
X41358Y95788D01*
X41526Y95706D01*
X41692Y95620D01*
X41856Y95530D01*
X42017Y95436D01*
X42177Y95338D01*
X42333Y95236D01*
X42488Y95130D01*
X42639Y95020D01*
X42788Y94907D01*
X42934Y94790D01*
X43077Y94670D01*
X43217Y94546D01*
X43354Y94419D01*
X43488Y94288D01*
X43619Y94154D01*
X43746Y94017D01*
X43870Y93877D01*
X43990Y93734D01*
X44107Y93588D01*
X44220Y93439D01*
X44330Y93288D01*
X44436Y93133D01*
X44538Y92977D01*
X44636Y92817D01*
X44730Y92656D01*
X44820Y92492D01*
X44906Y92326D01*
X44988Y92158D01*
X45066Y91988D01*
X45140Y91816D01*
X45209Y91642D01*
X45275Y91467D01*
X45335Y91290D01*
X45392Y91112D01*
X45444Y90932D01*
X45492Y90752D01*
X45535Y90570D01*
X45574Y90387D01*
X45608Y90203D01*
X45638Y90018D01*
X45663Y89833D01*
X45683Y89647D01*
X45699Y89461D01*
X45711Y89274D01*
X45718Y89087D01*
X45720Y88900D01*
X45718Y88713D01*
X45711Y88526D01*
X45699Y88339D01*
X45683Y88153D01*
X45663Y87967D01*
X45638Y87782D01*
X45608Y87597D01*
X45574Y87413D01*
X45535Y87230D01*
X45492Y87048D01*
X45444Y86868D01*
X45392Y86688D01*
X45335Y86510D01*
X45275Y86333D01*
X45209Y86158D01*
X45140Y85984D01*
X45066Y85812D01*
X44988Y85642D01*
X44906Y85474D01*
X44820Y85308D01*
X44730Y85144D01*
X44636Y84983D01*
X44538Y84823D01*
X44436Y84667D01*
X44330Y84512D01*
X44220Y84361D01*
X44107Y84212D01*
X43990Y84066D01*
X43870Y83923D01*
X43746Y83783D01*
X43619Y83646D01*
X43488Y83512D01*
X43354Y83381D01*
X43217Y83254D01*
X43077Y83130D01*
X42934Y83010D01*
X42788Y82893D01*
X42639Y82780D01*
X42488Y82670D01*
X42333Y82564D01*
X42177Y82462D01*
X42017Y82364D01*
X41856Y82270D01*
X41692Y82180D01*
X41526Y82094D01*
X41358Y82012D01*
X41188Y81934D01*
X41016Y81860D01*
X40842Y81791D01*
X40667Y81725D01*
X40490Y81665D01*
X40312Y81608D01*
X40132Y81556D01*
X39952Y81508D01*
X39770Y81465D01*
X39587Y81426D01*
X39403Y81392D01*
X39218Y81362D01*
X39033Y81337D01*
X38847Y81317D01*
X38661Y81301D01*
X38474Y81289D01*
X38287Y81282D01*
X38100Y81280D01*
X37913Y81282D01*
X37726Y81289D01*
X37539Y81301D01*
X37353Y81317D01*
X37167Y81337D01*
X36982Y81362D01*
X36797Y81392D01*
X36613Y81426D01*
X36430Y81465D01*
X36248Y81508D01*
X36068Y81556D01*
X35888Y81608D01*
X35710Y81665D01*
X35533Y81725D01*
X35358Y81791D01*
X35184Y81860D01*
X35012Y81934D01*
X34842Y82012D01*
X34674Y82094D01*
X34508Y82180D01*
X34344Y82270D01*
X34183Y82364D01*
X34023Y82462D01*
X33867Y82564D01*
X33712Y82670D01*
X33561Y82780D01*
X33412Y82893D01*
X33266Y83010D01*
X33123Y83130D01*
X32983Y83254D01*
X32846Y83381D01*
X32712Y83512D01*
X32581Y83646D01*
X32454Y83783D01*
X32330Y83923D01*
X32210Y84066D01*
X32093Y84212D01*
X31980Y84361D01*
X31870Y84512D01*
X31764Y84667D01*
X31662Y84823D01*
X31564Y84983D01*
X31470Y85144D01*
X31380Y85308D01*
X31294Y85474D01*
X31212Y85642D01*
X31134Y85812D01*
X31060Y85984D01*
X30991Y86158D01*
X30925Y86333D01*
X30865Y86510D01*
X30808Y86688D01*
X30756Y86868D01*
X30708Y87048D01*
X30665Y87230D01*
X30626Y87413D01*
X30592Y87597D01*
X30562Y87782D01*
X30537Y87967D01*
X30517Y88153D01*
X30501Y88339D01*
X30489Y88526D01*
X30482Y88713D01*
X30480Y88900D01*
D25*
X38100Y88900D03*
D26*
X1229360Y139700D03*
X1247140Y139700D03*
D23*
X1231900Y977900D03*
X1231900Y38100D03*
D24*
X30480Y927100D02*
X30482Y927287D01*
X30489Y927474D01*
X30501Y927661D01*
X30517Y927847D01*
X30537Y928033D01*
X30562Y928218D01*
X30592Y928403D01*
X30626Y928587D01*
X30665Y928770D01*
X30708Y928952D01*
X30756Y929132D01*
X30808Y929312D01*
X30865Y929490D01*
X30925Y929667D01*
X30991Y929842D01*
X31060Y930016D01*
X31134Y930188D01*
X31212Y930358D01*
X31294Y930526D01*
X31380Y930692D01*
X31470Y930856D01*
X31564Y931017D01*
X31662Y931177D01*
X31764Y931333D01*
X31870Y931488D01*
X31980Y931639D01*
X32093Y931788D01*
X32210Y931934D01*
X32330Y932077D01*
X32454Y932217D01*
X32581Y932354D01*
X32712Y932488D01*
X32846Y932619D01*
X32983Y932746D01*
X33123Y932870D01*
X33266Y932990D01*
X33412Y933107D01*
X33561Y933220D01*
X33712Y933330D01*
X33867Y933436D01*
X34023Y933538D01*
X34183Y933636D01*
X34344Y933730D01*
X34508Y933820D01*
X34674Y933906D01*
X34842Y933988D01*
X35012Y934066D01*
X35184Y934140D01*
X35358Y934209D01*
X35533Y934275D01*
X35710Y934335D01*
X35888Y934392D01*
X36068Y934444D01*
X36248Y934492D01*
X36430Y934535D01*
X36613Y934574D01*
X36797Y934608D01*
X36982Y934638D01*
X37167Y934663D01*
X37353Y934683D01*
X37539Y934699D01*
X37726Y934711D01*
X37913Y934718D01*
X38100Y934720D01*
X38287Y934718D01*
X38474Y934711D01*
X38661Y934699D01*
X38847Y934683D01*
X39033Y934663D01*
X39218Y934638D01*
X39403Y934608D01*
X39587Y934574D01*
X39770Y934535D01*
X39952Y934492D01*
X40132Y934444D01*
X40312Y934392D01*
X40490Y934335D01*
X40667Y934275D01*
X40842Y934209D01*
X41016Y934140D01*
X41188Y934066D01*
X41358Y933988D01*
X41526Y933906D01*
X41692Y933820D01*
X41856Y933730D01*
X42017Y933636D01*
X42177Y933538D01*
X42333Y933436D01*
X42488Y933330D01*
X42639Y933220D01*
X42788Y933107D01*
X42934Y932990D01*
X43077Y932870D01*
X43217Y932746D01*
X43354Y932619D01*
X43488Y932488D01*
X43619Y932354D01*
X43746Y932217D01*
X43870Y932077D01*
X43990Y931934D01*
X44107Y931788D01*
X44220Y931639D01*
X44330Y931488D01*
X44436Y931333D01*
X44538Y931177D01*
X44636Y931017D01*
X44730Y930856D01*
X44820Y930692D01*
X44906Y930526D01*
X44988Y930358D01*
X45066Y930188D01*
X45140Y930016D01*
X45209Y929842D01*
X45275Y929667D01*
X45335Y929490D01*
X45392Y929312D01*
X45444Y929132D01*
X45492Y928952D01*
X45535Y928770D01*
X45574Y928587D01*
X45608Y928403D01*
X45638Y928218D01*
X45663Y928033D01*
X45683Y927847D01*
X45699Y927661D01*
X45711Y927474D01*
X45718Y927287D01*
X45720Y927100D01*
X45718Y926913D01*
X45711Y926726D01*
X45699Y926539D01*
X45683Y926353D01*
X45663Y926167D01*
X45638Y925982D01*
X45608Y925797D01*
X45574Y925613D01*
X45535Y925430D01*
X45492Y925248D01*
X45444Y925068D01*
X45392Y924888D01*
X45335Y924710D01*
X45275Y924533D01*
X45209Y924358D01*
X45140Y924184D01*
X45066Y924012D01*
X44988Y923842D01*
X44906Y923674D01*
X44820Y923508D01*
X44730Y923344D01*
X44636Y923183D01*
X44538Y923023D01*
X44436Y922867D01*
X44330Y922712D01*
X44220Y922561D01*
X44107Y922412D01*
X43990Y922266D01*
X43870Y922123D01*
X43746Y921983D01*
X43619Y921846D01*
X43488Y921712D01*
X43354Y921581D01*
X43217Y921454D01*
X43077Y921330D01*
X42934Y921210D01*
X42788Y921093D01*
X42639Y920980D01*
X42488Y920870D01*
X42333Y920764D01*
X42177Y920662D01*
X42017Y920564D01*
X41856Y920470D01*
X41692Y920380D01*
X41526Y920294D01*
X41358Y920212D01*
X41188Y920134D01*
X41016Y920060D01*
X40842Y919991D01*
X40667Y919925D01*
X40490Y919865D01*
X40312Y919808D01*
X40132Y919756D01*
X39952Y919708D01*
X39770Y919665D01*
X39587Y919626D01*
X39403Y919592D01*
X39218Y919562D01*
X39033Y919537D01*
X38847Y919517D01*
X38661Y919501D01*
X38474Y919489D01*
X38287Y919482D01*
X38100Y919480D01*
X37913Y919482D01*
X37726Y919489D01*
X37539Y919501D01*
X37353Y919517D01*
X37167Y919537D01*
X36982Y919562D01*
X36797Y919592D01*
X36613Y919626D01*
X36430Y919665D01*
X36248Y919708D01*
X36068Y919756D01*
X35888Y919808D01*
X35710Y919865D01*
X35533Y919925D01*
X35358Y919991D01*
X35184Y920060D01*
X35012Y920134D01*
X34842Y920212D01*
X34674Y920294D01*
X34508Y920380D01*
X34344Y920470D01*
X34183Y920564D01*
X34023Y920662D01*
X33867Y920764D01*
X33712Y920870D01*
X33561Y920980D01*
X33412Y921093D01*
X33266Y921210D01*
X33123Y921330D01*
X32983Y921454D01*
X32846Y921581D01*
X32712Y921712D01*
X32581Y921846D01*
X32454Y921983D01*
X32330Y922123D01*
X32210Y922266D01*
X32093Y922412D01*
X31980Y922561D01*
X31870Y922712D01*
X31764Y922867D01*
X31662Y923023D01*
X31564Y923183D01*
X31470Y923344D01*
X31380Y923508D01*
X31294Y923674D01*
X31212Y923842D01*
X31134Y924012D01*
X31060Y924184D01*
X30991Y924358D01*
X30925Y924533D01*
X30865Y924710D01*
X30808Y924888D01*
X30756Y925068D01*
X30708Y925248D01*
X30665Y925430D01*
X30626Y925613D01*
X30592Y925797D01*
X30562Y925982D01*
X30537Y926167D01*
X30517Y926353D01*
X30501Y926539D01*
X30489Y926726D01*
X30482Y926913D01*
X30480Y927100D01*
D25*
X38100Y927100D03*
D24*
X1224280Y88900D02*
X1224282Y89087D01*
X1224289Y89274D01*
X1224301Y89461D01*
X1224317Y89647D01*
X1224337Y89833D01*
X1224362Y90018D01*
X1224392Y90203D01*
X1224426Y90387D01*
X1224465Y90570D01*
X1224508Y90752D01*
X1224556Y90932D01*
X1224608Y91112D01*
X1224665Y91290D01*
X1224725Y91467D01*
X1224791Y91642D01*
X1224860Y91816D01*
X1224934Y91988D01*
X1225012Y92158D01*
X1225094Y92326D01*
X1225180Y92492D01*
X1225270Y92656D01*
X1225364Y92817D01*
X1225462Y92977D01*
X1225564Y93133D01*
X1225670Y93288D01*
X1225780Y93439D01*
X1225893Y93588D01*
X1226010Y93734D01*
X1226130Y93877D01*
X1226254Y94017D01*
X1226381Y94154D01*
X1226512Y94288D01*
X1226646Y94419D01*
X1226783Y94546D01*
X1226923Y94670D01*
X1227066Y94790D01*
X1227212Y94907D01*
X1227361Y95020D01*
X1227512Y95130D01*
X1227667Y95236D01*
X1227823Y95338D01*
X1227983Y95436D01*
X1228144Y95530D01*
X1228308Y95620D01*
X1228474Y95706D01*
X1228642Y95788D01*
X1228812Y95866D01*
X1228984Y95940D01*
X1229158Y96009D01*
X1229333Y96075D01*
X1229510Y96135D01*
X1229688Y96192D01*
X1229868Y96244D01*
X1230048Y96292D01*
X1230230Y96335D01*
X1230413Y96374D01*
X1230597Y96408D01*
X1230782Y96438D01*
X1230967Y96463D01*
X1231153Y96483D01*
X1231339Y96499D01*
X1231526Y96511D01*
X1231713Y96518D01*
X1231900Y96520D01*
X1232087Y96518D01*
X1232274Y96511D01*
X1232461Y96499D01*
X1232647Y96483D01*
X1232833Y96463D01*
X1233018Y96438D01*
X1233203Y96408D01*
X1233387Y96374D01*
X1233570Y96335D01*
X1233752Y96292D01*
X1233932Y96244D01*
X1234112Y96192D01*
X1234290Y96135D01*
X1234467Y96075D01*
X1234642Y96009D01*
X1234816Y95940D01*
X1234988Y95866D01*
X1235158Y95788D01*
X1235326Y95706D01*
X1235492Y95620D01*
X1235656Y95530D01*
X1235817Y95436D01*
X1235977Y95338D01*
X1236133Y95236D01*
X1236288Y95130D01*
X1236439Y95020D01*
X1236588Y94907D01*
X1236734Y94790D01*
X1236877Y94670D01*
X1237017Y94546D01*
X1237154Y94419D01*
X1237288Y94288D01*
X1237419Y94154D01*
X1237546Y94017D01*
X1237670Y93877D01*
X1237790Y93734D01*
X1237907Y93588D01*
X1238020Y93439D01*
X1238130Y93288D01*
X1238236Y93133D01*
X1238338Y92977D01*
X1238436Y92817D01*
X1238530Y92656D01*
X1238620Y92492D01*
X1238706Y92326D01*
X1238788Y92158D01*
X1238866Y91988D01*
X1238940Y91816D01*
X1239009Y91642D01*
X1239075Y91467D01*
X1239135Y91290D01*
X1239192Y91112D01*
X1239244Y90932D01*
X1239292Y90752D01*
X1239335Y90570D01*
X1239374Y90387D01*
X1239408Y90203D01*
X1239438Y90018D01*
X1239463Y89833D01*
X1239483Y89647D01*
X1239499Y89461D01*
X1239511Y89274D01*
X1239518Y89087D01*
X1239520Y88900D01*
X1239518Y88713D01*
X1239511Y88526D01*
X1239499Y88339D01*
X1239483Y88153D01*
X1239463Y87967D01*
X1239438Y87782D01*
X1239408Y87597D01*
X1239374Y87413D01*
X1239335Y87230D01*
X1239292Y87048D01*
X1239244Y86868D01*
X1239192Y86688D01*
X1239135Y86510D01*
X1239075Y86333D01*
X1239009Y86158D01*
X1238940Y85984D01*
X1238866Y85812D01*
X1238788Y85642D01*
X1238706Y85474D01*
X1238620Y85308D01*
X1238530Y85144D01*
X1238436Y84983D01*
X1238338Y84823D01*
X1238236Y84667D01*
X1238130Y84512D01*
X1238020Y84361D01*
X1237907Y84212D01*
X1237790Y84066D01*
X1237670Y83923D01*
X1237546Y83783D01*
X1237419Y83646D01*
X1237288Y83512D01*
X1237154Y83381D01*
X1237017Y83254D01*
X1236877Y83130D01*
X1236734Y83010D01*
X1236588Y82893D01*
X1236439Y82780D01*
X1236288Y82670D01*
X1236133Y82564D01*
X1235977Y82462D01*
X1235817Y82364D01*
X1235656Y82270D01*
X1235492Y82180D01*
X1235326Y82094D01*
X1235158Y82012D01*
X1234988Y81934D01*
X1234816Y81860D01*
X1234642Y81791D01*
X1234467Y81725D01*
X1234290Y81665D01*
X1234112Y81608D01*
X1233932Y81556D01*
X1233752Y81508D01*
X1233570Y81465D01*
X1233387Y81426D01*
X1233203Y81392D01*
X1233018Y81362D01*
X1232833Y81337D01*
X1232647Y81317D01*
X1232461Y81301D01*
X1232274Y81289D01*
X1232087Y81282D01*
X1231900Y81280D01*
X1231713Y81282D01*
X1231526Y81289D01*
X1231339Y81301D01*
X1231153Y81317D01*
X1230967Y81337D01*
X1230782Y81362D01*
X1230597Y81392D01*
X1230413Y81426D01*
X1230230Y81465D01*
X1230048Y81508D01*
X1229868Y81556D01*
X1229688Y81608D01*
X1229510Y81665D01*
X1229333Y81725D01*
X1229158Y81791D01*
X1228984Y81860D01*
X1228812Y81934D01*
X1228642Y82012D01*
X1228474Y82094D01*
X1228308Y82180D01*
X1228144Y82270D01*
X1227983Y82364D01*
X1227823Y82462D01*
X1227667Y82564D01*
X1227512Y82670D01*
X1227361Y82780D01*
X1227212Y82893D01*
X1227066Y83010D01*
X1226923Y83130D01*
X1226783Y83254D01*
X1226646Y83381D01*
X1226512Y83512D01*
X1226381Y83646D01*
X1226254Y83783D01*
X1226130Y83923D01*
X1226010Y84066D01*
X1225893Y84212D01*
X1225780Y84361D01*
X1225670Y84512D01*
X1225564Y84667D01*
X1225462Y84823D01*
X1225364Y84983D01*
X1225270Y85144D01*
X1225180Y85308D01*
X1225094Y85474D01*
X1225012Y85642D01*
X1224934Y85812D01*
X1224860Y85984D01*
X1224791Y86158D01*
X1224725Y86333D01*
X1224665Y86510D01*
X1224608Y86688D01*
X1224556Y86868D01*
X1224508Y87048D01*
X1224465Y87230D01*
X1224426Y87413D01*
X1224392Y87597D01*
X1224362Y87782D01*
X1224337Y87967D01*
X1224317Y88153D01*
X1224301Y88339D01*
X1224289Y88526D01*
X1224282Y88713D01*
X1224280Y88900D01*
D25*
X1231900Y88900D03*
M02*
